NotoSerifTamilSlanted-CondensedBold.ufo
<glyph name="exclam" format="2">
  <advance width="349.5"/>
  <unicode hex="0021"/>
  <outline>
    <contour>
      <point x="138.5" y="224.5" type="line"/>
      <point x="197.5" y="224.5" type="line"/>
      <point x="360.9" y="714.0" type="line"/>
      <point x="203.0" y="714.0" type="line"/>
    </contour>
    <contour>
      <point x="140.5" y="-8.0" type="curve" smooth="yes"/>
      <point x="179.0" y="-8.0"/>
      <point x="221.20000000000002" y="15.0"/>
      <point x="221.20000000000002" y="80.6" type="curve" smooth="yes"/>
      <point x="221.20000000000002" y="127.5"/>
      <point x="191.10000000000002" y="149.1"/>
      <point x="150.0" y="149.1" type="curve" smooth="yes"/>
      <point x="101.89999999999999" y="149.1"/>
      <point x="70.0" y="113.10000000000001"/>
      <point x="70.0" y="61.900000000000006" type="curve" smooth="yes"/>
      <point x="70.0" y="17.1"/>
      <point x="98.8" y="-8.0"/>
    </contour>
  </outline>
</glyph>
<glyph name="quotedbl" format="2">
  <advance width="437.3"/>
  <unicode hex="0022"/>
  <outline>
    <contour>
      <point x="131.7" y="446.7" type="line"/>
      <point x="191.4" y="446.7" type="line"/>
      <point x="301.2" y="714.0" type="line"/>
      <point x="159.89999999999998" y="714.0" type="line"/>
    </contour>
    <contour>
      <point x="324.5" y="446.7" type="line"/>
      <point x="383.5" y="446.7" type="line"/>
      <point x="493.29999999999995" y="714.0" type="line"/>
      <point x="352.7" y="714.0" type="line"/>
    </contour>
  </outline>
</glyph>
<glyph name="numbersign" format="2">
  <advance width="484.1"/>
  <unicode hex="0023"/>
  <outline>
    <contour>
      <point x="52.2" y="0.0" type="line"/>
      <point x="115.5" y="0.0" type="line"/>
      <point x="172.4" y="200.7" type="line"/>
      <point x="271.5" y="200.7" type="line"/>
      <point x="215.6" y="0.0" type="line"/>
      <point x="278.2" y="0.0" type="line"/>
      <point x="334.09999999999997" y="200.7" type="line"/>
      <point x="438.8" y="200.7" type="line"/>
      <point x="446.5" y="267.6" type="line"/>
      <point x="354.4" y="267.6" type="line"/>
      <point x="405.29999999999995" y="451.4" type="line"/>
      <point x="496.1" y="451.4" type="line"/>
      <point x="504.79999999999995" y="519.3" type="line"/>
      <point x="425.59999999999997" y="519.3" type="line"/>
      <point x="480.5" y="714.0" type="line"/>
      <point x="417.9" y="714.0" type="line"/>
      <point x="363.0" y="519.3" type="line"/>
      <point x="263.90000000000003" y="519.3" type="line"/>
      <point x="317.1" y="714.0" type="line"/>
      <point x="254.2" y="714.0" type="line"/>
      <point x="201.3" y="519.3" type="line"/>
      <point x="96.8" y="519.3" type="line"/>
      <point x="88.1" y="451.4" type="line"/>
      <point x="181.0" y="451.4" type="line"/>
      <point x="129.1" y="267.6" type="line"/>
      <point x="38.5" y="267.6" type="line"/>
      <point x="30.8" y="200.7" type="line"/>
      <point x="109.8" y="200.7" type="line"/>
    </contour>
    <contour>
      <point x="191.0" y="267.6" type="line"/>
      <point x="242.9" y="451.4" type="line"/>
      <point x="343.0" y="451.4" type="line"/>
      <point x="291.1" y="267.6" type="line"/>
    </contour>
  </outline>
</glyph>
<glyph name="percent" format="2">
  <advance width="793.1"/>
  <unicode hex="0025"/>
  <outline>
    <contour>
      <point x="165.0" y="0.0" type="line"/>
      <point x="233.2" y="0.0" type="line"/>
      <point x="680.0" y="714.0" type="line"/>
      <point x="614.793" y="714.0" type="line"/>
    </contour>
    <contour>
      <point x="194.1" y="280.0" type="curve" smooth="yes"/>
      <point x="340.3" y="280.0"/>
      <point x="408.5" y="467.0"/>
      <point x="408.5" y="580.6" type="curve" smooth="yes"/>
      <point x="408.5" y="663.5"/>
      <point x="370.8" y="724.0"/>
      <point x="285.2" y="724.0" type="curve" smooth="yes"/>
      <point x="140.6" y="724.0"/>
      <point x="74.8" y="542.5999999999999"/>
      <point x="74.8" y="421.09999999999997" type="curve"/>
      <point x="74.8" y="328.2"/>
      <point x="121.39999999999999" y="280.0"/>
    </contour>
    <contour>
      <point x="207.20000000000002" y="328.90000000000003" type="curve" smooth="yes"/>
      <point x="181.5" y="328.90000000000003"/>
      <point x="171.6" y="360.1"/>
      <point x="171.6" y="408.9" type="curve" smooth="yes"/>
      <point x="171.6" y="491.40000000000003"/>
      <point x="213.3" y="673.4000000000001"/>
      <point x="280.8" y="673.4000000000001" type="curve" smooth="yes"/>
      <point x="307.5" y="673.4000000000001"/>
      <point x="316.40000000000003" y="644.6"/>
      <point x="316.40000000000003" y="596.5" type="curve" smooth="yes"/>
      <point x="316.40000000000003" y="512.3"/>
      <point x="274.7" y="328.90000000000003"/>
    </contour>
    <contour>
      <point x="560.1" y="-9.3" type="curve" smooth="yes"/>
      <point x="706.3000000000001" y="-9.3"/>
      <point x="773.8" y="177.70000000000002"/>
      <point x="773.8" y="290.6" type="curve" smooth="yes"/>
      <point x="773.8" y="373.5"/>
      <point x="736.8000000000001" y="434.0"/>
      <point x="650.5" y="434.0" type="curve" smooth="yes"/>
      <point x="506.6" y="434.0"/>
      <point x="440.8" y="253.3"/>
      <point x="440.8" y="131.1" type="curve"/>
      <point x="440.8" y="38.900000000000006"/>
      <point x="486.70000000000005" y="-9.3"/>
    </contour>
    <contour>
      <point x="571.8000000000001" y="39.599999999999994" type="curve" smooth="yes"/>
      <point x="546.8" y="39.599999999999994"/>
      <point x="536.9" y="70.1"/>
      <point x="536.9" y="119.6" type="curve" smooth="yes"/>
      <point x="536.9" y="201.4"/>
      <point x="578.5999999999999" y="384.09999999999997"/>
      <point x="646.1" y="384.09999999999997" type="curve" smooth="yes"/>
      <point x="672.8000000000001" y="384.09999999999997"/>
      <point x="681.6999999999999" y="354.59999999999997"/>
      <point x="681.6999999999999" y="306.5" type="curve" smooth="yes"/>
      <point x="681.6999999999999" y="222.3"/>
      <point x="640.7" y="39.599999999999994"/>
    </contour>
  </outline>
</glyph>
<glyph name="quotesingle" format="2">
  <advance width="250.79999999999998"/>
  <unicode hex="0027"/>
  <outline>
    <contour>
      <point x="138.7" y="446.7" type="line"/>
      <point x="198.4" y="446.7" type="line"/>
      <point x="298.2" y="714.0" type="line"/>
      <point x="157.6" y="714.0" type="line"/>
    </contour>
  </outline>
</glyph>
<glyph name="parenleft" format="2">
  <advance width="353.09999999999997"/>
  <unicode hex="0028"/>
  <outline>
    <contour>
      <point x="235.7" y="-136.9" type="curve"/>
      <point x="249.39999999999998" y="-76.4" type="line"/>
      <point x="197.70000000000002" y="-32.2"/>
      <point x="179.89999999999998" y="53.5"/>
      <point x="179.89999999999998" y="131.3" type="curve" smooth="yes"/>
      <point x="179.89999999999998" y="261.29999999999995"/>
      <point x="228.9" y="591.8"/>
      <point x="416.7" y="710.4000000000001" type="curve"/>
      <point x="427.4" y="769.2" type="line"/>
      <point x="168.9" y="699.0"/>
      <point x="41.300000000000004" y="417.2"/>
      <point x="41.300000000000004" y="172.70000000000002" type="curve" smooth="yes"/>
      <point x="41.300000000000004" y="35.7"/>
      <point x="98.5" y="-83.69999999999999"/>
    </contour>
  </outline>
</glyph>
<glyph name="parenright" format="2">
  <advance width="353.09999999999997"/>
  <unicode hex="0029"/>
  <outline>
    <contour>
      <point x="-41.9" y="-137.3" type="line"/>
      <point x="217.3" y="-67.1"/>
      <point x="344.2" y="215.4"/>
      <point x="344.2" y="459.2" type="curve" smooth="yes"/>
      <point x="344.2" y="596.2"/>
      <point x="287.0" y="714.9000000000001"/>
      <point x="149.8" y="768.8" type="curve"/>
      <point x="136.8" y="708.3" type="line"/>
      <point x="187.8" y="664.1"/>
      <point x="204.9" y="579.0999999999999"/>
      <point x="204.9" y="500.6" type="curve" smooth="yes"/>
      <point x="204.9" y="371.3"/>
      <point x="157.3" y="40.1"/>
      <point x="-31.2" y="-77.80000000000001" type="curve"/>
    </contour>
  </outline>
</glyph>
<glyph name="asterisk" format="2">
  <advance width="517.9"/>
  <unicode hex="002A"/>
  <outline>
    <contour>
      <point x="336.2" y="361.5" type="line"/>
      <point x="339.4" y="526.1" type="line"/>
      <point x="443.40000000000003" y="394.5" type="line"/>
      <point x="503.5" y="478.0" type="line"/>
      <point x="381.9" y="552.1" type="line"/>
      <point x="519.5" y="559.5" type="line"/>
      <point x="501.40000000000003" y="662.3" type="line"/>
      <point x="354.4" y="593.4000000000001" type="line"/>
      <point x="419.2" y="742.7" type="line"/>
      <point x="321.8" y="765.0" type="line"/>
      <point x="316.3" y="599.7" type="line"/>
      <point x="214.29999999999998" y="735.3" type="line"/>
      <point x="154.2" y="649.5" type="line"/>
      <point x="275.79999999999995" y="575.7" type="line"/>
      <point x="137.20000000000002" y="565.5999999999999" type="line"/>
      <point x="156.29999999999998" y="464.5" type="line"/>
      <point x="302.3" y="535.4000000000001" type="line"/>
      <point x="239.8" y="383.09999999999997" type="line"/>
    </contour>
  </outline>
</glyph>
<glyph name="plus" format="2">
  <advance width="465.2"/>
  <unicode hex="002B"/>
  <outline>
    <contour>
      <point x="216.4" y="143.0" type="line"/>
      <point x="286.29999999999995" y="143.0" type="line"/>
      <point x="286.29999999999995" y="323.4" type="line"/>
      <point x="438.0" y="323.4" type="line"/>
      <point x="438.0" y="391.6" type="line"/>
      <point x="286.29999999999995" y="391.6" type="line"/>
      <point x="286.29999999999995" y="572.0" type="line"/>
      <point x="216.4" y="572.0" type="line"/>
      <point x="216.4" y="391.6" type="line"/>
      <point x="65.0" y="391.6" type="line"/>
      <point x="65.0" y="323.4" type="line"/>
      <point x="216.4" y="323.4" type="line"/>
    </contour>
  </outline>
</glyph>
<glyph name="comma" format="2">
  <advance width="269.7"/>
  <unicode hex="002C"/>
  <outline>
    <contour>
      <point x="-16.7" y="-150.3" type="line"/>
      <point x="115.30000000000001" y="-122.3"/>
      <point x="184.4" y="-39.300000000000004"/>
      <point x="184.4" y="60.6" type="curve" smooth="yes"/>
      <point x="184.4" y="116.5"/>
      <point x="151.0" y="148.1"/>
      <point x="110.0" y="148.1" type="curve" smooth="yes"/>
      <point x="74.19999999999999" y="148.1"/>
      <point x="42.0" y="122.10000000000001"/>
      <point x="42.0" y="78.4" type="curve" smooth="yes"/>
      <point x="42.0" y="24.6"/>
      <point x="86.80000000000001" y="24.200000000000003"/>
      <point x="86.80000000000001" y="-14.3" type="curve" smooth="yes"/>
      <point x="86.80000000000001" y="-54.7"/>
      <point x="56.0" y="-82.7"/>
      <point x="-5.0" y="-99.4" type="curve"/>
    </contour>
  </outline>
</glyph>
<glyph name="hyphen" format="2">
  <advance width="268.70000000000005"/>
  <unicode hex="002D"/>
  <outline>
    <contour>
      <point x="14.899999999999999" y="223.5" type="line"/>
      <point x="239.9" y="223.5" type="line"/>
      <point x="263.59999999999997" y="321.5" type="line"/>
      <point x="37.9" y="321.5" type="line"/>
    </contour>
  </outline>
</glyph>
<glyph name="period" format="2">
  <advance width="269.7"/>
  <unicode hex="002E"/>
  <outline>
    <contour>
      <point x="102.4" y="-8.0" type="curve" smooth="yes"/>
      <point x="140.89999999999998" y="-8.0"/>
      <point x="183.1" y="15.0"/>
      <point x="183.1" y="80.60000000000001" type="curve" smooth="yes"/>
      <point x="183.1" y="127.5"/>
      <point x="153.0" y="149.1"/>
      <point x="111.9" y="149.1" type="curve" smooth="yes"/>
      <point x="63.8" y="149.1"/>
      <point x="31.900000000000002" y="113.10000000000001"/>
      <point x="31.900000000000002" y="61.9" type="curve" smooth="yes"/>
      <point x="31.900000000000002" y="17.1"/>
      <point x="60.7" y="-8.0"/>
    </contour>
  </outline>
</glyph>
<glyph name="slash" format="2">
  <advance width="249.5"/>
  <unicode hex="002F"/>
  <outline>
    <contour>
      <point x="-93.89999999999999" y="-121.0" type="line"/>
      <point x="-25.0" y="-121.0" type="line"/>
      <point x="370.9" y="760.0" type="line"/>
      <point x="301.3" y="760.0" type="line"/>
    </contour>
  </outline>
</glyph>
<glyph name="zero" format="2">
  <advance width="507.9"/>
  <unicode hex="0030"/>
  <outline>
    <contour>
      <point x="222.6" y="-11.0" type="curve" smooth="yes"/>
      <point x="425.0" y="-11.0"/>
      <point x="516.4" y="312.2"/>
      <point x="516.4" y="507.90000000000003" type="curve" smooth="yes"/>
      <point x="516.4" y="657.8"/>
      <point x="441.8" y="725.0"/>
      <point x="344.59999999999997" y="725.0" type="curve" smooth="yes"/>
      <point x="142.20000000000002" y="725.0"/>
      <point x="47.5" y="421.2"/>
      <point x="47.5" y="217.70000000000002" type="curve" smooth="yes"/>
      <point x="47.5" y="68.8"/>
      <point x="117.5" y="-11.0"/>
    </contour>
    <contour>
      <point x="229.3" y="54.9" type="curve" smooth="yes"/>
      <point x="192.8" y="54.9"/>
      <point x="169.8" y="95.5"/>
      <point x="169.8" y="178.20000000000002" type="curve" smooth="yes"/>
      <point x="169.8" y="344.7"/>
      <point x="240.6" y="660.1"/>
      <point x="338.90000000000003" y="660.1" type="curve" smooth="yes"/>
      <point x="377.40000000000003" y="660.1"/>
      <point x="399.09999999999997" y="619.5"/>
      <point x="399.09999999999997" y="538.8000000000001" type="curve" smooth="yes"/>
      <point x="399.09999999999997" y="375.0"/>
      <point x="332.3" y="54.9"/>
    </contour>
  </outline>
</glyph>
<glyph name="one" format="2">
  <advance width="507.9"/>
  <unicode hex="0031"/>
  <outline>
    <contour>
      <point x="42.1" y="0.0" type="line"/>
      <point x="404.0" y="0.0" type="line"/>
      <point x="415.0" y="50.9" type="line"/>
      <point x="373.0" y="50.9" type="line" smooth="yes"/>
      <point x="337.0" y="50.9"/>
      <point x="309.20000000000005" y="54.9"/>
      <point x="309.20000000000005" y="83.9" type="curve" smooth="yes"/>
      <point x="309.20000000000005" y="91.89999999999999"/>
      <point x="312.5" y="109.5"/>
      <point x="315.9" y="125.9" type="curve" smooth="yes"/>
      <point x="442.20000000000005" y="718.0" type="line"/>
      <point x="340.0" y="718.0" type="line"/>
      <point x="268.79999999999995" y="666.0" type="line" smooth="yes"/>
      <point x="201.2" y="617.0"/>
      <point x="158.79999999999998" y="601.0"/>
      <point x="118.4" y="589.0" type="curve"/>
      <point x="117.0" y="544.8"/>
      <point x="134.9" y="519.2"/>
      <point x="159.4" y="519.2" type="curve" smooth="yes"/>
      <point x="196.1" y="519.2"/>
      <point x="233.0" y="556.8"/>
      <point x="289.7" y="623.2" type="curve"/>
      <point x="293.0" y="623.2" type="line"/>
      <point x="278.90000000000003" y="581.4"/>
      <point x="269.3" y="536.4000000000001"/>
      <point x="258.59999999999997" y="484.1" type="curve" smooth="yes"/>
      <point x="181.6" y="116.6" type="line" smooth="yes"/>
      <point x="170.9" y="66.5"/>
      <point x="145.8" y="50.9"/>
      <point x="105.1" y="50.9" type="curve" smooth="yes"/>
      <point x="53.1" y="50.9" type="line"/>
    </contour>
  </outline>
</glyph>
<glyph name="two" format="2">
  <advance width="507.9"/>
  <unicode hex="0032"/>
  <outline>
    <contour>
      <point x="-9.8" y="0.0" type="line"/>
      <point x="404.4" y="0.0" type="line"/>
      <point x="454.1" y="202.3" type="line"/>
      <point x="400.70000000000005" y="202.3" type="line"/>
      <point x="393.7" y="185.0" type="line" smooth="yes"/>
      <point x="378.4" y="144.0"/>
      <point x="357.20000000000005" y="104.4"/>
      <point x="300.9" y="104.4" type="curve" smooth="yes"/>
      <point x="99.4" y="104.4" type="line"/>
      <point x="279.2" y="268.7" type="line" smooth="yes"/>
      <point x="451.6" y="413.1"/>
      <point x="511.30000000000007" y="488.3"/>
      <point x="511.30000000000007" y="587.8" type="curve" smooth="yes"/>
      <point x="511.30000000000007" y="671.6999999999999"/>
      <point x="446.1" y="724.0"/>
      <point x="328.7" y="724.0" type="curve" smooth="yes"/>
      <point x="193.8" y="724.0"/>
      <point x="119.89999999999999" y="655.9"/>
      <point x="119.89999999999999" y="578.3000000000001" type="curve" smooth="yes"/>
      <point x="119.89999999999999" y="524.1999999999999"/>
      <point x="163.3" y="498.6"/>
      <point x="223.0" y="498.6" type="curve"/>
      <point x="229.7" y="591.5"/>
      <point x="263.2" y="664.8"/>
      <point x="317.3" y="664.8" type="curve" smooth="yes"/>
      <point x="353.2" y="664.8"/>
      <point x="373.3" y="627.9"/>
      <point x="373.3" y="576.4" type="curve" smooth="yes"/>
      <point x="373.3" y="491.0"/>
      <point x="345.9" y="421.3"/>
      <point x="218.29999999999998" y="298.59999999999997" type="curve" smooth="yes"/>
      <point x="10.5" y="98.80000000000001" type="line"/>
    </contour>
  </outline>
</glyph>
<glyph name="three" format="2">
  <advance width="507.9"/>
  <unicode hex="0033"/>
  <outline>
    <contour>
      <point x="188.29999999999998" y="-10.0" type="curve" smooth="yes"/>
      <point x="308.6" y="-10.0"/>
      <point x="457.2" y="49.4"/>
      <point x="457.2" y="230.6" type="curve" smooth="yes"/>
      <point x="457.2" y="312.4"/>
      <point x="408.3" y="362.7"/>
      <point x="331.0" y="372.0" type="curve"/>
      <point x="450.3" y="396.7"/>
      <point x="511.69999999999993" y="491.5"/>
      <point x="511.69999999999993" y="585.2" type="curve" smooth="yes"/>
      <point x="511.69999999999993" y="673.4"/>
      <point x="440.2" y="724.0"/>
      <point x="334.0" y="724.0" type="curve" smooth="yes"/>
      <point x="212.7" y="724.0"/>
      <point x="115.6" y="657.9"/>
      <point x="115.6" y="575.9" type="curve" smooth="yes"/>
      <point x="115.6" y="530.4"/>
      <point x="159.7" y="516.1"/>
      <point x="216.7" y="516.1" type="curve"/>
      <point x="230.7" y="595.1"/>
      <point x="255.6" y="665.1"/>
      <point x="316.7" y="665.1" type="curve" smooth="yes"/>
      <point x="357.7" y="665.1"/>
      <point x="374.5" y="631.2"/>
      <point x="374.5" y="583.3000000000001" type="curve" smooth="yes"/>
      <point x="374.5" y="472.4"/>
      <point x="299.2" y="399.3"/>
      <point x="197.70000000000002" y="399.3" type="curve" smooth="yes"/>
      <point x="169.9" y="399.3" type="line"/>
      <point x="159.89999999999998" y="339.4" type="line"/>
      <point x="197.3" y="339.4" type="line" smooth="yes"/>
      <point x="275.1" y="339.4"/>
      <point x="318.0" y="297.5"/>
      <point x="318.0" y="224.29999999999998" type="curve" smooth="yes"/>
      <point x="318.0" y="114.0"/>
      <point x="259.2" y="58.2"/>
      <point x="202.0" y="58.2" type="curve" smooth="yes"/>
      <point x="135.2" y="58.2"/>
      <point x="106.2" y="115.89999999999999"/>
      <point x="108.3" y="191.1" type="curve"/>
      <point x="44.199999999999996" y="191.1"/>
      <point x="6.699999999999999" y="159.5"/>
      <point x="6.699999999999999" y="106.8" type="curve" smooth="yes"/>
      <point x="6.699999999999999" y="51.5"/>
      <point x="54.0" y="-10.0"/>
    </contour>
  </outline>
</glyph>
<glyph name="four" format="2">
  <advance width="507.9"/>
  <unicode hex="0034"/>
  <outline>
    <contour>
      <point x="119.9" y="0.0" type="line"/>
      <point x="426.8" y="0.0" type="line"/>
      <point x="438.5" y="50.9" type="line"/>
      <point x="423.3" y="50.9" type="line" smooth="yes"/>
      <point x="389.59999999999997" y="50.9"/>
      <point x="368.5" y="56.199999999999996"/>
      <point x="368.5" y="88.10000000000001" type="curve" smooth="yes"/>
      <point x="368.5" y="95.5"/>
      <point x="370.5" y="112.5"/>
      <point x="372.5" y="121.19999999999999" type="curve" smooth="yes"/>
      <point x="497.8" y="714.0" type="line"/>
      <point x="368.3" y="714.0" type="line"/>
      <point x="30.799999999999997" y="245.9" type="line"/>
      <point x="16.799999999999997" y="188.8" type="line"/>
      <point x="472.7" y="188.8" type="line"/>
      <point x="486.7" y="251.29999999999998" type="line"/>
      <point x="66.6" y="251.29999999999998" type="line"/>
      <point x="79.8" y="227.79999999999998" type="line"/>
      <point x="255.0" y="468.3" type="line" smooth="yes"/>
      <point x="281.90000000000003" y="505.4"/>
      <point x="325.6" y="572.5999999999999"/>
      <point x="350.4" y="621.8" type="curve"/>
      <point x="332.09999999999997" y="559.8"/>
      <point x="314.79999999999995" y="483.5"/>
      <point x="303.79999999999995" y="429.79999999999995" type="curve" smooth="yes"/>
      <point x="239.79999999999998" y="122.89999999999999" type="line" smooth="yes"/>
      <point x="225.79999999999998" y="55.599999999999994"/>
      <point x="186.7" y="50.9"/>
      <point x="153.29999999999998" y="50.9" type="curve" smooth="yes"/>
      <point x="130.6" y="50.9" type="line"/>
    </contour>
  </outline>
</glyph>
<glyph name="five" format="2">
  <advance width="507.9"/>
  <unicode hex="0035"/>
  <outline>
    <contour>
      <point x="185.7" y="-10.0" type="curve" smooth="yes"/>
      <point x="355.7" y="-10.0"/>
      <point x="457.4" y="104.5"/>
      <point x="457.4" y="253.3" type="curve" smooth="yes"/>
      <point x="457.4" y="369.40000000000003"/>
      <point x="381.7" y="432.6"/>
      <point x="263.3" y="432.6" type="curve" smooth="yes"/>
      <point x="221.3" y="432.6"/>
      <point x="193.8" y="423.6"/>
      <point x="172.6" y="416.6" type="curve"/>
      <point x="225.4" y="610.6" type="line"/>
      <point x="403.2" y="610.6" type="line" smooth="yes"/>
      <point x="435.6" y="610.6"/>
      <point x="445.2" y="601.3"/>
      <point x="445.2" y="587.0" type="curve" smooth="yes"/>
      <point x="445.2" y="579.6999999999999"/>
      <point x="442.5" y="556.0"/>
      <point x="440.8" y="538.3" type="curve"/>
      <point x="496.2" y="538.3" type="line"/>
      <point x="526.6" y="714.0" type="line"/>
      <point x="194.10000000000002" y="714.0" type="line"/>
      <point x="97.0" y="367.0" type="line"/>
      <point x="133.39999999999998" y="347.4" type="line"/>
      <point x="155.2" y="358.4"/>
      <point x="181.4" y="369.4"/>
      <point x="222.4" y="369.4" type="curve" smooth="yes"/>
      <point x="280.2" y="369.4"/>
      <point x="322.4" y="328.1"/>
      <point x="322.4" y="245.60000000000002" type="curve" smooth="yes"/>
      <point x="322.4" y="122.1"/>
      <point x="272.40000000000003" y="56.5"/>
      <point x="196.6" y="56.5" type="curve" smooth="yes"/>
      <point x="119.1" y="56.5"/>
      <point x="104.0" y="128.6"/>
      <point x="104.39999999999999" y="184.89999999999998" type="curve"/>
      <point x="46.7" y="184.89999999999998"/>
      <point x="19.799999999999997" y="149.6"/>
      <point x="19.799999999999997" y="104.2" type="curve" smooth="yes"/>
      <point x="19.799999999999997" y="43.0"/>
      <point x="66.3" y="-10.0"/>
    </contour>
  </outline>
</glyph>
<glyph name="six" format="2">
  <advance width="507.9"/>
  <unicode hex="0036"/>
  <outline>
    <contour>
      <point x="235.9" y="-10.0" type="curve" smooth="yes"/>
      <point x="399.7" y="-10.0"/>
      <point x="479.7" y="126.6"/>
      <point x="479.7" y="268.0" type="curve" smooth="yes"/>
      <point x="479.7" y="359.8"/>
      <point x="435.1" y="436.6"/>
      <point x="338.7" y="436.6" type="curve" smooth="yes"/>
      <point x="278.40000000000003" y="436.6"/>
      <point x="236.7" y="409.6"/>
      <point x="210.2" y="386.6" type="curve"/>
      <point x="249.8" y="574.0"/>
      <point x="307.8" y="667.1"/>
      <point x="380.5" y="667.1" type="curve" smooth="yes"/>
      <point x="425.79999999999995" y="667.1"/>
      <point x="429.0" y="604.5"/>
      <point x="426.9" y="540.9" type="curve"/>
      <point x="499.59999999999997" y="540.9"/>
      <point x="542.8" y="572.9"/>
      <point x="542.8" y="624.5" type="curve" smooth="yes"/>
      <point x="542.8" y="678.8000000000001"/>
      <point x="494.2" y="724.0"/>
      <point x="400.6" y="724.0" type="curve" smooth="yes"/>
      <point x="192.0" y="724.0"/>
      <point x="58.7" y="467.7"/>
      <point x="58.7" y="218.7" type="curve" smooth="yes"/>
      <point x="58.7" y="62.300000000000004"/>
      <point x="137.7" y="-10.0"/>
    </contour>
    <contour>
      <point x="250.6" y="52.2" type="curve" smooth="yes"/>
      <point x="209.1" y="52.2"/>
      <point x="183.10000000000002" y="95.5"/>
      <point x="183.10000000000002" y="188.1" type="curve" smooth="yes"/>
      <point x="183.10000000000002" y="233.9"/>
      <point x="187.79999999999998" y="273.2"/>
      <point x="197.2" y="325.0" type="curve"/>
      <point x="220.0" y="350.7"/>
      <point x="256.7" y="378.4"/>
      <point x="293.40000000000003" y="378.4" type="curve" smooth="yes"/>
      <point x="331.9" y="378.4"/>
      <point x="352.70000000000005" y="337.9"/>
      <point x="352.70000000000005" y="265.59999999999997" type="curve" smooth="yes"/>
      <point x="352.70000000000005" y="146.6"/>
      <point x="310.2" y="52.2"/>
    </contour>
  </outline>
</glyph>
<glyph name="seven" format="2">
  <advance width="507.9"/>
  <unicode hex="0037"/>
  <outline>
    <contour>
      <point x="101.89999999999999" y="0.0" type="line"/>
      <point x="177.79999999999998" y="0.0" type="line"/>
      <point x="554.6" y="660.5999999999999" type="line"/>
      <point x="564.9" y="714.0" type="line"/>
      <point x="152.3" y="714.0" type="line"/>
      <point x="107.10000000000001" y="509.6" type="line"/>
      <point x="162.5" y="509.6" type="line"/>
      <point x="175.8" y="559.6" type="line" smooth="yes"/>
      <point x="184.8" y="592.6"/>
      <point x="206.0" y="611.3"/>
      <point x="237.10000000000002" y="611.3" type="curve" smooth="yes"/>
      <point x="459.79999999999995" y="611.3" type="line"/>
    </contour>
  </outline>
</glyph>
<glyph name="eight" format="2">
  <advance width="507.9"/>
  <unicode hex="0038"/>
  <outline>
    <contour>
      <point x="233.0" y="-10.0" type="curve" smooth="yes"/>
      <point x="369.2" y="-10.0"/>
      <point x="469.6" y="58.8"/>
      <point x="469.6" y="207.60000000000002" type="curve" smooth="yes"/>
      <point x="469.6" y="285.8"/>
      <point x="427.40000000000003" y="339.7"/>
      <point x="368.9" y="380.90000000000003" type="curve"/>
      <point x="459.5" y="427.7"/>
      <point x="521.5" y="479.1"/>
      <point x="521.5" y="582.2" type="curve" smooth="yes"/>
      <point x="521.5" y="663.4"/>
      <point x="458.0" y="724.0"/>
      <point x="349.5" y="724.0" type="curve" smooth="yes"/>
      <point x="187.10000000000002" y="724.0"/>
      <point x="123.8" y="633.4"/>
      <point x="123.8" y="530.6" type="curve" smooth="yes"/>
      <point x="123.8" y="463.8"/>
      <point x="155.8" y="404.3"/>
      <point x="202.3" y="362.7" type="curve"/>
      <point x="102.2" y="319.0"/>
      <point x="25.599999999999998" y="271.20000000000005"/>
      <point x="25.599999999999998" y="156.4" type="curve" smooth="yes"/>
      <point x="25.599999999999998" y="59.9"/>
      <point x="106.3" y="-10.0"/>
    </contour>
    <contour>
      <point x="234.0" y="45.9" type="curve" smooth="yes"/>
      <point x="178.9" y="45.9"/>
      <point x="146.60000000000002" y="87.2"/>
      <point x="146.60000000000002" y="152.4" type="curve" smooth="yes"/>
      <point x="146.60000000000002" y="238.6"/>
      <point x="187.70000000000002" y="294.4"/>
      <point x="254.6" y="327.5" type="curve"/>
      <point x="314.9" y="285.5"/>
      <point x="346.90000000000003" y="243.9"/>
      <point x="346.90000000000003" y="180.3" type="curve" smooth="yes"/>
      <point x="346.90000000000003" y="91.39999999999999"/>
      <point x="294.9" y="45.9"/>
    </contour>
    <contour>
      <point x="316.7" y="411.90000000000003" type="curve"/>
      <point x="271.9" y="445.90000000000003"/>
      <point x="249.20000000000002" y="487.8"/>
      <point x="249.20000000000002" y="538.4" type="curve" smooth="yes"/>
      <point x="249.20000000000002" y="616.9"/>
      <point x="289.5" y="667.4000000000001"/>
      <point x="343.1" y="667.4000000000001" type="curve" smooth="yes"/>
      <point x="386.6" y="667.4000000000001"/>
      <point x="407.4" y="628.5"/>
      <point x="407.4" y="576.6" type="curve" smooth="yes"/>
      <point x="407.4" y="510.5"/>
      <point x="383.90000000000003" y="454.7"/>
    </contour>
  </outline>
</glyph>
<glyph name="nine" format="2">
  <advance width="507.9"/>
  <unicode hex="0039"/>
  <outline>
    <contour>
      <point x="163.9" y="-10.0" type="curve" smooth="yes"/>
      <point x="409.907" y="-10.0"/>
      <point x="508.4" y="353.3"/>
      <point x="508.4" y="538.2" type="curve" smooth="yes"/>
      <point x="508.4" y="657.2"/>
      <point x="444.29999999999995" y="724.0"/>
      <point x="341.8" y="724.0" type="curve" smooth="yes"/>
      <point x="205.89300000000003" y="724.0"/>
      <point x="87.8" y="603.8"/>
      <point x="87.8" y="434.0" type="curve" smooth="yes"/>
      <point x="87.8" y="341.2"/>
      <point x="137.3" y="275.0"/>
      <point x="227.5" y="275.0" type="curve" smooth="yes"/>
      <point x="287.4" y="275.0"/>
      <point x="329.79999999999995" y="308.0"/>
      <point x="360.3" y="343.0" type="curve"/>
      <point x="312.1" y="159.5"/>
      <point x="260.3" y="50.199999999999996"/>
      <point x="175.6" y="50.199999999999996" type="curve" smooth="yes"/>
      <point x="124.7" y="50.199999999999996"/>
      <point x="106.3" y="108.9"/>
      <point x="106.7" y="159.9" type="curve"/>
      <point x="61.2" y="159.9"/>
      <point x="32.9" y="131.4"/>
      <point x="32.9" y="88.1" type="curve" smooth="yes"/>
      <point x="32.9" y="35.6"/>
      <point x="73.0" y="-10.0"/>
    </contour>
    <contour>
      <point x="276.4" y="343.5" type="curve" smooth="yes"/>
      <point x="239.79999999999998" y="343.5"/>
      <point x="217.10000000000002" y="375.4"/>
      <point x="217.10000000000002" y="436.90000000000003" type="curve" smooth="yes"/>
      <point x="217.10000000000002" y="542.0"/>
      <point x="265.5" y="660.5"/>
      <point x="330.70000000000005" y="660.5" type="curve" smooth="yes"/>
      <point x="365.3" y="660.5"/>
      <point x="390.0" y="626.6"/>
      <point x="390.0" y="544.9" type="curve" smooth="yes"/>
      <point x="390.0" y="510.20000000000005"/>
      <point x="383.0" y="457.7"/>
      <point x="373.6" y="422.90000000000003" type="curve"/>
      <point x="353.09999999999997" y="384.20000000000005"/>
      <point x="320.0" y="344.2"/>
    </contour>
  </outline>
</glyph>
<glyph name="colon" format="2">
  <advance width="319.5"/>
  <unicode hex="003A"/>
  <outline>
    <contour>
      <point x="198.29999999999998" y="383.90000000000003" type="curve" smooth="yes"/>
      <point x="236.8" y="383.90000000000003"/>
      <point x="279.0" y="406.90000000000003"/>
      <point x="279.0" y="472.5" type="curve" smooth="yes"/>
      <point x="279.0" y="519.4000000000001"/>
      <point x="248.9" y="541.0"/>
      <point x="207.79999999999998" y="541.0" type="curve" smooth="yes"/>
      <point x="159.7" y="541.0"/>
      <point x="127.8" y="505.0"/>
      <point x="127.8" y="453.8" type="curve" smooth="yes"/>
      <point x="127.8" y="409.0"/>
      <point x="156.6" y="383.90000000000003"/>
    </contour>
    <contour>
      <point x="111.0" y="-8.0" type="curve" smooth="yes"/>
      <point x="149.5" y="-8.0"/>
      <point x="191.70000000000002" y="15.0"/>
      <point x="191.70000000000002" y="80.6" type="curve" smooth="yes"/>
      <point x="191.70000000000002" y="127.5"/>
      <point x="161.6" y="149.1"/>
      <point x="120.5" y="149.1" type="curve" smooth="yes"/>
      <point x="72.39999999999999" y="149.1"/>
      <point x="40.5" y="113.10000000000001"/>
      <point x="40.5" y="61.900000000000006" type="curve" smooth="yes"/>
      <point x="40.5" y="17.1"/>
      <point x="69.3" y="-8.0"/>
    </contour>
  </outline>
</glyph>
<glyph name="semicolon" format="2">
  <advance width="318.8"/>
  <unicode hex="003B"/>
  <outline>
    <contour>
      <point x="-13.8" y="-150.3" type="line"/>
      <point x="118.2" y="-122.3"/>
      <point x="186.6" y="-39.300000000000004"/>
      <point x="186.6" y="60.6" type="curve" smooth="yes"/>
      <point x="186.6" y="116.5"/>
      <point x="153.9" y="148.1"/>
      <point x="112.9" y="148.1" type="curve" smooth="yes"/>
      <point x="76.4" y="148.1"/>
      <point x="44.199999999999996" y="122.80000000000001"/>
      <point x="44.199999999999996" y="78.4" type="curve" smooth="yes"/>
      <point x="44.199999999999996" y="24.6"/>
      <point x="89.0" y="24.200000000000003"/>
      <point x="89.0" y="-14.3" type="curve" smooth="yes"/>
      <point x="89.0" y="-54.7"/>
      <point x="58.199999999999996" y="-82.7"/>
      <point x="-2.8" y="-99.4" type="curve"/>
    </contour>
    <contour>
      <point x="198.29999999999998" y="383.90000000000003" type="curve" smooth="yes"/>
      <point x="236.8" y="383.90000000000003"/>
      <point x="279.0" y="406.90000000000003"/>
      <point x="279.0" y="472.5" type="curve" smooth="yes"/>
      <point x="279.0" y="519.4000000000001"/>
      <point x="248.9" y="541.0"/>
      <point x="207.79999999999998" y="541.0" type="curve" smooth="yes"/>
      <point x="159.7" y="541.0"/>
      <point x="127.8" y="505.0"/>
      <point x="127.8" y="453.8" type="curve" smooth="yes"/>
      <point x="127.8" y="409.0"/>
      <point x="156.6" y="383.90000000000003"/>
    </contour>
  </outline>
</glyph>
<glyph name="less" format="2">
  <advance width="465.2"/>
  <unicode hex="003C"/>
  <outline>
    <contour>
      <point x="438.0" y="105.4" type="line"/>
      <point x="438.0" y="182.3" type="line"/>
      <point x="158.7" y="357.0" type="line"/>
      <point x="438.0" y="533.7" type="line"/>
      <point x="438.0" y="610.5999999999999" type="line"/>
      <point x="65.0" y="377.3" type="line"/>
      <point x="65.0" y="337.7" type="line"/>
    </contour>
  </outline>
</glyph>
<glyph name="equal" format="2">
  <advance width="465.2"/>
  <unicode hex="003D"/>
  <outline>
    <contour>
      <point x="63.0" y="415.5" type="line"/>
      <point x="440.0" y="415.5" type="line"/>
      <point x="440.0" y="483.4" type="line"/>
      <point x="63.0" y="483.4" type="line"/>
    </contour>
    <contour>
      <point x="63.0" y="230.60000000000002" type="line"/>
      <point x="440.0" y="230.60000000000002" type="line"/>
      <point x="440.0" y="298.5" type="line"/>
      <point x="63.0" y="298.5" type="line"/>
    </contour>
  </outline>
</glyph>
<glyph name="question" format="2">
  <advance width="467.1"/>
  <unicode hex="003F"/>
  <outline>
    <contour>
      <point x="178.0" y="225.2" type="line"/>
      <point x="237.0" y="225.2" type="line"/>
      <point x="270.3" y="317.0" type="line"/>
      <point x="396.90000000000003" y="370.1"/>
      <point x="492.70000000000005" y="445.5"/>
      <point x="492.70000000000005" y="567.8000000000001" type="curve" smooth="yes"/>
      <point x="492.70000000000005" y="673.7"/>
      <point x="422.293" y="724.0"/>
      <point x="306.8" y="724.0" type="curve" smooth="yes"/>
      <point x="180.9" y="724.0"/>
      <point x="99.6" y="663.9"/>
      <point x="99.6" y="591.9" type="curve" smooth="yes"/>
      <point x="99.6" y="544.4000000000001"/>
      <point x="136.39999999999998" y="520.5"/>
      <point x="210.7" y="520.5" type="curve"/>
      <point x="220.4" y="596.5"/>
      <point x="242.3" y="665.1"/>
      <point x="294.8" y="665.1" type="curve" smooth="yes"/>
      <point x="327.4" y="665.1"/>
      <point x="351.40000000000003" y="630.1999999999999"/>
      <point x="351.40000000000003" y="569.1" type="curve" smooth="yes"/>
      <point x="351.40000000000003" y="455.2"/>
      <point x="281.4" y="395.7"/>
      <point x="175.29999999999998" y="351.3" type="curve"/>
    </contour>
    <contour>
      <point x="179.0" y="-8.0" type="curve" smooth="yes"/>
      <point x="217.5" y="-8.0"/>
      <point x="259.70000000000005" y="15.0"/>
      <point x="259.70000000000005" y="80.6" type="curve" smooth="yes"/>
      <point x="259.70000000000005" y="127.5"/>
      <point x="229.6" y="149.1"/>
      <point x="188.5" y="149.1" type="curve" smooth="yes"/>
      <point x="140.4" y="149.1"/>
      <point x="108.5" y="113.10000000000001"/>
      <point x="108.5" y="61.900000000000006" type="curve" smooth="yes"/>
      <point x="108.5" y="17.1"/>
      <point x="137.3" y="-8.0"/>
    </contour>
  </outline>
</glyph>
<glyph name="bracketleft" format="2">
  <advance width="365.0"/>
  <unicode hex="005B"/>
  <outline>
    <contour>
      <point x="16.099999999999998" y="-128.0" type="line"/>
      <point x="263.0" y="-128.0" type="line"/>
      <point x="274.0" y="-77.10000000000001" type="line"/>
      <point x="236.6" y="-77.10000000000001" type="line" smooth="yes"/>
      <point x="204.9" y="-77.10000000000001"/>
      <point x="178.8" y="-71.10000000000001"/>
      <point x="178.8" y="-33.6" type="curve" smooth="yes"/>
      <point x="178.8" y="-25.2"/>
      <point x="179.8" y="-15.8"/>
      <point x="181.8" y="-6.5" type="curve"/>
      <point x="316.8" y="637.1" type="line"/>
      <point x="329.8" y="700.1"/>
      <point x="365.2" y="709.1"/>
      <point x="402.9" y="709.1" type="curve" smooth="yes"/>
      <point x="440.3" y="709.1" type="line"/>
      <point x="452.0" y="760.0" type="line"/>
      <point x="205.1" y="760.0" type="line"/>
    </contour>
  </outline>
</glyph>
<glyph name="bracketright" format="2">
  <advance width="365.0"/>
  <unicode hex="005D"/>
  <outline>
    <contour>
      <point x="-50.9" y="-128.0" type="line"/>
      <point x="195.0" y="-128.0" type="line"/>
      <point x="383.3" y="760.0" type="line"/>
      <point x="137.1" y="760.0" type="line"/>
      <point x="126.10000000000001" y="709.1" type="line"/>
      <point x="163.5" y="709.1" type="line" smooth="yes"/>
      <point x="195.2" y="709.1"/>
      <point x="222.0" y="703.1"/>
      <point x="222.0" y="665.5999999999999" type="curve" smooth="yes"/>
      <point x="222.0" y="657.2"/>
      <point x="220.3" y="647.8000000000001"/>
      <point x="218.3" y="638.5" type="curve" smooth="yes"/>
      <point x="84.0" y="-5.1" type="line"/>
      <point x="71.0" y="-68.10000000000001"/>
      <point x="35.9" y="-77.10000000000001"/>
      <point x="-1.7999999999999994" y="-77.10000000000001" type="curve" smooth="yes"/>
      <point x="-39.199999999999996" y="-77.10000000000001" type="line"/>
    </contour>
  </outline>
</glyph>
<glyph name="asciicircum" format="2">
  <advance width="465.2"/>
  <unicode hex="005E"/>
  <outline>
    <contour>
      <point x="48.1" y="263.4" type="line"/>
      <point x="116.3" y="263.4" type="line"/>
      <point x="250.0" y="608.5" type="line"/>
      <point x="385.7" y="263.4" type="line"/>
      <point x="453.9" y="263.4" type="line"/>
      <point x="269.9" y="714.0" type="line"/>
      <point x="231.79999999999998" y="714.0" type="line"/>
    </contour>
  </outline>
</glyph>
<glyph name="underscore" format="2">
  <advance width="397.40000000000003"/>
  <unicode hex="005F"/>
  <outline>
    <contour>
      <point x="-83.3" y="-142.0" type="line"/>
      <point x="322.40000000000003" y="-142.0" type="line"/>
      <point x="335.40000000000003" y="-83.0" type="line"/>
      <point x="-70.3" y="-83.0" type="line"/>
    </contour>
  </outline>
</glyph>
<glyph name="braceleft" format="2">
  <advance width="384.6"/>
  <unicode hex="007B"/>
  <outline>
    <contour>
      <point x="205.1" y="-125.7" type="curve" smooth="yes"/>
      <point x="288.90000000000003" y="-125.7" type="line"/>
      <point x="300.90000000000003" y="-74.10000000000001" type="line"/>
      <point x="266.79999999999995" y="-74.10000000000001" type="line" smooth="yes"/>
      <point x="232.8" y="-74.10000000000001"/>
      <point x="219.9" y="-55.800000000000004"/>
      <point x="219.9" y="-23.2" type="curve" smooth="yes"/>
      <point x="219.9" y="-8.1"/>
      <point x="221.60000000000002" y="7.6000000000000005"/>
      <point x="225.6" y="24.6" type="curve" smooth="yes"/>
      <point x="259.1" y="178.8" type="line" smooth="yes"/>
      <point x="262.5" y="193.0"/>
      <point x="267.0" y="212.5"/>
      <point x="267.0" y="227.79999999999998" type="curve" smooth="yes"/>
      <point x="267.0" y="271.1"/>
      <point x="243.2" y="300.4"/>
      <point x="193.0" y="315.0" type="curve"/>
      <point x="194.3" y="320.90000000000003" type="line"/>
      <point x="265.5" y="337.5"/>
      <point x="299.9" y="377.90000000000003"/>
      <point x="313.6" y="440.0" type="curve" smooth="yes"/>
      <point x="347.8" y="598.1" type="line" smooth="yes"/>
      <point x="364.6" y="676.5"/>
      <point x="382.5" y="709.1"/>
      <point x="431.09999999999997" y="709.1" type="curve" smooth="yes"/>
      <point x="465.9" y="709.1" type="line"/>
      <point x="477.6" y="760.0" type="line"/>
      <point x="403.59999999999997" y="760.0" type="line" smooth="yes"/>
      <point x="288.9" y="760.0"/>
      <point x="231.70000000000002" y="718.9"/>
      <point x="209.3" y="614.7" type="curve" smooth="yes"/>
      <point x="172.6" y="442.0" type="line" smooth="yes"/>
      <point x="156.6" y="365.6"/>
      <point x="110.3" y="348.90000000000003"/>
      <point x="53.4" y="346.90000000000003" type="curve"/>
      <point x="39.699999999999996" y="289.4" type="line"/>
      <point x="87.3" y="287.4"/>
      <point x="123.3" y="274.7"/>
      <point x="123.3" y="223.8" type="curve" smooth="yes"/>
      <point x="123.3" y="215.1"/>
      <point x="123.0" y="204.0"/>
      <point x="120.3" y="192.60000000000002" type="curve" smooth="yes"/>
      <point x="91.69999999999999" y="57.5" type="line" smooth="yes"/>
      <point x="82.7" y="14.2"/>
      <point x="80.3" y="-3.3"/>
      <point x="80.3" y="-20.900000000000002" type="curve" smooth="yes"/>
      <point x="80.3" y="-86.8"/>
      <point x="123.4" y="-125.7"/>
    </contour>
  </outline>
</glyph>
<glyph name="braceright" format="2">
  <advance width="384.59999999999997"/>
  <unicode hex="007D"/>
  <outline>
    <contour>
      <point x="-51.199999999999996" y="-125.4" type="line"/>
      <point x="22.099999999999998" y="-125.4" type="line" smooth="yes"/>
      <point x="139.6" y="-125.4"/>
      <point x="195.4" y="-82.89999999999999"/>
      <point x="217.1" y="20.6" type="curve" smooth="yes"/>
      <point x="253.10000000000002" y="192.60000000000002" type="line" smooth="yes"/>
      <point x="269.1" y="269.7"/>
      <point x="316.09999999999997" y="286.4"/>
      <point x="373.0" y="289.09999999999997" type="curve"/>
      <point x="386.7" y="345.90000000000003" type="line"/>
      <point x="339.09999999999997" y="347.90000000000003"/>
      <point x="302.4" y="359.90000000000003"/>
      <point x="302.4" y="411.5" type="curve" smooth="yes"/>
      <point x="302.4" y="421.6"/>
      <point x="304.1" y="432.0"/>
      <point x="306.1" y="442.7" type="curve" smooth="yes"/>
      <point x="339.59999999999997" y="603.0" type="line" smooth="yes"/>
      <point x="345.8" y="631.5999999999999"/>
      <point x="346.09999999999997" y="644.2"/>
      <point x="346.09999999999997" y="656.9" type="curve" smooth="yes"/>
      <point x="346.09999999999997" y="718.6"/>
      <point x="305.8" y="761.0"/>
      <point x="222.7" y="761.0" type="curve" smooth="yes"/>
      <point x="136.79999999999998" y="761.0" type="line"/>
      <point x="124.8" y="710.1" type="line"/>
      <point x="159.60000000000002" y="710.1" type="line" smooth="yes"/>
      <point x="193.6" y="710.1"/>
      <point x="205.8" y="692.5"/>
      <point x="205.8" y="661.3000000000001" type="curve" smooth="yes"/>
      <point x="205.8" y="642.6999999999999"/>
      <point x="204.1" y="627.6999999999999"/>
      <point x="200.1" y="610.7" type="curve" smooth="yes"/>
      <point x="166.6" y="452.29999999999995" type="line" smooth="yes"/>
      <point x="163.2" y="437.40000000000003"/>
      <point x="159.4" y="419.3"/>
      <point x="159.4" y="407.5" type="curve" smooth="yes"/>
      <point x="159.4" y="364.9"/>
      <point x="182.5" y="335.6"/>
      <point x="233.4" y="321.0" type="curve"/>
      <point x="231.4" y="313.7" type="line"/>
      <point x="160.2" y="296.4"/>
      <point x="125.1" y="256.7"/>
      <point x="112.1" y="195.3" type="curve" smooth="yes"/>
      <point x="75.1" y="24.6" type="line" smooth="yes"/>
      <point x="60.4" y="-41.900000000000006"/>
      <point x="44.6" y="-73.80000000000001"/>
      <point x="-4.7" y="-73.80000000000001" type="curve" smooth="yes"/>
      <point x="-39.5" y="-73.80000000000001" type="line"/>
    </contour>
  </outline>
</glyph>
<glyph name="asciitilde" format="2">
  <advance width="465.2"/>
  <unicode hex="007E"/>
  <outline>
    <contour>
      <point x="46.0" y="263.4" type="curve"/>
      <point x="112.7" y="263.4" type="line"/>
      <point x="115.1" y="345.8"/>
      <point x="131.6" y="380.8"/>
      <point x="164.60000000000002" y="380.8" type="curve" smooth="yes"/>
      <point x="184.60000000000002" y="380.8"/>
      <point x="196.0" y="367.6"/>
      <point x="232.9" y="328.40000000000003" type="curve" smooth="yes"/>
      <point x="282.09999999999997" y="274.79999999999995"/>
      <point x="309.2" y="263.4"/>
      <point x="343.1" y="263.4" type="curve" smooth="yes"/>
      <point x="428.7" y="263.4"/>
      <point x="455.5" y="350.59999999999997"/>
      <point x="458.1" y="449.6" type="curve"/>
      <point x="390.4" y="449.6" type="line"/>
      <point x="388.1" y="367.40000000000003"/>
      <point x="372.59999999999997" y="332.9"/>
      <point x="341.1" y="332.9" type="curve" smooth="yes"/>
      <point x="321.1" y="332.9"/>
      <point x="308.5" y="349.0"/>
      <point x="275.2" y="382.6" type="curve" smooth="yes"/>
      <point x="227.89999999999998" y="429.59999999999997"/>
      <point x="202.2" y="449.6"/>
      <point x="161.9" y="449.6" type="curve" smooth="yes"/>
      <point x="73.9" y="449.6"/>
      <point x="47.4" y="360.40000000000003"/>
    </contour>
  </outline>
</glyph>
<glyph name="twosuperior" format="2">
  <advance width="346.1"/>
  <unicode hex="00B2"/>
  <outline>
    <contour>
      <point x="61.1" y="386.0" type="line"/>
      <point x="341.5" y="386.0" type="line"/>
      <point x="368.8" y="521.8" type="line"/>
      <point x="334.7" y="521.8" type="line"/>
      <point x="327.4" y="500.79999999999995" type="line" smooth="yes"/>
      <point x="320.1" y="478.79999999999995"/>
      <point x="307.5" y="459.79999999999995"/>
      <point x="280.7" y="459.79999999999995" type="curve" smooth="yes"/>
      <point x="151.20000000000002" y="459.79999999999995" type="line"/>
      <point x="260.8" y="549.1" type="line" smooth="yes"/>
      <point x="364.7" y="633.6"/>
      <point x="397.6" y="678.7"/>
      <point x="397.6" y="735.4" type="curve" smooth="yes"/>
      <point x="397.6" y="788.6999999999999"/>
      <point x="353.7" y="824.0"/>
      <point x="281.90000000000003" y="824.0" type="curve" smooth="yes"/>
      <point x="197.5" y="824.0"/>
      <point x="144.79999999999998" y="780.8000000000001"/>
      <point x="144.79999999999998" y="728.9000000000001" type="curve" smooth="yes"/>
      <point x="144.79999999999998" y="699.6"/>
      <point x="169.6" y="680.0"/>
      <point x="209.6" y="680.0" type="curve"/>
      <point x="215.6" y="732.6999999999999"/>
      <point x="237.5" y="779.7"/>
      <point x="268.90000000000003" y="779.7" type="curve" smooth="yes"/>
      <point x="295.0" y="779.7"/>
      <point x="304.6" y="756.0999999999999"/>
      <point x="304.6" y="729.4" type="curve" smooth="yes"/>
      <point x="304.6" y="674.8"/>
      <point x="280.3" y="627.1"/>
      <point x="204.9" y="561.8" type="curve" smooth="yes"/>
      <point x="77.2" y="452.4" type="line"/>
    </contour>
  </outline>
</glyph>
<glyph name="threesuperior" format="2">
  <advance width="346.1"/>
  <unicode hex="00B3"/>
  <outline>
    <contour>
      <point x="198.6" y="380.0" type="curve" smooth="yes"/>
      <point x="298.2" y="380.0"/>
      <point x="374.793" y="429.4"/>
      <point x="374.79999999999995" y="519.4" type="curve" smooth="yes"/>
      <point x="374.79999999999995" y="571.6"/>
      <point x="341.8" y="603.0"/>
      <point x="289.9" y="610.0" type="curve"/>
      <point x="290.9" y="614.3" type="line"/>
      <point x="356.2" y="630.7"/>
      <point x="403.59999999999997" y="664.4"/>
      <point x="403.59999999999997" y="735.8" type="curve" smooth="yes"/>
      <point x="403.59999999999997" y="784.4"/>
      <point x="366.59999999999997" y="824.0"/>
      <point x="284.9" y="824.0" type="curve" smooth="yes"/>
      <point x="198.8" y="824.0"/>
      <point x="146.1" y="784.3000000000001"/>
      <point x="146.1" y="736.6" type="curve" smooth="yes"/>
      <point x="146.1" y="706.0"/>
      <point x="173.2" y="692.7"/>
      <point x="215.89999999999998" y="692.7" type="curve"/>
      <point x="222.20000000000002" y="738.0"/>
      <point x="237.3" y="778.3"/>
      <point x="276.8" y="778.3" type="curve" smooth="yes"/>
      <point x="298.6" y="778.3"/>
      <point x="310.59999999999997" y="760.0"/>
      <point x="310.59999999999997" y="734.0" type="curve" smooth="yes"/>
      <point x="310.59999999999997" y="669.4000000000001"/>
      <point x="265.79999999999995" y="630.0"/>
      <point x="215.4" y="630.0" type="curve" smooth="yes"/>
      <point x="186.29999999999998" y="630.0" type="line"/>
      <point x="177.6" y="584.4000000000001" type="line"/>
      <point x="206.4" y="584.4000000000001" type="line" smooth="yes"/>
      <point x="261.0" y="584.4000000000001"/>
      <point x="284.8" y="554.5"/>
      <point x="284.8" y="515.4" type="curve" smooth="yes"/>
      <point x="284.8" y="455.0"/>
      <point x="249.3" y="430.6"/>
      <point x="206.9" y="430.6" type="curve" smooth="yes"/>
      <point x="154.6" y="430.6"/>
      <point x="136.1" y="478.6"/>
      <point x="137.5" y="516.6" type="curve"/>
      <point x="99.0" y="516.6"/>
      <point x="69.8" y="495.6"/>
      <point x="69.8" y="458.90000000000003" type="curve" smooth="yes"/>
      <point x="69.8" y="411.0"/>
      <point x="112.8" y="380.0"/>
    </contour>
  </outline>
</glyph>
<glyph name="multiply" format="2">
  <advance width="465.2"/>
  <unicode hex="00D7"/>
  <outline>
    <contour>
      <point x="121.5" y="158.6" type="line"/>
      <point x="251.70000000000002" y="308.0" type="line"/>
      <point x="381.5" y="160.0" type="line"/>
      <point x="430.8" y="203.70000000000002" type="line"/>
      <point x="296.1" y="358.7" type="line"/>
      <point x="430.8" y="513.0" type="line"/>
      <point x="380.5" y="557.0" type="line"/>
      <point x="251.70000000000002" y="409.70000000000005" type="line"/>
      <point x="121.5" y="558.0999999999999" type="line"/>
      <point x="71.2" y="514.4" type="line"/>
      <point x="207.0" y="359.0" type="line"/>
      <point x="71.2" y="202.6" type="line"/>
    </contour>
  </outline>
</glyph>
<glyph name="divide" format="2">
  <advance width="465.2"/>
  <unicode hex="00F7"/>
  <outline>
    <contour>
      <point x="65.0" y="323.4" type="line"/>
      <point x="438.0" y="323.4" type="line"/>
      <point x="438.0" y="391.6" type="line"/>
      <point x="65.0" y="391.6" type="line"/>
    </contour>
    <contour>
      <point x="252.0" y="108.4" type="curve" smooth="yes"/>
      <point x="279.5" y="108.4"/>
      <point x="302.4" y="124.4"/>
      <point x="302.4" y="168.0" type="curve" smooth="yes"/>
      <point x="302.4" y="212.60000000000002"/>
      <point x="279.5" y="227.60000000000002"/>
      <point x="252.0" y="227.60000000000002" type="curve" smooth="yes"/>
      <point x="222.8" y="227.60000000000002"/>
      <point x="201.6" y="212.60000000000002"/>
      <point x="201.6" y="168.0" type="curve" smooth="yes"/>
      <point x="201.6" y="124.4"/>
      <point x="222.8" y="108.4"/>
    </contour>
    <contour>
      <point x="252.0" y="487.4" type="curve" smooth="yes"/>
      <point x="279.5" y="487.4"/>
      <point x="302.4" y="503.4"/>
      <point x="302.4" y="547.0" type="curve" smooth="yes"/>
      <point x="302.4" y="591.5999999999999"/>
      <point x="279.5" y="606.5999999999999"/>
      <point x="252.0" y="606.5999999999999" type="curve" smooth="yes"/>
      <point x="222.8" y="606.5999999999999"/>
      <point x="201.6" y="591.5999999999999"/>
      <point x="201.6" y="547.0" type="curve" smooth="yes"/>
      <point x="201.6" y="503.4"/>
      <point x="222.8" y="487.4"/>
    </contour>
  </outline>
</glyph>
<glyph name="udatta-deva" format="2">
  <unicode hex="0951"/>
  <anchor x="61.0" y="564.4" name="_vedic"/>
  <outline>
    <contour>
      <point x="107.69999999999999" y="934.9" type="line"/>
      <point x="172.4" y="934.9" type="line"/>
      <point x="215.0" y="1137.1" type="line"/>
      <point x="150.7" y="1137.1" type="line"/>
    </contour>
  </outline>
</glyph>
<glyph name="anudatta-deva" format="2">
  <unicode hex="0952"/>
  <anchor x="-59.0" y="0.0" name="_bottom"/>
  <outline>
    <contour>
      <point x="-371.40000000000003" y="-559.2" type="line"/>
      <point x="16.5" y="-559.2" type="line"/>
      <point x="34.1" y="-473.8" type="line"/>
      <point x="-353.8" y="-473.8" type="line"/>
    </contour>
  </outline>
</glyph>
<glyph name="danda-deva" format="2">
  <advance width="292.2"/>
  <unicode hex="0964"/>
  <outline>
    <contour>
      <point x="12.8" y="0.0" type="line"/>
      <point x="159.4" y="0.0" type="line"/>
      <point x="279.40000000000003" y="564.4" type="line"/>
      <point x="132.79999999999998" y="564.4" type="line"/>
    </contour>
  </outline>
</glyph>
<glyph name="dbldanda-deva" format="2">
  <advance width="536.9"/>
  <unicode hex="0965"/>
  <outline>
    <contour>
      <point x="257.79999999999995" y="0.0" type="line"/>
      <point x="404.09999999999997" y="0.0" type="line"/>
      <point x="524.1" y="564.4" type="line"/>
      <point x="377.5" y="564.4" type="line"/>
    </contour>
    <contour>
      <point x="12.8" y="0.0" type="line"/>
      <point x="159.4" y="0.0" type="line"/>
      <point x="279.40000000000003" y="564.4" type="line"/>
      <point x="132.79999999999998" y="564.4" type="line"/>
    </contour>
  </outline>
</glyph>
<glyph name="anusvara-tamil" format="2">
  <unicode hex="0B82"/>
  <note>
uni0B82
</note>
  <anchor x="61.0" y="564.4" name="_top"/>
  <outline>
    <contour>
      <point x="100.9" y="625.6" type="curve" smooth="yes"/>
      <point x="174.29999999999998" y="625.6"/>
      <point x="232.70000000000002" y="680.3"/>
      <point x="232.70000000000002" y="754.6" type="curve" smooth="yes"/>
      <point x="232.70000000000002" y="828.9"/>
      <point x="174.29999999999998" y="882.9"/>
      <point x="100.9" y="882.9" type="curve" smooth="yes"/>
      <point x="27.5" y="882.9"/>
      <point x="-30.9" y="828.9"/>
      <point x="-30.9" y="754.6" type="curve" smooth="yes"/>
      <point x="-30.9" y="680.3"/>
      <point x="27.5" y="625.6"/>
    </contour>
    <contour>
      <point x="100.9" y="697.7" type="curve" smooth="yes"/>
      <point x="70.4" y="697.7"/>
      <point x="44.9" y="722.5"/>
      <point x="44.9" y="754.6" type="curve" smooth="yes"/>
      <point x="44.9" y="786.4"/>
      <point x="70.4" y="811.2"/>
      <point x="100.9" y="811.2" type="curve" smooth="yes"/>
      <point x="131.4" y="811.2"/>
      <point x="156.9" y="786.4"/>
      <point x="156.9" y="754.6" type="curve" smooth="yes"/>
      <point x="156.9" y="722.5"/>
      <point x="131.4" y="697.7"/>
    </contour>
  </outline>
</glyph>
<glyph name="visarga-tamil" format="2">
  <advance width="768.0"/>
  <unicode hex="0B83"/>
  <note>
uni0B83
</note>
  <outline>
    <contour>
      <point x="139.70000000000002" y="-5.0" type="curve" smooth="yes"/>
      <point x="251.70000000000002" y="-5.0"/>
      <point x="330.2" y="100.89999999999999"/>
      <point x="330.2" y="228.5" type="curve" smooth="yes"/>
      <point x="330.2" y="321.6"/>
      <point x="280.6" y="373.0"/>
      <point x="199.0" y="373.0" type="curve" smooth="yes"/>
      <point x="87.2" y="373.0"/>
      <point x="17.599999999999998" y="251.5"/>
      <point x="17.599999999999998" y="137.5" type="curve" smooth="yes"/>
      <point x="17.599999999999998" y="56.400000000000006"/>
      <point x="60.7" y="-5.0"/>
    </contour>
    <contour>
      <point x="131.3" y="59.7" type="curve" smooth="yes"/>
      <point x="94.39999999999999" y="59.7"/>
      <point x="78.0" y="95.9"/>
      <point x="78.0" y="145.1" type="curve" smooth="yes"/>
      <point x="78.0" y="223.0"/>
      <point x="118.0" y="310.40000000000003"/>
      <point x="176.2" y="310.40000000000003" type="curve" smooth="yes"/>
      <point x="212.9" y="310.40000000000003"/>
      <point x="228.4" y="282.5"/>
      <point x="228.4" y="231.89999999999998" type="curve" smooth="yes"/>
      <point x="228.4" y="139.20000000000002"/>
      <point x="187.5" y="59.7"/>
    </contour>
    <contour>
      <point x="518.3" y="-5.0" type="curve" smooth="yes"/>
      <point x="630.3000000000001" y="-5.0"/>
      <point x="708.8" y="100.89999999999999"/>
      <point x="708.8000000000001" y="228.5" type="curve" smooth="yes"/>
      <point x="708.8" y="321.6"/>
      <point x="659.2" y="373.0"/>
      <point x="577.6" y="373.0" type="curve" smooth="yes"/>
      <point x="465.8" y="373.0"/>
      <point x="396.2" y="251.5"/>
      <point x="396.2" y="137.5" type="curve" smooth="yes"/>
      <point x="396.2" y="56.400000000000006"/>
      <point x="439.3" y="-5.0"/>
    </contour>
    <contour>
      <point x="509.9" y="59.7" type="curve" smooth="yes"/>
      <point x="473.0" y="59.7"/>
      <point x="456.59999999999997" y="95.9"/>
      <point x="456.59999999999997" y="145.1" type="curve" smooth="yes"/>
      <point x="456.59999999999997" y="223.0"/>
      <point x="496.59999999999997" y="310.40000000000003"/>
      <point x="554.8000000000001" y="310.40000000000003" type="curve" smooth="yes"/>
      <point x="591.5" y="310.40000000000003"/>
      <point x="607.0" y="282.5"/>
      <point x="607.0" y="231.89999999999998" type="curve" smooth="yes"/>
      <point x="607.0" y="139.20000000000002"/>
      <point x="566.1" y="59.7"/>
    </contour>
    <contour>
      <point x="421.0" y="427.5" type="curve" smooth="yes"/>
      <point x="533.0" y="427.5"/>
      <point x="611.5" y="533.4"/>
      <point x="611.5" y="661.0" type="curve" smooth="yes"/>
      <point x="611.5" y="754.1"/>
      <point x="561.9" y="805.5"/>
      <point x="480.29999999999995" y="805.5" type="curve" smooth="yes"/>
      <point x="368.5" y="805.5"/>
      <point x="298.9" y="684.0"/>
      <point x="298.9" y="570.0" type="curve" smooth="yes"/>
      <point x="298.9" y="488.9"/>
      <point x="342.0" y="427.5"/>
    </contour>
    <contour>
      <point x="412.59999999999997" y="492.2" type="curve" smooth="yes"/>
      <point x="375.70000000000005" y="492.2"/>
      <point x="359.3" y="528.4"/>
      <point x="359.3" y="577.6" type="curve" smooth="yes"/>
      <point x="359.3" y="655.5"/>
      <point x="399.3" y="742.9"/>
      <point x="457.5" y="742.9" type="curve" smooth="yes"/>
      <point x="494.2" y="742.9"/>
      <point x="509.7" y="715.0"/>
      <point x="509.7" y="664.4000000000001" type="curve" smooth="yes"/>
      <point x="509.7" y="571.6999999999999"/>
      <point x="468.79999999999995" y="492.2"/>
    </contour>
  </outline>
</glyph>
<glyph name="a-tamil" format="2">
  <advance width="1153.3999999999999"/>
  <unicode hex="0B85"/>
  <note>
uni0B85
</note>
  <anchor x="499.59999999999997" y="0.0" name="bottom"/>
  <anchor x="305.3" y="-143.3" name="nukta"/>
  <anchor x="611.0" y="564.4" name="top"/>
  <anchor x="612.4000000000001" y="564.4" name="vedic"/>
  <outline>
    <contour>
      <point x="833.3" y="-210.5" type="line"/>
      <point x="979.1" y="-210.5" type="line"/>
      <point x="1143.6000000000001" y="564.4" type="line"/>
      <point x="998.5" y="564.4" type="line"/>
      <point x="913.1" y="164.3" type="line"/>
      <point x="78.6" y="164.3" type="line" smooth="yes"/>
      <point x="20.3" y="164.3"/>
      <point x="-17.0" y="121.80000000000001"/>
      <point x="-17.0" y="65.0" type="curve" smooth="yes"/>
      <point x="-17.0" y="-39.1"/>
      <point x="103.39999999999999" y="-143.3"/>
      <point x="309.2" y="-143.3" type="curve" smooth="yes"/>
      <point x="600.1" y="-143.3"/>
      <point x="832.4" y="19.3"/>
      <point x="832.4" y="297.5" type="curve" smooth="yes"/>
      <point x="832.4" y="475.3"/>
      <point x="709.0" y="569.4"/>
      <point x="555.8" y="569.4" type="curve" smooth="yes"/>
      <point x="418.79999999999995" y="569.4"/>
      <point x="310.2" y="484.8"/>
      <point x="310.2" y="357.3" type="curve" smooth="yes"/>
      <point x="310.2" y="285.8"/>
      <point x="360.59999999999997" y="226.0"/>
      <point x="441.3" y="226.0" type="curve" smooth="yes"/>
      <point x="536.4" y="226.0"/>
      <point x="602.8" y="284.9"/>
      <point x="602.8" y="380.8" type="curve" smooth="yes"/>
      <point x="602.8" y="448.5"/>
      <point x="566.0" y="505.1"/>
      <point x="513.6" y="524.7" type="curve"/>
      <point x="455.7" y="519.6999999999999" type="line"/>
      <point x="489.1" y="499.59999999999997"/>
      <point x="512.8" y="453.1"/>
      <point x="512.8" y="406.5" type="curve" smooth="yes"/>
      <point x="512.8" y="347.3"/>
      <point x="483.90000000000003" y="300.1"/>
      <point x="431.0" y="300.1" type="curve" smooth="yes"/>
      <point x="403.2" y="300.1"/>
      <point x="376.8" y="327.2"/>
      <point x="376.8" y="366.4" type="curve" smooth="yes"/>
      <point x="376.8" y="448.0"/>
      <point x="445.8" y="507.4"/>
      <point x="535.6" y="507.4" type="curve" smooth="yes"/>
      <point x="631.6" y="507.4"/>
      <point x="695.4000000000001" y="441.59999999999997"/>
      <point x="695.4000000000001" y="323.2" type="curve" smooth="yes"/>
      <point x="695.4000000000001" y="85.60000000000001"/>
      <point x="537.0999999999999" y="-81.3"/>
      <point x="303.2" y="-81.3" type="curve" smooth="yes"/>
      <point x="143.6" y="-81.3"/>
      <point x="50.3" y="-1.0999999999999996"/>
      <point x="50.3" y="65.89999999999999" type="curve" smooth="yes"/>
      <point x="50.3" y="91.2"/>
      <point x="60.7" y="103.3"/>
      <point x="85.60000000000001" y="103.3" type="curve" smooth="yes"/>
      <point x="900.1" y="103.3" type="line"/>
    </contour>
  </outline>
</glyph>
<glyph name="aa-tamil" format="2">
  <advance width="1350.8999999999999"/>
  <unicode hex="0B86"/>
  <note>
uni0B86
</note>
  <anchor x="610.4" y="0.0" name="bottom"/>
  <anchor x="294.8" y="-143.3" name="nukta"/>
  <anchor x="731.3" y="564.4" name="top"/>
  <anchor x="732.3" y="564.4" name="vedic"/>
  <outline>
    <contour>
      <point x="764.6" y="-423.59999999999997" type="curve" smooth="yes"/>
      <point x="1020.1999999999999" y="-423.59999999999997"/>
      <point x="1262.8000000000002" y="-273.8"/>
      <point x="1262.8000000000002" y="-46.9" type="curve" smooth="yes"/>
      <point x="1262.8000000000002" y="37.4"/>
      <point x="1215.8999999999999" y="83.3"/>
      <point x="1149.0" y="83.3" type="curve" smooth="yes"/>
      <point x="1074.3999999999999" y="83.3"/>
      <point x="1012.4000000000001" y="27.400000000000002"/>
      <point x="977.6" y="-87.7" type="curve"/>
      <point x="1001.4" y="-95.4" type="line"/>
      <point x="1013.0" y="-39.3"/>
      <point x="1039.3" y="-20.8"/>
      <point x="1070.6" y="-20.8" type="curve" smooth="yes"/>
      <point x="1099.9" y="-20.8"/>
      <point x="1119.0" y="-41.0"/>
      <point x="1119.0" y="-76.9" type="curve" smooth="yes"/>
      <point x="1119.0" y="-234.7"/>
      <point x="952.4" y="-363.3"/>
      <point x="769.5" y="-363.3" type="curve" smooth="yes"/>
      <point x="685.0999999999999" y="-363.3"/>
      <point x="624.3000000000001" y="-337.7"/>
      <point x="624.3000000000001" y="-277.6" type="curve" smooth="yes"/>
      <point x="624.3000000000001" y="-226.6"/>
      <point x="667.6999999999999" y="-201.29999999999998"/>
      <point x="732.1999999999999" y="-186.2" type="curve"/>
      <point x="720.0" y="-130.4" type="line"/>
      <point x="625.0" y="-153.9"/>
      <point x="560.6" y="-196.8"/>
      <point x="560.6" y="-285.9" type="curve" smooth="yes"/>
      <point x="560.6" y="-370.2"/>
      <point x="644.4" y="-423.59999999999997"/>
    </contour>
    <component base="a-tamil"/>
  </outline>
</glyph>
<glyph name="i-tamil" format="2">
  <advance width="896.5"/>
  <unicode hex="0B87"/>
  <note>
uni0B87
</note>
  <anchor x="369.1" y="0.0" name="bottom"/>
  <anchor x="307.79999999999995" y="-277.90000000000003" name="nukta"/>
  <anchor x="515.4" y="840.6" name="top"/>
  <anchor x="475.90000000000003" y="564.4" name="vedic"/>
  <outline>
    <contour>
      <point x="89.69999999999999" y="-317.3" type="curve" smooth="yes"/>
      <point x="388.5" y="-317.3"/>
      <point x="701.0" y="9.1"/>
      <point x="701.0" y="325.9" type="curve" smooth="yes"/>
      <point x="701.0" y="479.09999999999997"/>
      <point x="605.8" y="569.4"/>
      <point x="463.0" y="569.4" type="curve" smooth="yes"/>
      <point x="334.8" y="569.4"/>
      <point x="227.1" y="481.90000000000003"/>
      <point x="227.1" y="356.4" type="curve" smooth="yes"/>
      <point x="227.1" y="284.3"/>
      <point x="278.0" y="229.0"/>
      <point x="352.59999999999997" y="229.0" type="curve" smooth="yes"/>
      <point x="442.7" y="229.0"/>
      <point x="511.7" y="288.2"/>
      <point x="511.7" y="382.8" type="curve" smooth="yes"/>
      <point x="511.7" y="450.0"/>
      <point x="469.9" y="508.5"/>
      <point x="417.2" y="528.4" type="curve"/>
      <point x="367.8" y="520.3000000000001" type="line"/>
      <point x="397.2" y="500.2"/>
      <point x="420.7" y="451.1"/>
      <point x="420.7" y="405.09999999999997" type="curve" smooth="yes"/>
      <point x="420.7" y="349.6"/>
      <point x="394.8" y="302.5"/>
      <point x="342.2" y="302.5" type="curve" smooth="yes"/>
      <point x="310.8" y="302.5"/>
      <point x="291.7" y="330.0"/>
      <point x="291.7" y="365.6" type="curve" smooth="yes"/>
      <point x="291.7" y="447.3"/>
      <point x="357.3" y="507.7"/>
      <point x="442.2" y="507.7" type="curve" smooth="yes"/>
      <point x="526.6999999999999" y="507.7"/>
      <point x="567.8000000000001" y="444.6"/>
      <point x="567.8000000000001" y="347.59999999999997" type="curve" smooth="yes"/>
      <point x="567.8000000000001" y="60.199999999999996"/>
      <point x="344.6" y="-254.6"/>
      <point x="99.9" y="-254.6" type="curve" smooth="yes"/>
      <point x="42.900000000000006" y="-254.6"/>
      <point x="6.9" y="-228.0"/>
      <point x="6.9" y="-171.8" type="curve" smooth="yes"/>
      <point x="6.9" y="-42.300000000000004"/>
      <point x="170.50000000000003" y="48.1"/>
      <point x="359.5" y="48.1" type="curve" smooth="yes"/>
      <point x="519.5" y="48.1"/>
      <point x="673.9" y="-31.000000000000004"/>
      <point x="673.9" y="-145.0" type="curve" smooth="yes"/>
      <point x="673.9" y="-221.5"/>
      <point x="623.3" y="-254.6"/>
      <point x="544.8000000000001" y="-254.6" type="curve" smooth="yes"/>
      <point x="334.7" y="-254.6"/>
      <point x="124.7" y="5.6000000000000005"/>
      <point x="124.7" y="290.4" type="curve" smooth="yes"/>
      <point x="124.7" y="538.6999999999999"/>
      <point x="251.4" y="722.8"/>
      <point x="503.9" y="722.8" type="curve" smooth="yes"/>
      <point x="731.0" y="722.8"/>
      <point x="849.1999999999999" y="573.8000000000001"/>
      <point x="798.8" y="339.40000000000003" type="curve" smooth="yes"/>
      <point x="747.2" y="97.7" type="line"/>
      <point x="812.0" y="97.7" type="line"/>
      <point x="865.6" y="345.2" type="line" smooth="yes"/>
      <point x="930.4000000000001" y="642.5"/>
      <point x="790.3" y="840.6"/>
      <point x="515.4" y="840.6" type="curve" smooth="yes"/>
      <point x="212.7" y="840.6"/>
      <point x="60.599999999999994" y="592.9"/>
      <point x="60.599999999999994" y="303.8" type="curve" smooth="yes"/>
      <point x="60.599999999999994" y="-33.1"/>
      <point x="300.5" y="-317.0"/>
      <point x="552.1" y="-317.0" type="curve" smooth="yes"/>
      <point x="664.6999999999999" y="-317.0"/>
      <point x="744.7" y="-259.3"/>
      <point x="744.7" y="-146.6" type="curve" smooth="yes"/>
      <point x="744.7" y="11.3"/>
      <point x="567.4" y="107.0"/>
      <point x="365.3" y="107.0" type="curve" smooth="yes"/>
      <point x="138.7" y="107.0"/>
      <point x="-64.1" y="-6.199999999999998"/>
      <point x="-64.1" y="-179.8" type="curve" smooth="yes"/>
      <point x="-64.1" y="-264.9"/>
      <point x="-4.0" y="-317.3"/>
    </contour>
  </outline>
</glyph>
<glyph name="ii-tamil" format="2">
  <advance width="733.8"/>
  <unicode hex="0B88"/>
  <note>
uni0B88
</note>
  <anchor x="310.8" y="0.0" name="bottom"/>
  <anchor x="310.8" y="0.0" name="nukta"/>
  <anchor x="433.20000000000005" y="564.4" name="top"/>
  <anchor x="433.5" y="564.4" name="vedic"/>
  <outline>
    <contour>
      <point x="10.100000000000001" y="0.0" type="line"/>
      <point x="75.60000000000001" y="0.0" type="line"/>
      <point x="182.6" y="504.1" type="line"/>
      <point x="405.5" y="504.1" type="line"/>
      <point x="298.5" y="0.0" type="line"/>
      <point x="445.3" y="0.0" type="line"/>
      <point x="552.3000000000001" y="504.1" type="line"/>
      <point x="737.6999999999999" y="504.1" type="line"/>
      <point x="750.4" y="564.4" type="line"/>
      <point x="130.1" y="564.4" type="line"/>
    </contour>
    <contour>
      <point x="242.89999999999998" y="201.79999999999998" type="curve" smooth="yes"/>
      <point x="280.5" y="201.79999999999998"/>
      <point x="312.6" y="232.5"/>
      <point x="312.6" y="268.8" type="curve" smooth="yes"/>
      <point x="312.6" y="304.1"/>
      <point x="280.5" y="334.1"/>
      <point x="242.89999999999998" y="334.1" type="curve" smooth="yes"/>
      <point x="205.3" y="334.1"/>
      <point x="173.9" y="304.1"/>
      <point x="173.9" y="268.8" type="curve" smooth="yes"/>
      <point x="173.9" y="232.5"/>
      <point x="205.3" y="201.79999999999998"/>
    </contour>
    <contour>
      <point x="612.3" y="201.79999999999998" type="curve" smooth="yes"/>
      <point x="649.9" y="201.79999999999998"/>
      <point x="682.0" y="232.5"/>
      <point x="682.0" y="268.8" type="curve" smooth="yes"/>
      <point x="682.0" y="304.1"/>
      <point x="649.9" y="334.1"/>
      <point x="612.3" y="334.1" type="curve" smooth="yes"/>
      <point x="574.7" y="334.1"/>
      <point x="543.3000000000001" y="304.1"/>
      <point x="543.3000000000001" y="268.8" type="curve" smooth="yes"/>
      <point x="543.3000000000001" y="232.5"/>
      <point x="574.7" y="201.79999999999998"/>
    </contour>
  </outline>
</glyph>
<glyph name="u-tamil" format="2">
  <advance width="829.5"/>
  <unicode hex="0B89"/>
  <note>
uni0B89
</note>
  <anchor x="357.4" y="0.0" name="bottom"/>
  <anchor x="357.40000000000003" y="0.0" name="nukta"/>
  <anchor x="481.1" y="564.4" name="top"/>
  <anchor x="480.09999999999997" y="564.4" name="vedic"/>
  <outline>
    <contour>
      <point x="78.3" y="0.0" type="curve" smooth="yes"/>
      <point x="756.6" y="0.0" type="line"/>
      <point x="769.6" y="61.0" type="line"/>
      <point x="86.5" y="61.0" type="line" smooth="yes"/>
      <point x="69.5" y="61.0"/>
      <point x="52.2" y="71.7"/>
      <point x="52.2" y="94.1" type="curve" smooth="yes"/>
      <point x="52.2" y="119.3"/>
      <point x="69.9" y="131.8"/>
      <point x="91.4" y="131.8" type="curve" smooth="yes"/>
      <point x="305.3" y="131.8" type="line" smooth="yes"/>
      <point x="481.3" y="131.8"/>
      <point x="612.0" y="214.4"/>
      <point x="612.0" y="373.7" type="curve" smooth="yes"/>
      <point x="612.0" y="505.29999999999995"/>
      <point x="501.7" y="569.4"/>
      <point x="368.5" y="569.4" type="curve" smooth="yes"/>
      <point x="227.79999999999998" y="569.4"/>
      <point x="118.0" y="476.9"/>
      <point x="118.0" y="362.79999999999995" type="curve" smooth="yes"/>
      <point x="118.0" y="294.5"/>
      <point x="162.0" y="241.6"/>
      <point x="235.29999999999998" y="241.6" type="curve" smooth="yes"/>
      <point x="332.5" y="241.6"/>
      <point x="395.8" y="307.4"/>
      <point x="395.8" y="394.3" type="curve" smooth="yes"/>
      <point x="395.8" y="454.20000000000005"/>
      <point x="359.7" y="510.3"/>
      <point x="307.09999999999997" y="524.7" type="curve"/>
      <point x="250.5" y="520.4" type="line"/>
      <point x="287.6" y="498.8"/>
      <point x="307.2" y="454.90000000000003"/>
      <point x="307.2" y="411.1" type="curve" smooth="yes"/>
      <point x="307.2" y="352.29999999999995"/>
      <point x="278.2" y="309.9"/>
      <point x="232.6" y="309.9" type="curve" smooth="yes"/>
      <point x="201.6" y="309.9"/>
      <point x="184.6" y="336.6"/>
      <point x="184.6" y="369.1" type="curve" smooth="yes"/>
      <point x="184.6" y="436.9"/>
      <point x="239.89999999999998" y="508.8"/>
      <point x="348.4" y="508.8" type="curve" smooth="yes"/>
      <point x="422.0" y="508.8"/>
      <point x="474.9" y="471.8"/>
      <point x="474.9" y="382.4" type="curve" smooth="yes"/>
      <point x="474.9" y="268.09999999999997"/>
      <point x="405.6" y="190.1"/>
      <point x="295.9" y="190.1" type="curve" smooth="yes"/>
      <point x="101.19999999999999" y="190.1" type="line" smooth="yes"/>
      <point x="34.6" y="190.1"/>
      <point x="-9.299999999999999" y="151.5"/>
      <point x="-9.299999999999999" y="89.80000000000001" type="curve" smooth="yes"/>
      <point x="-9.299999999999999" y="40.1"/>
      <point x="21.6" y="0.0"/>
    </contour>
  </outline>
</glyph>
<glyph name="uu-tamil" format="2">
  <advance width="1526.4"/>
  <unicode hex="0B8A"/>
  <note>
uni0B8A
</note>
  <anchor x="711.8000000000001" y="0.0" name="bottom"/>
  <anchor x="711.8" y="0.0" name="nukta"/>
  <anchor x="832.4" y="564.4" name="top"/>
  <anchor x="834.5" y="564.4" name="vedic"/>
  <outline>
    <contour>
      <point x="78.3" y="0.0" type="curve" smooth="yes"/>
      <point x="1420.6" y="0.0" type="line"/>
      <point x="1433.6" y="61.0" type="line"/>
      <point x="86.5" y="61.0" type="line" smooth="yes"/>
      <point x="69.5" y="61.0"/>
      <point x="52.2" y="71.7"/>
      <point x="52.2" y="94.1" type="curve" smooth="yes"/>
      <point x="52.2" y="119.3"/>
      <point x="69.9" y="131.8"/>
      <point x="91.4" y="131.8" type="curve" smooth="yes"/>
      <point x="305.3" y="131.8" type="line" smooth="yes"/>
      <point x="481.3" y="131.8"/>
      <point x="612.0" y="214.4"/>
      <point x="612.0" y="373.7" type="curve" smooth="yes"/>
      <point x="612.0" y="505.29999999999995"/>
      <point x="501.7" y="569.4"/>
      <point x="368.5" y="569.4" type="curve" smooth="yes"/>
      <point x="227.79999999999998" y="569.4"/>
      <point x="118.0" y="476.9"/>
      <point x="118.0" y="362.79999999999995" type="curve" smooth="yes"/>
      <point x="118.0" y="294.5"/>
      <point x="162.0" y="241.6"/>
      <point x="235.29999999999998" y="241.6" type="curve" smooth="yes"/>
      <point x="332.5" y="241.6"/>
      <point x="395.8" y="307.4"/>
      <point x="395.8" y="394.3" type="curve" smooth="yes"/>
      <point x="395.8" y="454.20000000000005"/>
      <point x="359.7" y="510.3"/>
      <point x="307.09999999999997" y="524.7" type="curve"/>
      <point x="250.5" y="520.4" type="line"/>
      <point x="287.6" y="498.8"/>
      <point x="307.2" y="454.90000000000003"/>
      <point x="307.2" y="411.1" type="curve" smooth="yes"/>
      <point x="307.2" y="352.29999999999995"/>
      <point x="278.2" y="309.9"/>
      <point x="232.6" y="309.9" type="curve" smooth="yes"/>
      <point x="201.6" y="309.9"/>
      <point x="184.6" y="336.6"/>
      <point x="184.6" y="369.1" type="curve" smooth="yes"/>
      <point x="184.6" y="436.9"/>
      <point x="239.89999999999998" y="508.8"/>
      <point x="348.4" y="508.8" type="curve" smooth="yes"/>
      <point x="422.0" y="508.8"/>
      <point x="474.9" y="471.8"/>
      <point x="474.9" y="382.4" type="curve" smooth="yes"/>
      <point x="474.9" y="268.09999999999997"/>
      <point x="405.6" y="190.1"/>
      <point x="295.9" y="190.1" type="curve" smooth="yes"/>
      <point x="101.19999999999999" y="190.1" type="line" smooth="yes"/>
      <point x="34.6" y="190.1"/>
      <point x="-9.299999999999999" y="151.5"/>
      <point x="-9.299999999999999" y="89.80000000000001" type="curve" smooth="yes"/>
      <point x="-9.299999999999999" y="40.1"/>
      <point x="21.6" y="0.0"/>
    </contour>
    <contour>
      <point x="806.0" y="116.3" type="curve" smooth="yes"/>
      <point x="906.4000000000001" y="116.3"/>
      <point x="974.3" y="185.3"/>
      <point x="974.3" y="279.4" type="curve" smooth="yes"/>
      <point x="974.3" y="355.0"/>
      <point x="924.0" y="395.9"/>
      <point x="859.8" y="395.9" type="curve" smooth="yes"/>
      <point x="774.9" y="395.9"/>
      <point x="722.2" y="327.90000000000003"/>
      <point x="695.6999999999999" y="244.4" type="curve"/>
      <point x="719.6" y="216.20000000000002" type="line"/>
      <point x="738.7" y="283.3"/>
      <point x="776.0" y="330.7"/>
      <point x="821.6" y="330.7" type="curve" smooth="yes"/>
      <point x="858.6" y="330.7"/>
      <point x="874.8" y="300.7"/>
      <point x="874.8" y="266.40000000000003" type="curve" smooth="yes"/>
      <point x="874.8" y="217.4"/>
      <point x="845.8000000000001" y="178.6"/>
      <point x="794.9" y="178.6" type="curve" smooth="yes"/>
      <point x="749.5" y="178.6"/>
      <point x="717.1" y="221.1"/>
      <point x="717.1" y="288.90000000000003" type="curve" smooth="yes"/>
      <point x="717.1" y="415.4"/>
      <point x="789.1" y="509.1"/>
      <point x="906.8000000000001" y="509.1" type="curve" smooth="yes"/>
      <point x="1008.5" y="509.1"/>
      <point x="1067.8" y="439.90000000000003"/>
      <point x="1045.8" y="326.9" type="curve"/>
      <point x="1104.3999999999999" y="326.9" type="line"/>
      <point x="1130.8" y="469.6"/>
      <point x="1052.6" y="569.4"/>
      <point x="913.4" y="569.4" type="curve" smooth="yes"/>
      <point x="764.9" y="569.4"/>
      <point x="655.0" y="449.0"/>
      <point x="655.0" y="286.4" type="curve" smooth="yes"/>
      <point x="655.0" y="191.5"/>
      <point x="714.0999999999999" y="116.3"/>
    </contour>
    <contour>
      <point x="1001.0" y="118.7" type="line"/>
      <point x="1125.0" y="118.7" type="line"/>
      <point x="1207.4" y="506.9" type="line"/>
      <point x="1323.9" y="506.9" type="line"/>
      <point x="1241.8" y="118.7" type="line"/>
      <point x="1364.6999999999998" y="118.7" type="line"/>
      <point x="1447.5" y="506.9" type="line"/>
      <point x="1526.8999999999999" y="506.9" type="line"/>
      <point x="1539.2" y="564.4" type="line"/>
      <point x="1122.8" y="564.4" type="line"/>
      <point x="1086.3999999999999" y="383.5" type="line"/>
      <point x="1056.9" y="381.4" type="line"/>
    </contour>
  </outline>
</glyph>
<glyph name="e-tamil" format="2">
  <advance width="820.1999999999999"/>
  <unicode hex="0B8E"/>
  <note>
uni0B8E
</note>
  <anchor x="374.09999999999997" y="0.0" name="bottom"/>
  <anchor x="374.4" y="0.0" name="nukta"/>
  <anchor x="496.5" y="564.4" name="top"/>
  <anchor x="496.8" y="564.4" name="vedic"/>
  <outline>
    <contour>
      <point x="209.29999999999998" y="-5.0" type="curve" smooth="yes"/>
      <point x="316.8" y="-5.0"/>
      <point x="400.6" y="69.10000000000001"/>
      <point x="400.6" y="185.5" type="curve" smooth="yes"/>
      <point x="400.6" y="270.3"/>
      <point x="344.09999999999997" y="323.0"/>
      <point x="270.59999999999997" y="323.0" type="curve" smooth="yes"/>
      <point x="177.79999999999998" y="323.0"/>
      <point x="115.10000000000001" y="248.8"/>
      <point x="74.9" y="136.1" type="curve"/>
      <point x="106.6" y="110.8" type="line"/>
      <point x="133.3" y="191.9"/>
      <point x="168.4" y="237.7"/>
      <point x="214.4" y="237.7" type="curve" smooth="yes"/>
      <point x="253.70000000000002" y="237.7"/>
      <point x="270.59999999999997" y="204.4"/>
      <point x="270.59999999999997" y="163.9" type="curve" smooth="yes"/>
      <point x="270.59999999999997" y="110.5"/>
      <point x="243.29999999999998" y="62.4"/>
      <point x="188.20000000000002" y="62.4" type="curve" smooth="yes"/>
      <point x="130.9" y="62.4"/>
      <point x="98.1" y="130.79999999999998"/>
      <point x="98.1" y="204.6" type="curve" smooth="yes"/>
      <point x="98.1" y="367.0"/>
      <point x="192.9" y="504.1"/>
      <point x="389.8" y="504.1" type="curve" smooth="yes"/>
      <point x="588.6" y="504.1" type="line"/>
      <point x="481.6" y="0.0" type="line"/>
      <point x="627.7" y="0.0" type="line"/>
      <point x="734.4" y="504.1" type="line"/>
      <point x="850.5" y="504.1" type="line"/>
      <point x="863.5" y="564.4" type="line"/>
      <point x="392.4" y="564.4" type="line" smooth="yes"/>
      <point x="164.0" y="564.4"/>
      <point x="35.400000000000006" y="398.4"/>
      <point x="35.400000000000006" y="199.2" type="curve" smooth="yes"/>
      <point x="35.400000000000006" y="89.0"/>
      <point x="99.8" y="-5.0"/>
    </contour>
  </outline>
</glyph>
<glyph name="ai-tamil" format="2">
  <advance width="882.8"/>
  <unicode hex="0B90"/>
  <note>
uni0B90
</note>
  <anchor x="380.4" y="0.0" name="bottom"/>
  <anchor x="311.4" y="-317.0" name="nukta"/>
  <anchor x="517.5" y="564.4" name="top"/>
  <anchor x="516.4" y="564.4" name="vedic"/>
  <outline>
    <contour>
      <point x="144.10000000000002" y="-317.0" type="curve" smooth="yes"/>
      <point x="243.79999999999998" y="-317.0"/>
      <point x="321.7" y="-271.09999999999997"/>
      <point x="359.59999999999997" y="-181.1" type="curve"/>
      <point x="360.20000000000005" y="-251.2"/>
      <point x="412.2" y="-317.0"/>
      <point x="524.1" y="-317.0" type="curve" smooth="yes"/>
      <point x="662.4000000000001" y="-317.0"/>
      <point x="758.4" y="-217.0"/>
      <point x="758.4" y="-71.10000000000001" type="curve" smooth="yes"/>
      <point x="758.4" y="-19.6"/>
      <point x="748.8000000000001" y="22.5"/>
      <point x="733.4" y="64.2" type="curve"/>
      <point x="672.5" y="40.0" type="line"/>
      <point x="685.0" y="3.8"/>
      <point x="694.6999999999999" y="-32.4"/>
      <point x="694.6999999999999" y="-67.5" type="curve" smooth="yes"/>
      <point x="694.6999999999999" y="-180.29999999999998"/>
      <point x="625.3" y="-251.8"/>
      <point x="524.9" y="-251.8" type="curve" smooth="yes"/>
      <point x="445.2" y="-251.8"/>
      <point x="420.29999999999995" y="-189.10000000000002"/>
      <point x="439.90000000000003" y="-95.10000000000001" type="curve" smooth="yes"/>
      <point x="453.5" y="-31.4" type="line"/>
      <point x="326.79999999999995" y="-31.4" type="line"/>
      <point x="312.8" y="-97.69999999999999" type="line" smooth="yes"/>
      <point x="291.7" y="-198.9"/>
      <point x="246.1" y="-253.2"/>
      <point x="175.6" y="-253.2" type="curve" smooth="yes"/>
      <point x="119.79999999999998" y="-253.2"/>
      <point x="95.89999999999999" y="-211.9"/>
      <point x="95.89999999999999" y="-149.1" type="curve" smooth="yes"/>
      <point x="95.89999999999999" y="28.1"/>
      <point x="222.5" y="57.8"/>
      <point x="427.70000000000005" y="79.69999999999999" type="curve" smooth="yes"/>
      <point x="679.5999999999999" y="106.6"/>
      <point x="857.0999999999999" y="178.6"/>
      <point x="857.0999999999999" y="395.2" type="curve" smooth="yes"/>
      <point x="857.0999999999999" y="505.5"/>
      <point x="783.5" y="569.7"/>
      <point x="677.2" y="569.7" type="curve" smooth="yes"/>
      <point x="592.9" y="569.7"/>
      <point x="530.3000000000001" y="531.9000000000001"/>
      <point x="489.1" y="449.0" type="curve"/>
      <point x="473.5" y="523.5"/>
      <point x="407.2" y="569.7"/>
      <point x="311.40000000000003" y="569.7" type="curve" smooth="yes"/>
      <point x="170.6" y="569.7"/>
      <point x="60.0" y="455.8"/>
      <point x="60.0" y="307.40000000000003" type="curve" smooth="yes"/>
      <point x="60.0" y="222.7"/>
      <point x="105.30000000000001" y="155.5"/>
      <point x="187.7" y="155.5" type="curve" smooth="yes"/>
      <point x="273.90000000000003" y="155.5"/>
      <point x="341.6" y="216.3"/>
      <point x="341.6" y="307.09999999999997" type="curve" smooth="yes"/>
      <point x="341.6" y="369.70000000000005"/>
      <point x="302.5" y="410.7"/>
      <point x="242.5" y="410.7" type="curve" smooth="yes"/>
      <point x="180.6" y="410.7"/>
      <point x="130.3" y="371.4"/>
      <point x="93.0" y="261.7" type="curve"/>
      <point x="114.30000000000001" y="237.0" type="line"/>
      <point x="139.4" y="316.59999999999997"/>
      <point x="172.1" y="344.7"/>
      <point x="203.5" y="344.7" type="curve" smooth="yes"/>
      <point x="229.5" y="344.7"/>
      <point x="245.29999999999998" y="327.0"/>
      <point x="245.29999999999998" y="296.5" type="curve" smooth="yes"/>
      <point x="245.29999999999998" y="250.6"/>
      <point x="218.8" y="218.9"/>
      <point x="180.20000000000002" y="218.9" type="curve" smooth="yes"/>
      <point x="142.20000000000002" y="218.9"/>
      <point x="121.6" y="253.2"/>
      <point x="121.6" y="308.5" type="curve" smooth="yes"/>
      <point x="121.6" y="415.9"/>
      <point x="189.29999999999998" y="507.0"/>
      <point x="299.3" y="507.0" type="curve" smooth="yes"/>
      <point x="391.4" y="507.0"/>
      <point x="428.6" y="452.90000000000003"/>
      <point x="409.7" y="363.2" type="curve" smooth="yes"/>
      <point x="377.90000000000003" y="212.8" type="line"/>
      <point x="504.6" y="212.8" type="line"/>
      <point x="542.7" y="391.7" type="line" smooth="yes"/>
      <point x="557.9" y="464.5"/>
      <point x="591.6999999999999" y="506.3"/>
      <point x="645.5999999999999" y="506.3" type="curve" smooth="yes"/>
      <point x="692.7" y="506.3"/>
      <point x="719.8" y="473.7"/>
      <point x="719.8" y="411.0" type="curve" smooth="yes"/>
      <point x="719.8" y="203.1"/>
      <point x="605.5" y="148.6"/>
      <point x="357.5" y="121.9" type="curve" smooth="yes"/>
      <point x="146.70000000000002" y="99.1"/>
      <point x="-41.4" y="50.7"/>
      <point x="-41.4" y="-141.6" type="curve" smooth="yes"/>
      <point x="-41.4" y="-244.5"/>
      <point x="33.800000000000004" y="-317.0"/>
    </contour>
  </outline>
</glyph>
<glyph name="o-tamil" format="2">
  <advance width="908.6999999999999"/>
  <unicode hex="0B92"/>
  <note>
uni0B92
</note>
  <anchor x="397.90000000000003" y="0.0" name="bottom"/>
  <anchor x="324.20000000000005" y="-335.0" name="nukta"/>
  <anchor x="501.90000000000003" y="564.4" name="top"/>
  <anchor x="501.9" y="564.4" name="vedic"/>
  <outline>
    <contour>
      <point x="210.9" y="-331.0" type="curve" smooth="yes"/>
      <point x="407.3" y="-331.0"/>
      <point x="476.8" y="-141.0"/>
      <point x="620.3" y="-141.0" type="curve" smooth="yes"/>
      <point x="664.4" y="-141.0" type="line"/>
      <point x="677.7" y="-79.19999999999999" type="line"/>
      <point x="610.9000000000001" y="-79.19999999999999" type="line" smooth="yes"/>
      <point x="447.8" y="-79.19999999999999"/>
      <point x="419.8" y="71.5"/>
      <point x="529.3000000000001" y="211.5" type="curve"/>
      <point x="535.0" y="208.5" type="line"/>
      <point x="480.5" y="88.6"/>
      <point x="511.3" y="-4.3"/>
      <point x="631.4000000000001" y="-4.3" type="curve" smooth="yes"/>
      <point x="762.7" y="-4.3"/>
      <point x="854.0" y="105.19999999999999"/>
      <point x="854.0" y="254.8" type="curve" smooth="yes"/>
      <point x="854.0" y="455.2"/>
      <point x="684.8000000000001" y="569.4"/>
      <point x="468.0" y="569.4" type="curve" smooth="yes"/>
      <point x="234.7" y="569.4"/>
      <point x="31.8" y="413.2"/>
      <point x="31.8" y="196.2" type="curve" smooth="yes"/>
      <point x="31.8" y="86.0"/>
      <point x="91.8" y="-5.0"/>
      <point x="201.29999999999998" y="-5.0" type="curve" smooth="yes"/>
      <point x="308.79999999999995" y="-5.0"/>
      <point x="393.2" y="69.10000000000001"/>
      <point x="393.2" y="185.5" type="curve" smooth="yes"/>
      <point x="393.2" y="270.3"/>
      <point x="335.9" y="323.0"/>
      <point x="262.4" y="323.0" type="curve" smooth="yes"/>
      <point x="169.6" y="323.0"/>
      <point x="108.8" y="248.8"/>
      <point x="68.6" y="136.1" type="curve"/>
      <point x="100.3" y="110.8" type="line"/>
      <point x="127.0" y="191.9"/>
      <point x="161.6" y="237.7"/>
      <point x="207.6" y="237.7" type="curve" smooth="yes"/>
      <point x="246.9" y="237.7"/>
      <point x="263.2" y="204.4"/>
      <point x="263.2" y="163.9" type="curve" smooth="yes"/>
      <point x="263.2" y="110.5"/>
      <point x="235.3" y="62.4"/>
      <point x="180.20000000000002" y="62.4" type="curve" smooth="yes"/>
      <point x="122.9" y="62.4"/>
      <point x="94.5" y="127.8"/>
      <point x="94.5" y="201.6" type="curve" smooth="yes"/>
      <point x="94.5" y="380.0"/>
      <point x="271.1" y="507.7"/>
      <point x="452.9" y="507.7" type="curve" smooth="yes"/>
      <point x="612.6999999999999" y="507.7"/>
      <point x="720.9" y="416.5"/>
      <point x="720.9" y="265.6" type="curve" smooth="yes"/>
      <point x="720.9" y="161.3"/>
      <point x="682.6999999999999" y="65.9"/>
      <point x="606.6" y="65.9" type="curve" smooth="yes"/>
      <point x="536.5" y="65.9"/>
      <point x="557.4" y="180.2"/>
      <point x="610.5" y="266.2" type="curve"/>
      <point x="547.6" y="302.40000000000003" type="line"/>
      <point x="410.6" y="164.0"/>
      <point x="348.0" y="-25.099999999999998"/>
      <point x="493.20000000000005" y="-101.7" type="curve"/>
      <point x="492.20000000000005" y="-106.7" type="line"/>
      <point x="365.9" y="-129.29999999999998"/>
      <point x="304.8" y="-260.9"/>
      <point x="194.0" y="-260.9" type="curve" smooth="yes"/>
      <point x="146.9" y="-260.9"/>
      <point x="120.6" y="-230.20000000000002"/>
      <point x="120.6" y="-194.8" type="curve" smooth="yes"/>
      <point x="120.6" y="-154.20000000000002"/>
      <point x="143.0" y="-129.3"/>
      <point x="184.0" y="-98.4" type="curve"/>
      <point x="153.8" y="-57.900000000000006" type="line"/>
      <point x="98.1" y="-99.2"/>
      <point x="61.4" y="-140.4"/>
      <point x="61.4" y="-206.39999999999998" type="curve" smooth="yes"/>
      <point x="61.4" y="-275.20000000000005"/>
      <point x="118.9" y="-331.0"/>
    </contour>
  </outline>
</glyph>
<glyph name="oo-tamil" format="2">
  <advance width="908.6999999999999"/>
  <unicode hex="0B93"/>
  <note>
uni0B93
</note>
  <anchor x="390.79999999999995" y="0.0" name="bottom"/>
  <anchor x="322.59999999999997" y="-310.7" name="nukta"/>
  <anchor x="500.5" y="564.4" name="top"/>
  <anchor x="500.5" y="564.4" name="vedic"/>
  <outline>
    <contour>
      <point x="185.2" y="-347.0" type="curve" smooth="yes"/>
      <point x="387.5" y="-347.0"/>
      <point x="476.8" y="-141.0"/>
      <point x="620.3000000000001" y="-141.0" type="curve" smooth="yes"/>
      <point x="660.1999999999999" y="-141.0" type="line"/>
      <point x="673.5" y="-79.19999999999999" type="line"/>
      <point x="610.9" y="-79.19999999999999" type="line" smooth="yes"/>
      <point x="447.79999999999995" y="-79.19999999999999"/>
      <point x="419.8" y="71.5"/>
      <point x="529.3" y="211.5" type="curve"/>
      <point x="535.0" y="208.5" type="line"/>
      <point x="480.5" y="88.6"/>
      <point x="511.3" y="-4.3"/>
      <point x="631.4000000000001" y="-4.3" type="curve" smooth="yes"/>
      <point x="762.7" y="-4.3"/>
      <point x="854.0" y="105.19999999999999"/>
      <point x="854.0" y="254.8" type="curve" smooth="yes"/>
      <point x="854.0" y="455.2"/>
      <point x="684.8000000000001" y="569.4"/>
      <point x="468.0" y="569.4" type="curve" smooth="yes"/>
      <point x="234.7" y="569.4"/>
      <point x="31.8" y="413.2"/>
      <point x="31.8" y="196.2" type="curve" smooth="yes"/>
      <point x="31.8" y="86.0"/>
      <point x="91.8" y="-5.0"/>
      <point x="201.29999999999998" y="-5.0" type="curve" smooth="yes"/>
      <point x="308.79999999999995" y="-5.0"/>
      <point x="393.2" y="69.10000000000001"/>
      <point x="393.2" y="185.5" type="curve" smooth="yes"/>
      <point x="393.2" y="270.3"/>
      <point x="335.9" y="323.0"/>
      <point x="262.4" y="323.0" type="curve" smooth="yes"/>
      <point x="169.6" y="323.0"/>
      <point x="108.8" y="248.8"/>
      <point x="68.6" y="136.1" type="curve"/>
      <point x="100.3" y="110.8" type="line"/>
      <point x="127.0" y="191.9"/>
      <point x="161.6" y="237.7"/>
      <point x="207.6" y="237.7" type="curve" smooth="yes"/>
      <point x="246.9" y="237.7"/>
      <point x="263.2" y="204.4"/>
      <point x="263.2" y="163.9" type="curve" smooth="yes"/>
      <point x="263.2" y="110.5"/>
      <point x="235.3" y="62.4"/>
      <point x="180.20000000000002" y="62.4" type="curve" smooth="yes"/>
      <point x="122.9" y="62.4"/>
      <point x="94.5" y="127.8"/>
      <point x="94.5" y="201.6" type="curve" smooth="yes"/>
      <point x="94.5" y="380.0"/>
      <point x="271.1" y="507.7"/>
      <point x="452.9" y="507.7" type="curve" smooth="yes"/>
      <point x="612.6999999999999" y="507.7"/>
      <point x="720.9" y="416.5"/>
      <point x="720.9" y="265.6" type="curve" smooth="yes"/>
      <point x="720.9" y="161.3"/>
      <point x="682.6999999999999" y="65.9"/>
      <point x="606.6" y="65.9" type="curve" smooth="yes"/>
      <point x="536.5" y="65.9"/>
      <point x="557.4" y="180.2"/>
      <point x="610.5" y="266.2" type="curve"/>
      <point x="547.6" y="302.40000000000003" type="line"/>
      <point x="410.59999999999997" y="164.0"/>
      <point x="348.0" y="-25.099999999999998"/>
      <point x="493.2" y="-101.7" type="curve"/>
      <point x="492.2" y="-106.7" type="line"/>
      <point x="365.9" y="-129.29999999999998"/>
      <point x="279.4" y="-277.8"/>
      <point x="168.6" y="-277.8" type="curve" smooth="yes"/>
      <point x="113.8" y="-277.8"/>
      <point x="86.5" y="-246.70000000000002"/>
      <point x="86.5" y="-205.8" type="curve" smooth="yes"/>
      <point x="86.5" y="-167.5"/>
      <point x="112.69999999999999" y="-134.89999999999998"/>
      <point x="151.9" y="-134.89999999999998" type="curve" smooth="yes"/>
      <point x="188.4" y="-134.89999999999998"/>
      <point x="214.70000000000002" y="-155.3"/>
      <point x="219.5" y="-201.9" type="curve"/>
      <point x="264.5" y="-188.0"/>
      <point x="292.2" y="-158.60000000000002"/>
      <point x="292.2" y="-119.4" type="curve" smooth="yes"/>
      <point x="292.2" y="-78.9"/>
      <point x="251.7" y="-53.2"/>
      <point x="196.5" y="-53.2" type="curve" smooth="yes"/>
      <point x="99.10000000000001" y="-53.2"/>
      <point x="29.9" y="-126.0"/>
      <point x="29.9" y="-215.3" type="curve" smooth="yes"/>
      <point x="29.9" y="-290.29999999999995"/>
      <point x="92.6" y="-347.0"/>
    </contour>
  </outline>
</glyph>
<glyph name="ja-tamil" format="2">
  <advance width="885.9"/>
  <unicode hex="0B9C"/>
  <note>
uni0B9C
</note>
  <anchor x="380.7" y="0.0" name="bottom"/>
  <anchor x="311.7" y="-317.0" name="nukta"/>
  <anchor x="504.79999999999995" y="564.4" name="top"/>
  <anchor x="499.09999999999997" y="564.4" name="vedic"/>
  <outline>
    <contour>
      <point x="129.1" y="-317.0" type="curve" smooth="yes"/>
      <point x="340.5" y="-317.0"/>
      <point x="393.4" y="-23.8"/>
      <point x="540.6999999999999" y="-23.8" type="curve" smooth="yes"/>
      <point x="589.2" y="-23.8"/>
      <point x="618.2" y="-61.3"/>
      <point x="618.2" y="-112.5" type="curve" smooth="yes"/>
      <point x="618.2" y="-187.0"/>
      <point x="577.8000000000001" y="-250.3"/>
      <point x="501.1" y="-250.3" type="curve" smooth="yes"/>
      <point x="472.6" y="-250.3"/>
      <point x="444.7" y="-240.3"/>
      <point x="417.9" y="-221.7" type="curve"/>
      <point x="385.09999999999997" y="-268.7" type="line"/>
      <point x="425.9" y="-301.3"/>
      <point x="474.9" y="-317.0"/>
      <point x="533.0" y="-317.0" type="curve" smooth="yes"/>
      <point x="651.5" y="-317.0"/>
      <point x="755.1999999999999" y="-244.9"/>
      <point x="755.1999999999999" y="-112.5" type="curve" smooth="yes"/>
      <point x="755.1999999999999" y="-16.1"/>
      <point x="688.1" y="43.7"/>
      <point x="582.1" y="43.7" type="curve" smooth="yes"/>
      <point x="362.3" y="43.7"/>
      <point x="308.5" y="-249.0"/>
      <point x="165.20000000000002" y="-249.0" type="curve" smooth="yes"/>
      <point x="120.30000000000001" y="-249.0"/>
      <point x="96.69999999999999" y="-208.1"/>
      <point x="96.69999999999999" y="-150.1" type="curve" smooth="yes"/>
      <point x="96.69999999999999" y="20.1"/>
      <point x="215.4" y="59.8"/>
      <point x="428.1" y="82.9" type="curve" smooth="yes"/>
      <point x="680.0" y="110.4"/>
      <point x="857.5" y="178.6"/>
      <point x="857.5" y="395.2" type="curve" smooth="yes"/>
      <point x="857.5" y="505.5"/>
      <point x="783.9" y="569.7"/>
      <point x="677.5999999999999" y="569.7" type="curve" smooth="yes"/>
      <point x="593.3000000000001" y="569.7"/>
      <point x="530.6999999999999" y="531.9000000000001"/>
      <point x="489.5" y="449.0" type="curve"/>
      <point x="473.9" y="523.5"/>
      <point x="407.6" y="569.7"/>
      <point x="311.8" y="569.7" type="curve" smooth="yes"/>
      <point x="171.0" y="569.7"/>
      <point x="60.400000000000006" y="455.8"/>
      <point x="60.400000000000006" y="307.40000000000003" type="curve" smooth="yes"/>
      <point x="60.400000000000006" y="222.7"/>
      <point x="105.7" y="155.5"/>
      <point x="188.1" y="155.5" type="curve" smooth="yes"/>
      <point x="274.3" y="155.5"/>
      <point x="342.0" y="216.3"/>
      <point x="342.0" y="307.09999999999997" type="curve" smooth="yes"/>
      <point x="342.0" y="369.70000000000005"/>
      <point x="302.9" y="410.7"/>
      <point x="242.9" y="410.7" type="curve" smooth="yes"/>
      <point x="181.0" y="410.7"/>
      <point x="130.7" y="371.4"/>
      <point x="93.39999999999999" y="261.7" type="curve"/>
      <point x="114.7" y="237.0" type="line"/>
      <point x="139.8" y="316.59999999999997"/>
      <point x="172.5" y="344.7"/>
      <point x="203.9" y="344.7" type="curve" smooth="yes"/>
      <point x="229.9" y="344.7"/>
      <point x="245.7" y="327.0"/>
      <point x="245.7" y="296.5" type="curve" smooth="yes"/>
      <point x="245.7" y="250.6"/>
      <point x="219.2" y="218.9"/>
      <point x="180.6" y="218.9" type="curve" smooth="yes"/>
      <point x="142.6" y="218.9"/>
      <point x="122.0" y="253.2"/>
      <point x="122.0" y="308.5" type="curve" smooth="yes"/>
      <point x="122.0" y="415.9"/>
      <point x="189.70000000000002" y="507.0"/>
      <point x="299.70000000000005" y="507.0" type="curve" smooth="yes"/>
      <point x="391.8" y="507.0"/>
      <point x="429.0" y="452.90000000000003"/>
      <point x="410.1" y="363.2" type="curve" smooth="yes"/>
      <point x="378.29999999999995" y="212.8" type="line"/>
      <point x="504.99999999999994" y="212.8" type="line"/>
      <point x="543.0999999999999" y="391.7" type="line" smooth="yes"/>
      <point x="558.3000000000001" y="464.5"/>
      <point x="592.4" y="506.3"/>
      <point x="646.3" y="506.3" type="curve" smooth="yes"/>
      <point x="693.4" y="506.3"/>
      <point x="720.2" y="473.7"/>
      <point x="720.2" y="411.0" type="curve" smooth="yes"/>
      <point x="720.2" y="203.1"/>
      <point x="605.9" y="148.8"/>
      <point x="357.9" y="122.1" type="curve" smooth="yes"/>
      <point x="147.10000000000002" y="99.30000000000001"/>
      <point x="-40.599999999999994" y="38.50000000000001"/>
      <point x="-40.599999999999994" y="-139.8" type="curve" smooth="yes"/>
      <point x="-40.599999999999994" y="-240.70000000000002"/>
      <point x="20.400000000000006" y="-317.0"/>
    </contour>
  </outline>
</glyph>
<glyph name="nya-tamil" format="2">
  <advance width="1189.3999999999999"/>
  <unicode hex="0B9E"/>
  <note>
uni0B9E
</note>
  <anchor x="552.1" y="0.0" name="bottom"/>
  <anchor x="964.3" y="564.4" name="imatra"/>
  <anchor x="491.8" y="-339.0" name="nukta"/>
  <anchor x="693.3000000000001" y="564.4" name="top"/>
  <anchor x="660.0" y="564.4" name="vedic"/>
  <outline>
    <contour>
      <point x="491.8" y="-339.0" type="curve" smooth="yes"/>
      <point x="846.0999999999999" y="-339.0"/>
      <point x="1117.6" y="-116.5"/>
      <point x="1117.6" y="182.5" type="curve" smooth="yes"/>
      <point x="1117.6" y="285.8"/>
      <point x="1067.9" y="344.5"/>
      <point x="987.5999999999999" y="344.5" type="curve" smooth="yes"/>
      <point x="907.6" y="344.5"/>
      <point x="845.9" y="277.9"/>
      <point x="825.8000000000001" y="185.6" type="curve" smooth="yes"/>
      <point x="817.8000000000001" y="148.5" type="line"/>
      <point x="841.9" y="148.5" type="line"/>
      <point x="848.9" y="184.5" type="line" smooth="yes"/>
      <point x="858.0" y="231.3"/>
      <point x="882.0999999999999" y="256.9"/>
      <point x="918.0" y="256.9" type="curve" smooth="yes"/>
      <point x="957.1" y="256.9"/>
      <point x="975.7" y="224.29999999999998"/>
      <point x="975.7" y="168.70000000000002" type="curve" smooth="yes"/>
      <point x="975.7" y="-69.89999999999999"/>
      <point x="784.0" y="-275.9"/>
      <point x="496.2" y="-275.9" type="curve" smooth="yes"/>
      <point x="259.7" y="-275.9"/>
      <point x="88.6" y="-118.39999999999999"/>
      <point x="88.6" y="127.0" type="curve" smooth="yes"/>
      <point x="88.6" y="325.1"/>
      <point x="171.1" y="481.5"/>
      <point x="329.2" y="631.1999999999999" type="curve"/>
      <point x="288.2" y="672.6999999999999" type="line"/>
      <point x="120.5" y="515.3"/>
      <point x="23.3" y="332.7"/>
      <point x="23.3" y="118.6" type="curve" smooth="yes"/>
      <point x="23.3" y="-145.8"/>
      <point x="213.2" y="-339.0"/>
    </contour>
    <component base="e-tamil" xOffset="182.9"/>
  </outline>
</glyph>
<glyph name="tta-tamil" format="2">
  <advance width="789.3000000000001"/>
  <unicode hex="0B9F"/>
  <note>
uni0B9F
</note>
  <anchor x="342.1" y="0.0" name="bottom"/>
  <anchor x="342.1" y="0.0" name="nukta"/>
  <anchor x="478.8" y="564.4" name="top"/>
  <anchor x="483.59999999999997" y="564.4" name="vedic"/>
  <outline>
    <contour>
      <point x="10.100000000000001" y="0.0" type="line"/>
      <point x="718.9" y="0.0" type="line"/>
      <point x="731.9" y="61.0" type="line"/>
      <point x="170.4" y="61.0" type="line"/>
      <point x="277.40000000000003" y="564.4" type="line"/>
      <point x="130.1" y="564.4" type="line"/>
    </contour>
  </outline>
</glyph>
<glyph name="nna-tamil" format="2">
  <advance width="1570.4"/>
  <unicode hex="0BA3"/>
  <note>
uni0BA3
</note>
  <anchor x="771.8" y="0.0" name="bottom"/>
  <anchor x="1506.2" y="564.4" name="imatra"/>
  <anchor x="771.1" y="0.0" name="nukta"/>
  <anchor x="881.5" y="564.4" name="top"/>
  <anchor x="866.3" y="564.4" name="vedic"/>
  <outline>
    <contour>
      <point x="593.8000000000001" y="-4.3" type="curve" smooth="yes"/>
      <point x="707.0" y="-4.3"/>
      <point x="795.3000000000001" y="81.60000000000001"/>
      <point x="795.3000000000001" y="232.9" type="curve" smooth="yes"/>
      <point x="795.3000000000001" y="434.1"/>
      <point x="651.8" y="569.4"/>
      <point x="419.5" y="569.4" type="curve" smooth="yes"/>
      <point x="211.9" y="569.4"/>
      <point x="33.1" y="404.9"/>
      <point x="33.1" y="199.2" type="curve" smooth="yes"/>
      <point x="33.1" y="89.0"/>
      <point x="97.5" y="-5.0"/>
      <point x="207.0" y="-5.0" type="curve" smooth="yes"/>
      <point x="314.5" y="-5.0"/>
      <point x="398.3" y="69.10000000000001"/>
      <point x="398.3" y="185.5" type="curve" smooth="yes"/>
      <point x="398.3" y="270.3"/>
      <point x="341.79999999999995" y="323.0"/>
      <point x="268.3" y="323.0" type="curve" smooth="yes"/>
      <point x="175.5" y="323.0"/>
      <point x="112.8" y="248.8"/>
      <point x="72.60000000000001" y="136.1" type="curve"/>
      <point x="104.3" y="110.8" type="line"/>
      <point x="131.0" y="191.9"/>
      <point x="166.1" y="237.7"/>
      <point x="212.1" y="237.7" type="curve" smooth="yes"/>
      <point x="251.40000000000003" y="237.7"/>
      <point x="268.3" y="204.4"/>
      <point x="268.3" y="163.9" type="curve" smooth="yes"/>
      <point x="268.3" y="110.5"/>
      <point x="241.0" y="62.4"/>
      <point x="185.9" y="62.4" type="curve" smooth="yes"/>
      <point x="128.6" y="62.4"/>
      <point x="95.8" y="130.79999999999998"/>
      <point x="95.8" y="204.6" type="curve" smooth="yes"/>
      <point x="95.8" y="369.0"/>
      <point x="236.3" y="507.0"/>
      <point x="407.9" y="507.0" type="curve" smooth="yes"/>
      <point x="583.1" y="507.0"/>
      <point x="664.3" y="394.1"/>
      <point x="662.9" y="235.0" type="curve" smooth="yes"/>
      <point x="662.1999999999999" y="134.6"/>
      <point x="627.8000000000001" y="64.3"/>
      <point x="568.3" y="64.3" type="curve" smooth="yes"/>
      <point x="534.1" y="64.3"/>
      <point x="515.8" y="102.5"/>
      <point x="515.8" y="162.3" type="curve" smooth="yes"/>
      <point x="515.8" y="335.5"/>
      <point x="671.6" y="507.0"/>
      <point x="851.9" y="507.0" type="curve" smooth="yes"/>
      <point x="1011.3000000000001" y="507.0"/>
      <point x="1058.6" y="399.1"/>
      <point x="1057.2" y="242.0" type="curve" smooth="yes"/>
      <point x="1056.5" y="141.6"/>
      <point x="1020.6999999999999" y="64.3"/>
      <point x="962.6" y="64.3" type="curve" smooth="yes"/>
      <point x="928.4" y="64.3"/>
      <point x="910.1" y="100.60000000000001"/>
      <point x="910.1" y="160.39999999999998" type="curve" smooth="yes"/>
      <point x="910.1" y="358.0"/>
      <point x="1087.1000000000001" y="504.1"/>
      <point x="1282.2" y="504.1" type="curve" smooth="yes"/>
      <point x="1600.6999999999998" y="504.1" type="line"/>
      <point x="1613.0" y="564.4" type="line"/>
      <point x="1289.2" y="564.4" type="line" smooth="yes"/>
      <point x="1051.8000000000002" y="564.4"/>
      <point x="847.1" y="387.70000000000005"/>
      <point x="847.1" y="158.1" type="curve" smooth="yes"/>
      <point x="847.1" y="66.1"/>
      <point x="889.6999999999999" y="-4.3"/>
      <point x="988.0999999999999" y="-4.3" type="curve" smooth="yes"/>
      <point x="1102.7" y="-4.3"/>
      <point x="1189.6" y="90.69999999999999"/>
      <point x="1189.6" y="242.0" type="curve" smooth="yes"/>
      <point x="1189.6" y="434.90000000000003"/>
      <point x="1080.0" y="569.4"/>
      <point x="863.5" y="569.4" type="curve" smooth="yes"/>
      <point x="638.0" y="569.4"/>
      <point x="452.8" y="365.2"/>
      <point x="452.8" y="160.0" type="curve" smooth="yes"/>
      <point x="452.8" y="68.0"/>
      <point x="495.4" y="-4.3"/>
    </contour>
    <contour>
      <point x="1231.8" y="0.0" type="line"/>
      <point x="1377.2" y="0.0" type="line"/>
      <point x="1490.6000000000001" y="534.2" type="line"/>
      <point x="1345.5" y="534.2" type="line"/>
    </contour>
  </outline>
</glyph>
<glyph name="na-tamil" format="2">
  <advance width="718.1"/>
  <unicode hex="0BA8"/>
  <note>
uni0BA8
</note>
  <anchor x="278.1" y="0.0" name="bottom"/>
  <anchor x="517.6" y="564.4" name="imatra"/>
  <anchor x="265.0" y="-209.1" name="nukta"/>
  <anchor x="401.8" y="564.4" name="top"/>
  <anchor x="424.6" y="564.4" name="vedic"/>
  <outline>
    <contour>
      <point x="65.4" y="-272.3" type="curve"/>
      <point x="79.2" y="-186.3"/>
      <point x="112.4" y="-133.4"/>
      <point x="210.7" y="-133.4" type="curve" smooth="yes"/>
      <point x="299.0" y="-133.4" type="line" smooth="yes"/>
      <point x="486.0" y="-133.4"/>
      <point x="651.5999999999999" y="-7.400000000000002"/>
      <point x="651.5999999999999" y="194.0" type="curve" smooth="yes"/>
      <point x="651.5999999999999" y="295.7"/>
      <point x="599.1" y="347.3"/>
      <point x="526.2" y="347.3" type="curve" smooth="yes"/>
      <point x="467.2" y="347.3"/>
      <point x="436.2" y="317.7"/>
      <point x="408.2" y="284.6" type="curve"/>
      <point x="454.5" y="504.1" type="line"/>
      <point x="580.7" y="504.1" type="line"/>
      <point x="593.7" y="564.4" type="line"/>
      <point x="131.5" y="564.4" type="line"/>
      <point x="11.500000000000004" y="0.0" type="line"/>
      <point x="77.0" y="0.0" type="line"/>
      <point x="183.7" y="504.1" type="line"/>
      <point x="307.5" y="504.1" type="line"/>
      <point x="200.8" y="0.0" type="line"/>
      <point x="347.5" y="0.0" type="line"/>
      <point x="387.5" y="189.4" type="line" smooth="yes"/>
      <point x="396.9" y="232.7"/>
      <point x="422.6" y="258.3"/>
      <point x="452.90000000000003" y="258.3" type="curve" smooth="yes"/>
      <point x="489.2" y="258.3"/>
      <point x="507.6" y="233.20000000000002"/>
      <point x="507.6" y="183.70000000000002" type="curve" smooth="yes"/>
      <point x="507.6" y="36.199999999999996"/>
      <point x="423.70000000000005" y="-81.10000000000001"/>
      <point x="274.2" y="-81.10000000000001" type="curve" smooth="yes"/>
      <point x="169.9" y="-81.10000000000001" type="line" smooth="yes"/>
      <point x="59.2" y="-81.10000000000001"/>
      <point x="-33.6" y="-102.4"/>
      <point x="-33.6" y="-195.2" type="curve" smooth="yes"/>
      <point x="-33.6" y="-243.5"/>
      <point x="4.4" y="-272.3"/>
    </contour>
  </outline>
</glyph>
<glyph name="nnna-tamil" format="2">
  <advance width="1190.4"/>
  <unicode hex="0BA9"/>
  <note>
uni0BA9
</note>
  <anchor x="518.1" y="0.0" name="bottom"/>
  <anchor x="1105.9" y="564.4" name="imatra"/>
  <anchor x="519.5" y="0.0" name="nukta"/>
  <anchor x="677.8000000000001" y="564.4" name="top"/>
  <anchor x="671.9" y="564.4" name="vedic"/>
  <outline>
    <contour>
      <point x="207.0" y="-5.0" type="curve" smooth="yes"/>
      <point x="314.5" y="-5.0"/>
      <point x="398.3" y="69.10000000000001"/>
      <point x="398.3" y="185.5" type="curve" smooth="yes"/>
      <point x="398.3" y="270.3"/>
      <point x="341.79999999999995" y="323.0"/>
      <point x="268.3" y="323.0" type="curve" smooth="yes"/>
      <point x="175.5" y="323.0"/>
      <point x="112.8" y="248.8"/>
      <point x="72.60000000000001" y="136.1" type="curve"/>
      <point x="104.3" y="110.8" type="line"/>
      <point x="131.0" y="191.9"/>
      <point x="166.1" y="237.7"/>
      <point x="212.1" y="237.7" type="curve" smooth="yes"/>
      <point x="251.40000000000003" y="237.7"/>
      <point x="268.3" y="204.4"/>
      <point x="268.3" y="163.9" type="curve" smooth="yes"/>
      <point x="268.3" y="110.5"/>
      <point x="241.0" y="62.4"/>
      <point x="185.9" y="62.4" type="curve" smooth="yes"/>
      <point x="128.6" y="62.4"/>
      <point x="95.8" y="130.79999999999998"/>
      <point x="95.8" y="204.6" type="curve" smooth="yes"/>
      <point x="95.8" y="369.0"/>
      <point x="234.5" y="507.0"/>
      <point x="407.3" y="507.0" type="curve" smooth="yes"/>
      <point x="582.5" y="507.0"/>
      <point x="664.3000000000001" y="394.1"/>
      <point x="662.9000000000001" y="235.0" type="curve" smooth="yes"/>
      <point x="662.2" y="134.6"/>
      <point x="627.8" y="64.3"/>
      <point x="568.3000000000001" y="64.3" type="curve" smooth="yes"/>
      <point x="534.1" y="64.3"/>
      <point x="515.8000000000001" y="100.60000000000001"/>
      <point x="515.8000000000001" y="160.39999999999998" type="curve" smooth="yes"/>
      <point x="515.8000000000001" y="358.0"/>
      <point x="688.9000000000001" y="504.1"/>
      <point x="893.0" y="504.1" type="curve" smooth="yes"/>
      <point x="1220.6999999999998" y="504.1" type="line"/>
      <point x="1233.0" y="564.4" type="line"/>
      <point x="900.0" y="564.4" type="line" smooth="yes"/>
      <point x="653.6" y="564.4"/>
      <point x="452.8" y="387.70000000000005"/>
      <point x="452.8" y="158.1" type="curve" smooth="yes"/>
      <point x="452.8" y="66.1"/>
      <point x="495.40000000000003" y="-4.3"/>
      <point x="593.8" y="-4.3" type="curve" smooth="yes"/>
      <point x="707.0" y="-4.3"/>
      <point x="795.3" y="82.19999999999999"/>
      <point x="795.3" y="233.5" type="curve" smooth="yes"/>
      <point x="795.3" y="434.7"/>
      <point x="651.2" y="569.4"/>
      <point x="418.9" y="569.4" type="curve" smooth="yes"/>
      <point x="210.1" y="569.4"/>
      <point x="33.1" y="404.9"/>
      <point x="33.1" y="199.2" type="curve" smooth="yes"/>
      <point x="33.1" y="89.0"/>
      <point x="97.5" y="-5.0"/>
    </contour>
    <contour>
      <point x="851.8000000000001" y="0.0" type="line"/>
      <point x="997.1999999999999" y="0.0" type="line"/>
      <point x="1110.6000000000001" y="534.2" type="line"/>
      <point x="965.5" y="534.2" type="line"/>
    </contour>
  </outline>
</glyph>
<glyph name="pa-tamil" format="2">
  <advance width="790.9"/>
  <unicode hex="0BAA"/>
  <note>
uni0BAA
</note>
  <anchor x="338.7" y="0.0" name="bottom"/>
  <anchor x="772.8000000000001" y="564.4" name="imatra"/>
  <anchor x="338.7" y="0.0" name="nukta"/>
  <anchor x="457.90000000000003" y="564.4" name="top"/>
  <anchor x="455.6" y="564.4" name="vedic"/>
  <outline>
    <contour>
      <point x="10.100000000000001" y="0.0" type="line"/>
      <point x="661.1" y="0.0" type="line"/>
      <point x="780.8000000000001" y="564.4" type="line"/>
      <point x="634.5" y="564.4" type="line"/>
      <point x="527.5" y="61.0" type="line"/>
      <point x="169.20000000000002" y="61.0" type="line"/>
      <point x="276.20000000000005" y="564.4" type="line"/>
      <point x="130.1" y="564.4" type="line"/>
    </contour>
  </outline>
</glyph>
<glyph name="ma-tamil" format="2">
  <advance width="792.9"/>
  <unicode hex="0BAE"/>
  <note>
uni0BAE
</note>
  <anchor x="334.7" y="0.0" name="bottom"/>
  <anchor x="793.6" y="564.4" name="imatra"/>
  <anchor x="335.4" y="0.0" name="nukta"/>
  <anchor x="471.40000000000003" y="564.4" name="top"/>
  <anchor x="472.1" y="564.4" name="vedic"/>
  <outline>
    <contour>
      <point x="10.100000000000001" y="0.0" type="line"/>
      <point x="542.7" y="0.0" type="line" smooth="yes"/>
      <point x="687.2" y="0.0"/>
      <point x="747.8000000000001" y="170.3"/>
      <point x="747.8000000000001" y="340.90000000000003" type="curve" smooth="yes"/>
      <point x="747.8000000000001" y="484.09999999999997"/>
      <point x="689.9" y="569.7"/>
      <point x="577.4000000000001" y="569.7" type="curve" smooth="yes"/>
      <point x="475.7" y="569.7"/>
      <point x="415.7" y="504.0"/>
      <point x="395.9" y="410.4" type="curve" smooth="yes"/>
      <point x="322.0" y="61.0" type="line"/>
      <point x="170.4" y="61.0" type="line"/>
      <point x="277.40000000000003" y="564.4" type="line"/>
      <point x="130.1" y="564.4" type="line"/>
    </contour>
    <contour>
      <point x="468.7" y="61.0" type="line"/>
      <point x="543.9" y="416.5" type="line" smooth="yes"/>
      <point x="555.4" y="470.0"/>
      <point x="574.6" y="494.1"/>
      <point x="609.3" y="494.1" type="curve" smooth="yes"/>
      <point x="653.3" y="494.1"/>
      <point x="681.2" y="445.2"/>
      <point x="681.2" y="336.1" type="curve" smooth="yes"/>
      <point x="681.2" y="217.5"/>
      <point x="642.6" y="61.0"/>
      <point x="550.7" y="61.0" type="curve" smooth="yes"/>
    </contour>
  </outline>
</glyph>
<glyph name="ya-tamil" format="2">
  <advance width="879.8"/>
  <unicode hex="0BAF"/>
  <note>
uni0BAF
</note>
  <anchor x="399.1" y="0.0" name="bottom"/>
  <anchor x="866.3000000000001" y="564.4" name="imatra"/>
  <anchor x="398.40000000000003" y="0.0" name="nukta"/>
  <anchor x="508.29999999999995" y="564.4" name="top"/>
  <anchor x="502.59999999999997" y="564.4" name="vedic"/>
  <outline>
    <contour>
      <point x="159.9" y="-8.6" type="curve" smooth="yes"/>
      <point x="224.20000000000002" y="-8.6"/>
      <point x="264.5" y="23.7"/>
      <point x="291.5" y="57.1" type="curve"/>
      <point x="279.9" y="0.0" type="line"/>
      <point x="750.0" y="0.0" type="line"/>
      <point x="869.7" y="564.4" type="line"/>
      <point x="723.0" y="564.4" type="line"/>
      <point x="616.0" y="61.0" type="line"/>
      <point x="422.40000000000003" y="61.0" type="line"/>
      <point x="529.8000000000001" y="564.4" type="line"/>
      <point x="386.5" y="564.4" type="line"/>
      <point x="296.8" y="140.8" type="line" smooth="yes"/>
      <point x="286.1" y="91.39999999999999"/>
      <point x="257.4" y="65.5"/>
      <point x="224.4" y="65.5" type="curve" smooth="yes"/>
      <point x="189.5" y="65.5"/>
      <point x="174.7" y="97.19999999999999"/>
      <point x="187.3" y="154.9" type="curve" smooth="yes"/>
      <point x="274.40000000000003" y="564.4" type="line"/>
      <point x="128.1" y="564.4" type="line"/>
      <point x="44.60000000000001" y="169.39999999999998" type="line" smooth="yes"/>
      <point x="22.6" y="64.8"/>
      <point x="73.89999999999999" y="-8.6"/>
    </contour>
  </outline>
</glyph>
<glyph name="ra-tamil" format="2">
  <advance width="563.2"/>
  <unicode hex="0BB0"/>
  <note>
uni0BB0
</note>
  <anchor x="217.4" y="0.0" name="bottom"/>
  <anchor x="535.6" y="564.4" name="imatra"/>
  <anchor x="169.4" y="-226.6" name="nukta"/>
  <anchor x="352.6" y="564.4" name="top"/>
  <anchor x="367.79999999999995" y="564.4" name="vedic"/>
  <outline>
    <contour>
      <point x="56.6" y="-238.0" type="line"/>
      <point x="379.40000000000003" y="38.7" type="line"/>
      <point x="478.0" y="504.1" type="line"/>
      <point x="593.5" y="504.1" type="line"/>
      <point x="606.5" y="564.4" type="line"/>
      <point x="130.1" y="564.4" type="line"/>
      <point x="10.100000000000001" y="0.0" type="line"/>
      <point x="76.3" y="0.0" type="line"/>
      <point x="183.29999999999998" y="504.1" type="line"/>
      <point x="330.1" y="504.1" type="line"/>
      <point x="219.8" y="-15.599999999999998" type="line"/>
      <point x="15.399999999999999" y="-189.9" type="line"/>
    </contour>
  </outline>
</glyph>
<glyph name="rra-tamil" format="2">
  <advance width="777.5"/>
  <unicode hex="0BB1"/>
  <note>
uni0BB1
</note>
  <anchor x="320.2" y="0.0" name="bottom"/>
  <anchor x="320.90000000000003" y="-168.5" name="nukta"/>
  <anchor x="442.0" y="564.4" name="top"/>
  <anchor x="456.5" y="564.4" name="vedic"/>
  <outline>
    <contour>
      <point x="60.8" y="-268.0" type="curve"/>
      <point x="74.6" y="-182.0"/>
      <point x="107.8" y="-129.1"/>
      <point x="206.10000000000002" y="-129.1" type="curve" smooth="yes"/>
      <point x="303.3" y="-129.1" type="line" smooth="yes"/>
      <point x="588.3000000000001" y="-129.1"/>
      <point x="741.4" y="73.6"/>
      <point x="741.4" y="333.3" type="curve" smooth="yes"/>
      <point x="741.4" y="487.59999999999997"/>
      <point x="660.2" y="569.4"/>
      <point x="547.5" y="569.4" type="curve" smooth="yes"/>
      <point x="454.5" y="569.4"/>
      <point x="404.4" y="520.5"/>
      <point x="372.3" y="468.7" type="curve"/>
      <point x="359.5" y="526.4000000000001"/>
      <point x="318.6" y="569.1"/>
      <point x="248.9" y="569.1" type="curve" smooth="yes"/>
      <point x="166.4" y="569.1"/>
      <point x="110.10000000000001" y="513.5999999999999"/>
      <point x="91.0" y="421.70000000000005" type="curve" smooth="yes"/>
      <point x="1.3000000000000007" y="0.0" type="line"/>
      <point x="66.1" y="0.0" type="line"/>
      <point x="154.5" y="415.5" type="line" smooth="yes"/>
      <point x="166.6" y="470.7"/>
      <point x="190.6" y="503.8"/>
      <point x="234.0" y="503.8" type="curve" smooth="yes"/>
      <point x="282.4" y="503.8"/>
      <point x="296.0" y="459.7"/>
      <point x="283.5" y="399.8" type="curve" smooth="yes"/>
      <point x="198.6" y="0.0" type="line"/>
      <point x="348.09999999999997" y="0.0" type="line"/>
      <point x="433.8" y="405.29999999999995" type="line" smooth="yes"/>
      <point x="447.9" y="471.40000000000003"/>
      <point x="478.2" y="504.1"/>
      <point x="523.5999999999999" y="504.1" type="curve" smooth="yes"/>
      <point x="575.3000000000001" y="504.1"/>
      <point x="598.8000000000001" y="455.2"/>
      <point x="598.8000000000001" y="368.3" type="curve" smooth="yes"/>
      <point x="598.8000000000001" y="141.6"/>
      <point x="517.9" y="-74.69999999999999"/>
      <point x="288.0" y="-74.69999999999999" type="curve" smooth="yes"/>
      <point x="165.6" y="-74.69999999999999" type="line" smooth="yes"/>
      <point x="54.599999999999994" y="-74.69999999999999"/>
      <point x="-38.2" y="-97.39999999999999"/>
      <point x="-38.2" y="-190.2" type="curve" smooth="yes"/>
      <point x="-38.2" y="-238.5"/>
      <point x="-0.1999999999999984" y="-268.0"/>
    </contour>
  </outline>
</glyph>
<glyph name="la-tamil" format="2">
  <advance width="939.8000000000001"/>
  <unicode hex="0BB2"/>
  <note>
uni0BB2
</note>
  <anchor x="407.79999999999995" y="0.0" name="bottom"/>
  <anchor x="407.79999999999995" y="0.0" name="nukta"/>
  <anchor x="538.0999999999999" y="564.4" name="top"/>
  <anchor x="528.7" y="564.4" name="vedic"/>
  <outline>
    <contour>
      <point x="207.6" y="-5.0" type="curve" smooth="yes"/>
      <point x="315.1" y="-5.0"/>
      <point x="398.9" y="69.10000000000001"/>
      <point x="398.9" y="185.5" type="curve" smooth="yes"/>
      <point x="398.9" y="270.3"/>
      <point x="341.0" y="323.0"/>
      <point x="267.5" y="323.0" type="curve" smooth="yes"/>
      <point x="174.7" y="323.0"/>
      <point x="113.4" y="248.8"/>
      <point x="73.2" y="136.1" type="curve"/>
      <point x="104.9" y="110.8" type="line"/>
      <point x="131.60000000000002" y="191.9"/>
      <point x="166.7" y="237.7"/>
      <point x="212.70000000000002" y="237.7" type="curve" smooth="yes"/>
      <point x="251.99999999999997" y="237.7"/>
      <point x="268.9" y="204.4"/>
      <point x="268.9" y="163.9" type="curve" smooth="yes"/>
      <point x="268.9" y="110.5"/>
      <point x="241.6" y="62.4"/>
      <point x="186.5" y="62.4" type="curve" smooth="yes"/>
      <point x="129.20000000000002" y="62.4"/>
      <point x="96.39999999999999" y="130.79999999999998"/>
      <point x="96.39999999999999" y="204.6" type="curve" smooth="yes"/>
      <point x="96.39999999999999" y="370.5"/>
      <point x="210.8" y="504.9"/>
      <point x="366.3" y="504.9" type="curve" smooth="yes"/>
      <point x="493.5" y="504.9"/>
      <point x="530.6" y="417.1"/>
      <point x="501.70000000000005" y="284.40000000000003" type="curve" smooth="yes"/>
      <point x="479.3" y="184.6" type="line" smooth="yes"/>
      <point x="454.29999999999995" y="70.7"/>
      <point x="504.7" y="-2.9000000000000004"/>
      <point x="622.5" y="-2.9000000000000004" type="curve" smooth="yes"/>
      <point x="785.7" y="-2.9000000000000004"/>
      <point x="906.3000000000001" y="150.4"/>
      <point x="906.3000000000001" y="365.40000000000003" type="curve" smooth="yes"/>
      <point x="906.3000000000001" y="442.7"/>
      <point x="890.4000000000001" y="508.1"/>
      <point x="863.2" y="569.4" type="curve"/>
      <point x="801.2" y="543.6999999999999" type="line"/>
      <point x="824.4000000000001" y="488.2"/>
      <point x="840.9000000000001" y="424.09999999999997"/>
      <point x="840.9000000000001" y="356.5" type="curve" smooth="yes"/>
      <point x="840.9000000000001" y="194.7"/>
      <point x="749.3" y="66.5"/>
      <point x="664.6" y="66.5" type="curve" smooth="yes"/>
      <point x="615.3000000000001" y="66.5"/>
      <point x="608.9" y="113.60000000000001"/>
      <point x="623.5" y="175.89999999999998" type="curve" smooth="yes"/>
      <point x="650.0999999999999" y="292.3" type="line" smooth="yes"/>
      <point x="690.0" y="466.9"/>
      <point x="582.8" y="569.4"/>
      <point x="400.0" y="569.4" type="curve" smooth="yes"/>
      <point x="192.9" y="569.4"/>
      <point x="33.7" y="404.3"/>
      <point x="33.7" y="199.2" type="curve" smooth="yes"/>
      <point x="33.7" y="89.0"/>
      <point x="98.1" y="-5.0"/>
    </contour>
  </outline>
</glyph>
<glyph name="lla-tamil" format="2">
  <advance width="1115.4"/>
  <unicode hex="0BB3"/>
  <note>
uni0BB3
</note>
  <anchor x="517.5" y="0.0" name="bottom"/>
  <anchor x="1045.5" y="564.4" name="imatra"/>
  <anchor x="519.6" y="0.0" name="nukta"/>
  <anchor x="656.1" y="564.4" name="top"/>
  <anchor x="633.6" y="564.4" name="vedic"/>
  <outline>
    <contour>
      <point x="209.0" y="-5.0" type="curve" smooth="yes"/>
      <point x="316.5" y="-5.0"/>
      <point x="400.3" y="69.10000000000001"/>
      <point x="400.3" y="185.5" type="curve" smooth="yes"/>
      <point x="400.3" y="270.3"/>
      <point x="343.8" y="323.0"/>
      <point x="270.29999999999995" y="323.0" type="curve" smooth="yes"/>
      <point x="177.5" y="323.0"/>
      <point x="114.80000000000001" y="248.8"/>
      <point x="74.60000000000001" y="136.1" type="curve"/>
      <point x="106.30000000000001" y="110.8" type="line"/>
      <point x="133.0" y="191.9"/>
      <point x="168.1" y="237.7"/>
      <point x="214.10000000000002" y="237.7" type="curve" smooth="yes"/>
      <point x="253.4" y="237.7"/>
      <point x="270.29999999999995" y="204.4"/>
      <point x="270.29999999999995" y="163.9" type="curve" smooth="yes"/>
      <point x="270.29999999999995" y="110.5"/>
      <point x="243.0" y="62.4"/>
      <point x="187.9" y="62.4" type="curve" smooth="yes"/>
      <point x="130.6" y="62.4"/>
      <point x="97.8" y="130.79999999999998"/>
      <point x="97.8" y="204.6" type="curve" smooth="yes"/>
      <point x="97.8" y="368.40000000000003"/>
      <point x="201.0" y="504.2"/>
      <point x="364.40000000000003" y="504.2" type="curve" smooth="yes"/>
      <point x="493.5" y="504.2"/>
      <point x="568.9" y="430.2"/>
      <point x="542.1999999999999" y="294.5" type="curve"/>
      <point x="605.1999999999999" y="305.4" type="line"/>
      <point x="627.9" y="467.0"/>
      <point x="528.7" y="569.4"/>
      <point x="368.0" y="569.4" type="curve" smooth="yes"/>
      <point x="173.7" y="569.4"/>
      <point x="35.10000000000001" y="404.3"/>
      <point x="35.10000000000001" y="199.2" type="curve" smooth="yes"/>
      <point x="35.10000000000001" y="89.0"/>
      <point x="99.5" y="-5.0"/>
    </contour>
    <contour>
      <point x="479.5" y="0.0" type="line"/>
      <point x="624.9" y="0.0" type="line"/>
      <point x="732.6" y="504.1" type="line"/>
      <point x="884.5" y="504.1" type="line"/>
      <point x="776.8" y="0.0" type="line"/>
      <point x="922.1999999999999" y="0.0" type="line"/>
      <point x="1029.9" y="504.1" type="line"/>
      <point x="1145.7" y="504.1" type="line"/>
      <point x="1158.0" y="564.4" type="line"/>
      <point x="632.8" y="564.4" type="line"/>
      <point x="588.3" y="351.20000000000005" type="line"/>
      <point x="556.6" y="361.3" type="line"/>
    </contour>
  </outline>
</glyph>
<glyph name="va-tamil" format="2">
  <advance width="1002.2"/>
  <unicode hex="0BB5"/>
  <note>
uni0BB5
</note>
  <anchor x="466.8" y="0.0" name="bottom"/>
  <anchor x="860.8" y="564.4" name="imatra"/>
  <anchor x="462.6" y="0.0" name="nukta"/>
  <anchor x="564.4000000000001" y="564.4" name="top"/>
  <anchor x="558.1999999999999" y="564.4" name="vedic"/>
  <outline>
    <contour>
      <point x="207.29999999999998" y="-5.0" type="curve" smooth="yes"/>
      <point x="314.8" y="-5.0"/>
      <point x="398.6" y="69.10000000000001"/>
      <point x="398.6" y="185.5" type="curve" smooth="yes"/>
      <point x="398.6" y="270.3"/>
      <point x="340.7" y="323.0"/>
      <point x="267.2" y="323.0" type="curve" smooth="yes"/>
      <point x="174.39999999999998" y="323.0"/>
      <point x="113.10000000000001" y="248.8"/>
      <point x="72.9" y="136.1" type="curve"/>
      <point x="104.6" y="110.8" type="line"/>
      <point x="131.3" y="191.9"/>
      <point x="166.4" y="237.7"/>
      <point x="212.4" y="237.7" type="curve" smooth="yes"/>
      <point x="251.70000000000002" y="237.7"/>
      <point x="268.59999999999997" y="204.4"/>
      <point x="268.59999999999997" y="163.9" type="curve" smooth="yes"/>
      <point x="268.59999999999997" y="110.5"/>
      <point x="241.29999999999998" y="62.4"/>
      <point x="186.20000000000002" y="62.4" type="curve" smooth="yes"/>
      <point x="128.9" y="62.4"/>
      <point x="96.1" y="130.79999999999998"/>
      <point x="96.1" y="204.6" type="curve" smooth="yes"/>
      <point x="96.1" y="368.7"/>
      <point x="217.0" y="504.9"/>
      <point x="370.0" y="504.9" type="curve" smooth="yes"/>
      <point x="474.0" y="504.9"/>
      <point x="539.5" y="436.8"/>
      <point x="538.1" y="319.20000000000005" type="curve" smooth="yes"/>
      <point x="536.6999999999999" y="204.1"/>
      <point x="493.29999999999995" y="123.8"/>
      <point x="432.4" y="44.0" type="curve"/>
      <point x="445.5" y="0.0" type="line"/>
      <point x="872.4" y="0.0" type="line"/>
      <point x="992.1" y="564.4" type="line"/>
      <point x="845.4" y="564.4" type="line"/>
      <point x="738.4000000000001" y="61.0" type="line"/>
      <point x="539.9" y="61.0" type="line"/>
      <point x="626.5" y="136.6"/>
      <point x="681.4" y="221.1"/>
      <point x="681.4" y="335.6" type="curve" smooth="yes"/>
      <point x="681.4" y="488.0"/>
      <point x="556.3" y="569.4"/>
      <point x="395.5" y="569.4" type="curve" smooth="yes"/>
      <point x="191.2" y="569.4"/>
      <point x="33.400000000000006" y="402.5"/>
      <point x="33.400000000000006" y="199.2" type="curve" smooth="yes"/>
      <point x="33.400000000000006" y="89.0"/>
      <point x="97.8" y="-5.0"/>
    </contour>
  </outline>
</glyph>
<glyph name="ssa-tamil" format="2">
  <advance width="1327.7"/>
  <unicode hex="0BB7"/>
  <note>
uni0BB7
</note>
  <anchor x="609.9" y="0.0" name="bottom"/>
  <anchor x="501.2" y="0.0" name="nukta"/>
  <anchor x="749.9" y="564.4" name="top"/>
  <anchor x="731.8" y="564.4" name="vedic"/>
  <outline>
    <contour>
      <point x="207.29999999999998" y="-5.0" type="curve" smooth="yes"/>
      <point x="314.8" y="-5.0"/>
      <point x="398.6" y="69.10000000000001"/>
      <point x="398.6" y="185.5" type="curve" smooth="yes"/>
      <point x="398.6" y="270.3"/>
      <point x="340.7" y="323.0"/>
      <point x="267.2" y="323.0" type="curve" smooth="yes"/>
      <point x="174.39999999999998" y="323.0"/>
      <point x="113.10000000000001" y="248.8"/>
      <point x="72.9" y="136.1" type="curve"/>
      <point x="104.6" y="110.8" type="line"/>
      <point x="131.3" y="191.9"/>
      <point x="166.4" y="237.7"/>
      <point x="212.4" y="237.7" type="curve" smooth="yes"/>
      <point x="251.70000000000002" y="237.7"/>
      <point x="268.59999999999997" y="204.4"/>
      <point x="268.59999999999997" y="163.9" type="curve" smooth="yes"/>
      <point x="268.59999999999997" y="110.5"/>
      <point x="241.29999999999998" y="62.4"/>
      <point x="186.20000000000002" y="62.4" type="curve" smooth="yes"/>
      <point x="128.9" y="62.4"/>
      <point x="96.1" y="130.79999999999998"/>
      <point x="96.1" y="204.6" type="curve" smooth="yes"/>
      <point x="96.1" y="368.7"/>
      <point x="217.0" y="504.9"/>
      <point x="370.0" y="504.9" type="curve" smooth="yes"/>
      <point x="474.0" y="504.9"/>
      <point x="539.5" y="436.8"/>
      <point x="538.1" y="319.2" type="curve" smooth="yes"/>
      <point x="536.6999999999999" y="204.1"/>
      <point x="493.29999999999995" y="123.8"/>
      <point x="432.4" y="44.0" type="curve"/>
      <point x="445.5" y="0.0" type="line"/>
      <point x="1218.0" y="0.0" type="line"/>
      <point x="1285.5" y="314.7" type="line"/>
      <point x="1139.7" y="261.09999999999997" type="line"/>
      <point x="1096.1" y="61.0" type="line"/>
      <point x="539.9" y="61.0" type="line"/>
      <point x="626.5" y="136.6"/>
      <point x="681.4" y="221.1"/>
      <point x="681.4" y="335.6" type="curve" smooth="yes"/>
      <point x="681.4" y="488.0"/>
      <point x="556.3" y="569.4"/>
      <point x="395.5" y="569.4" type="curve" smooth="yes"/>
      <point x="191.20000000000002" y="569.4"/>
      <point x="33.400000000000006" y="402.5"/>
      <point x="33.400000000000006" y="199.2" type="curve" smooth="yes"/>
      <point x="33.400000000000006" y="89.0"/>
      <point x="97.8" y="-5.0"/>
    </contour>
    <contour>
      <point x="780.9" y="-282.70000000000005" type="line"/>
      <point x="917.2" y="-282.70000000000005" type="line"/>
      <point x="1064.2" y="405.3" type="line" smooth="yes"/>
      <point x="1086.1" y="507.2"/>
      <point x="1045.2" y="569.7"/>
      <point x="949.4" y="569.7" type="curve" smooth="yes"/>
      <point x="832.5" y="569.7"/>
      <point x="759.7" y="476.0"/>
      <point x="759.7" y="367.9" type="curve" smooth="yes"/>
      <point x="759.7" y="274.29999999999995"/>
      <point x="824.9" y="194.9"/>
      <point x="947.7" y="194.9" type="curve" smooth="yes"/>
      <point x="1067.0" y="194.9"/>
      <point x="1158.6" y="230.0"/>
      <point x="1284.2" y="307.5" type="curve"/>
      <point x="1285.8" y="319.4" type="line"/>
      <point x="1262.0" y="355.7" type="line"/>
      <point x="1151.6" y="289.1"/>
      <point x="1053.1999999999998" y="251.79999999999998"/>
      <point x="957.7" y="251.79999999999998" type="curve" smooth="yes"/>
      <point x="858.5" y="251.79999999999998"/>
      <point x="819.6999999999999" y="302.59999999999997"/>
      <point x="819.6999999999999" y="377.09999999999997" type="curve" smooth="yes"/>
      <point x="819.6999999999999" y="428.0"/>
      <point x="848.9" y="484.3"/>
      <point x="893.1" y="484.3" type="curve" smooth="yes"/>
      <point x="926.4" y="484.3"/>
      <point x="937.2" y="455.6"/>
      <point x="929.9" y="419.40000000000003" type="curve" smooth="yes"/>
    </contour>
  </outline>
</glyph>
<glyph name="sa-tamil" format="2">
  <advance width="1231.0"/>
  <unicode hex="0BB8"/>
  <note>
uni0BB8
</note>
  <anchor x="573.3" y="0.0" name="bottom"/>
  <anchor x="571.2" y="0.0" name="nukta"/>
  <anchor x="683.5999999999999" y="564.4" name="top"/>
  <anchor x="690.5" y="564.4" name="vedic"/>
  <outline>
    <contour>
      <point x="453.6" y="0.0" type="line"/>
      <point x="599.0" y="0.0" type="line"/>
      <point x="689.3000000000001" y="427.5" type="line" smooth="yes"/>
      <point x="700.8" y="482.5"/>
      <point x="726.2" y="506.6"/>
      <point x="769.9" y="506.6" type="curve" smooth="yes"/>
      <point x="812.9" y="506.6"/>
      <point x="831.3" y="471.6"/>
      <point x="821.1" y="423.5" type="curve" smooth="yes"/>
      <point x="769.0" y="184.6" type="line" smooth="yes"/>
      <point x="744.6999999999999" y="71.0"/>
      <point x="794.4" y="-2.9000000000000004"/>
      <point x="912.2" y="-2.9000000000000004" type="curve" smooth="yes"/>
      <point x="1075.3999999999999" y="-2.9000000000000004"/>
      <point x="1197.5" y="150.4"/>
      <point x="1197.5" y="365.40000000000003" type="curve" smooth="yes"/>
      <point x="1197.5" y="442.7"/>
      <point x="1183.1" y="507.5"/>
      <point x="1156.8" y="569.1" type="curve"/>
      <point x="1094.1999999999998" y="544.0" type="line"/>
      <point x="1116.8" y="488.2"/>
      <point x="1132.1" y="424.09999999999997"/>
      <point x="1132.1" y="356.5" type="curve" smooth="yes"/>
      <point x="1132.1" y="194.7"/>
      <point x="1039.0" y="66.5"/>
      <point x="954.3000000000001" y="66.5" type="curve" smooth="yes"/>
      <point x="905.0" y="66.5"/>
      <point x="899.3000000000001" y="113.6"/>
      <point x="913.2" y="175.89999999999998" type="curve" smooth="yes"/>
      <point x="960.2" y="386.0" type="line" smooth="yes"/>
      <point x="986.4" y="502.3"/>
      <point x="908.0" y="568.7"/>
      <point x="792.0" y="568.7" type="curve" smooth="yes"/>
      <point x="687.3" y="568.7"/>
      <point x="606.7" y="506.3"/>
      <point x="591.1" y="432.9" type="curve" smooth="yes"/>
      <point x="573.9" y="352.4" type="line"/>
      <point x="532.4" y="372.5" type="line"/>
    </contour>
    <contour>
      <point x="208.29999999999998" y="-5.0" type="curve" smooth="yes"/>
      <point x="315.8" y="-5.0"/>
      <point x="399.59999999999997" y="69.10000000000001"/>
      <point x="399.59999999999997" y="185.5" type="curve" smooth="yes"/>
      <point x="399.59999999999997" y="270.3"/>
      <point x="341.7" y="323.0"/>
      <point x="268.2" y="323.0" type="curve" smooth="yes"/>
      <point x="175.4" y="323.0"/>
      <point x="114.10000000000001" y="248.8"/>
      <point x="73.9" y="136.1" type="curve"/>
      <point x="105.60000000000001" y="110.8" type="line"/>
      <point x="132.29999999999998" y="191.9"/>
      <point x="167.4" y="237.7"/>
      <point x="213.39999999999998" y="237.7" type="curve" smooth="yes"/>
      <point x="252.7" y="237.7"/>
      <point x="269.6" y="204.4"/>
      <point x="269.6" y="163.9" type="curve" smooth="yes"/>
      <point x="269.6" y="110.5"/>
      <point x="242.3" y="62.4"/>
      <point x="187.2" y="62.4" type="curve" smooth="yes"/>
      <point x="129.9" y="62.4"/>
      <point x="97.10000000000001" y="130.79999999999998"/>
      <point x="97.10000000000001" y="204.6" type="curve" smooth="yes"/>
      <point x="97.10000000000001" y="368.4"/>
      <point x="216.1" y="504.2"/>
      <point x="368.3" y="504.2" type="curve" smooth="yes"/>
      <point x="489.1" y="504.2"/>
      <point x="547.4" y="439.7"/>
      <point x="519.7" y="311.8" type="curve"/>
      <point x="590.0" y="318.8" type="line"/>
      <point x="618.8000000000001" y="466.5"/>
      <point x="541.0" y="569.7"/>
      <point x="382.09999999999997" y="569.7" type="curve" smooth="yes"/>
      <point x="183.6" y="569.7"/>
      <point x="34.4" y="402.2"/>
      <point x="34.4" y="199.2" type="curve" smooth="yes"/>
      <point x="34.4" y="89.0"/>
      <point x="98.80000000000001" y="-5.0"/>
    </contour>
  </outline>
</glyph>
<glyph name="aaMatra-tamil" format="2">
  <advance width="565.2"/>
  <unicode hex="0BBE"/>
  <note>
uni0BBE
</note>
  <anchor x="236.9" y="0.0" name="bottom"/>
  <anchor x="235.9" y="0.0" name="nukta"/>
  <anchor x="349.9" y="564.4" name="top"/>
  <anchor x="349.9" y="564.4" name="vedic"/>
  <outline>
    <contour>
      <point x="10.100000000000001" y="0.0" type="line"/>
      <point x="76.3" y="0.0" type="line"/>
      <point x="183.29999999999998" y="504.1" type="line"/>
      <point x="331.8" y="504.1" type="line"/>
      <point x="224.8" y="0.0" type="line"/>
      <point x="370.9" y="0.0" type="line"/>
      <point x="477.9" y="504.1" type="line"/>
      <point x="595.5" y="504.1" type="line"/>
      <point x="608.2" y="564.4" type="line"/>
      <point x="130.1" y="564.4" type="line"/>
    </contour>
  </outline>
</glyph>
<glyph name="iMatra-tamil" format="2">
  <advance width="193.4"/>
  <unicode hex="0BBF"/>
  <note>
uni0BBF
</note>
  <anchor x="-46.0" y="842.1" name="top"/>
  <outline>
    <contour>
      <point x="-0.8999999999999986" y="0.0" type="line"/>
      <point x="65.0" y="0.0" type="line"/>
      <point x="184.6" y="563.3" type="line" smooth="yes"/>
      <point x="219.70000000000002" y="729.5"/>
      <point x="127.2" y="842.1"/>
      <point x="-46.0" y="842.1" type="curve" smooth="yes"/>
      <point x="-181.20000000000002" y="842.1"/>
      <point x="-277.2" y="753.8"/>
      <point x="-277.2" y="640.6999999999999" type="curve" smooth="yes"/>
      <point x="-277.2" y="565.6"/>
      <point x="-227.3" y="510.0"/>
      <point x="-143.10000000000002" y="510.0" type="curve" smooth="yes"/>
      <point x="-140.4" y="510.0" type="line"/>
      <point x="-129.0" y="564.4" type="line"/>
      <point x="-131.0" y="564.4" type="line" smooth="yes"/>
      <point x="-172.5" y="564.4"/>
      <point x="-200.29999999999998" y="587.6"/>
      <point x="-200.29999999999998" y="626.5" type="curve" smooth="yes"/>
      <point x="-200.29999999999998" y="685.9000000000001"/>
      <point x="-140.0" y="723.5"/>
      <point x="-58.099999999999994" y="723.5" type="curve" smooth="yes"/>
      <point x="64.0" y="723.5"/>
      <point x="138.1" y="651.6"/>
      <point x="112.3" y="530.9" type="curve" smooth="yes"/>
    </contour>
  </outline>
</glyph>
<glyph name="iiMatra-tamil" format="2">
  <unicode hex="0BC0"/>
  <note>
uni0BC0
</note>
  <anchor x="61.0" y="564.4" name="_imatra"/>
  <anchor x="112.60000000000001" y="905.4" name="top"/>
  <outline>
    <contour>
      <point x="30.5" y="505.5" type="curve" smooth="yes"/>
      <point x="48.7" y="505.5" type="line"/>
      <point x="61.0" y="564.4" type="line"/>
      <point x="44.0" y="564.4" type="line" smooth="yes"/>
      <point x="-15.099999999999998" y="564.4"/>
      <point x="-52.2" y="606.0"/>
      <point x="-52.2" y="673.8" type="curve" smooth="yes"/>
      <point x="-52.2" y="767.1"/>
      <point x="10.3" y="843.3"/>
      <point x="101.8" y="843.3" type="curve" smooth="yes"/>
      <point x="151.10000000000002" y="843.3"/>
      <point x="180.5" y="812.7"/>
      <point x="180.5" y="766.0999999999999" type="curve" smooth="yes"/>
      <point x="180.5" y="717.5"/>
      <point x="156.5" y="680.6"/>
      <point x="114.7" y="680.6" type="curve" smooth="yes"/>
      <point x="48.2" y="680.6"/>
      <point x="59.6" y="787.6"/>
      <point x="112.60000000000001" y="866.6" type="curve"/>
      <point x="65.9" y="870.6" type="line"/>
      <point x="-22.5" y="748.8"/>
      <point x="-4.199999999999999" y="606.1"/>
      <point x="129.29999999999998" y="606.1" type="curve" smooth="yes"/>
      <point x="215.29999999999998" y="606.1"/>
      <point x="286.59999999999997" y="668.5999999999999"/>
      <point x="286.59999999999997" y="759.4" type="curve" smooth="yes"/>
      <point x="286.59999999999997" y="854.8"/>
      <point x="211.60000000000002" y="905.4"/>
      <point x="112.60000000000001" y="905.4" type="curve" smooth="yes"/>
      <point x="-14.7" y="905.4"/>
      <point x="-116.1" y="798.4000000000001"/>
      <point x="-116.1" y="668.6" type="curve" smooth="yes"/>
      <point x="-116.1" y="569.0"/>
      <point x="-57.099999999999994" y="505.5"/>
    </contour>
  </outline>
</glyph>
<glyph name="eMatra-tamil" format="2">
  <advance width="729.5"/>
  <unicode hex="0BC6"/>
  <note>
uni0BC6
</note>
  <outline>
    <contour>
      <point x="249.4" y="-5.0" type="curve" smooth="yes"/>
      <point x="356.9" y="-5.0"/>
      <point x="442.2" y="68.8"/>
      <point x="442.2" y="186.39999999999998" type="curve" smooth="yes"/>
      <point x="442.2" y="272.4"/>
      <point x="384.5" y="324.8"/>
      <point x="310.7" y="324.8" type="curve" smooth="yes"/>
      <point x="217.9" y="324.8"/>
      <point x="154.9" y="250.6"/>
      <point x="114.69999999999999" y="137.89999999999998" type="curve"/>
      <point x="146.4" y="112.60000000000001" type="line"/>
      <point x="173.10000000000002" y="193.7"/>
      <point x="208.5" y="239.5"/>
      <point x="254.5" y="239.5" type="curve" smooth="yes"/>
      <point x="293.8" y="239.5"/>
      <point x="312.2" y="206.8"/>
      <point x="312.2" y="164.79999999999998" type="curve" smooth="yes"/>
      <point x="312.2" y="109.3"/>
      <point x="283.4" y="62.4"/>
      <point x="228.3" y="62.4" type="curve" smooth="yes"/>
      <point x="164.0" y="62.4"/>
      <point x="123.7" y="143.0"/>
      <point x="123.7" y="271.59999999999997" type="curve" smooth="yes"/>
      <point x="123.7" y="487.3"/>
      <point x="255.2" y="720.0"/>
      <point x="466.6" y="720.0" type="curve" smooth="yes"/>
      <point x="614.9000000000001" y="720.0"/>
      <point x="667.5" y="624.0"/>
      <point x="634.6999999999999" y="469.8" type="curve" smooth="yes"/>
      <point x="535.6" y="0.0" type="line"/>
      <point x="601.1" y="0.0" type="line"/>
      <point x="707.1" y="501.79999999999995" type="line" smooth="yes"/>
      <point x="746.9" y="689.4"/>
      <point x="682.1" y="840.6"/>
      <point x="486.40000000000003" y="840.6" type="curve" smooth="yes"/>
      <point x="217.6" y="840.6"/>
      <point x="61.7" y="530.4"/>
      <point x="61.7" y="269.0" type="curve" smooth="yes"/>
      <point x="61.7" y="104.0"/>
      <point x="132.9" y="-5.0"/>
    </contour>
  </outline>
</glyph>
<glyph name="eeMatra-tamil" format="2">
  <advance width="566.9"/>
  <unicode hex="0BC7"/>
  <note>
uni0BC7
</note>
  <outline>
    <contour>
      <point x="298.09999999999997" y="-5.0" type="curve" smooth="yes"/>
      <point x="415.4" y="-5.0"/>
      <point x="503.9" y="74.1"/>
      <point x="503.9" y="190.2" type="curve" smooth="yes"/>
      <point x="503.9" y="274.7"/>
      <point x="447.9" y="327.2"/>
      <point x="372.90000000000003" y="327.2" type="curve" smooth="yes"/>
      <point x="276.6" y="327.2"/>
      <point x="202.3" y="245.5"/>
      <point x="164.1" y="98.5" type="curve"/>
      <point x="200.7" y="71.8" type="line"/>
      <point x="233.0" y="185.9"/>
      <point x="270.7" y="241.9"/>
      <point x="317.59999999999997" y="241.9" type="curve" smooth="yes"/>
      <point x="354.5" y="241.9"/>
      <point x="374.2" y="212.7"/>
      <point x="374.2" y="168.9" type="curve" smooth="yes"/>
      <point x="374.2" y="101.6"/>
      <point x="332.7" y="62.4"/>
      <point x="280.0" y="62.4" type="curve" smooth="yes"/>
      <point x="193.0" y="62.4"/>
      <point x="133.6" y="187.39999999999998"/>
      <point x="133.6" y="346.0" type="curve" smooth="yes"/>
      <point x="133.6" y="524.0"/>
      <point x="265.8" y="772.9"/>
      <point x="424.4" y="772.9" type="curve" smooth="yes"/>
      <point x="469.0" y="772.9"/>
      <point x="491.29999999999995" y="743.0"/>
      <point x="491.29999999999995" y="701.5" type="curve" smooth="yes"/>
      <point x="491.29999999999995" y="647.3"/>
      <point x="460.8" y="593.4"/>
      <point x="412.0" y="593.4" type="curve" smooth="yes"/>
      <point x="351.0" y="593.4"/>
      <point x="343.1" y="691.1999999999999"/>
      <point x="360.59999999999997" y="775.4" type="curve"/>
      <point x="315.20000000000005" y="750.8000000000001" type="line"/>
      <point x="292.0" y="625.0"/>
      <point x="325.0" y="508.1"/>
      <point x="437.90000000000003" y="508.1" type="curve" smooth="yes"/>
      <point x="536.4" y="508.1"/>
      <point x="616.9" y="586.1"/>
      <point x="616.9" y="694.3" type="curve" smooth="yes"/>
      <point x="616.9" y="788.5"/>
      <point x="548.1" y="840.3000000000001"/>
      <point x="458.20000000000005" y="840.3000000000001" type="curve" smooth="yes"/>
      <point x="233.20000000000002" y="840.3000000000001"/>
      <point x="69.19999999999999" y="556.1"/>
      <point x="69.19999999999999" y="337.4" type="curve" smooth="yes"/>
      <point x="69.19999999999999" y="135.39999999999998"/>
      <point x="160.89999999999998" y="-5.0"/>
    </contour>
  </outline>
</glyph>
<glyph name="aiMatra-tamil" format="2">
  <advance width="1158.3"/>
  <unicode hex="0BC8"/>
  <note>
uni0BC8
</note>
  <outline>
    <contour>
      <point x="868.7" y="-12.000000000000002" type="line"/>
      <point x="1019.4" y="59.8"/>
      <point x="1117.8" y="167.7"/>
      <point x="1117.8" y="323.0" type="curve" smooth="yes"/>
      <point x="1117.8" y="490.0"/>
      <point x="986.9" y="569.4"/>
      <point x="825.0" y="569.4" type="curve" smooth="yes"/>
      <point x="637.0" y="569.4"/>
      <point x="448.9" y="382.3"/>
      <point x="448.9" y="161.7" type="curve" smooth="yes"/>
      <point x="448.9" y="69.7"/>
      <point x="489.4" y="-4.3"/>
      <point x="586.9" y="-4.3" type="curve" smooth="yes"/>
      <point x="703.1" y="-4.3"/>
      <point x="791.4" y="84.60000000000001"/>
      <point x="791.4" y="235.9" type="curve" smooth="yes"/>
      <point x="791.4" y="432.3"/>
      <point x="660.8000000000001" y="569.4"/>
      <point x="423.7" y="569.4" type="curve" smooth="yes"/>
      <point x="215.20000000000002" y="569.4"/>
      <point x="32.5" y="404.29999999999995"/>
      <point x="32.5" y="195.9" type="curve" smooth="yes"/>
      <point x="32.5" y="85.7"/>
      <point x="93.6" y="-5.0"/>
      <point x="203.1" y="-5.0" type="curve" smooth="yes"/>
      <point x="310.6" y="-5.0"/>
      <point x="395.90000000000003" y="69.10000000000001"/>
      <point x="395.90000000000003" y="185.5" type="curve" smooth="yes"/>
      <point x="395.90000000000003" y="270.3"/>
      <point x="339.4" y="323.0"/>
      <point x="265.9" y="323.0" type="curve" smooth="yes"/>
      <point x="173.1" y="323.0"/>
      <point x="110.4" y="248.8"/>
      <point x="70.2" y="136.1" type="curve"/>
      <point x="101.89999999999999" y="110.8" type="line"/>
      <point x="128.6" y="191.9"/>
      <point x="163.70000000000002" y="237.7"/>
      <point x="209.7" y="237.7" type="curve" smooth="yes"/>
      <point x="249.00000000000003" y="237.7"/>
      <point x="265.9" y="204.4"/>
      <point x="265.9" y="163.9" type="curve" smooth="yes"/>
      <point x="265.9" y="110.5"/>
      <point x="237.10000000000002" y="62.4"/>
      <point x="182.0" y="62.4" type="curve" smooth="yes"/>
      <point x="124.7" y="62.4"/>
      <point x="95.2" y="127.5"/>
      <point x="95.2" y="201.29999999999998" type="curve" smooth="yes"/>
      <point x="95.2" y="369.3"/>
      <point x="238.1" y="507.0"/>
      <point x="412.09999999999997" y="507.0" type="curve" smooth="yes"/>
      <point x="592.1" y="507.0"/>
      <point x="660.4" y="396.2"/>
      <point x="659.0" y="237.1" type="curve" smooth="yes"/>
      <point x="658.3000000000001" y="135.2"/>
      <point x="622.1" y="64.3"/>
      <point x="564.6999999999999" y="64.3" type="curve" smooth="yes"/>
      <point x="529.6" y="64.3"/>
      <point x="511.9" y="104.2"/>
      <point x="511.9" y="165.20000000000002" type="curve" smooth="yes"/>
      <point x="511.9" y="353.79999999999995"/>
      <point x="668.8" y="507.0"/>
      <point x="815.0999999999999" y="507.0" type="curve" smooth="yes"/>
      <point x="921.5" y="507.0"/>
      <point x="986.6999999999999" y="448.0"/>
      <point x="986.6999999999999" y="330.90000000000003" type="curve" smooth="yes"/>
      <point x="986.6999999999999" y="202.4"/>
      <point x="940.4" y="115.3"/>
      <point x="843.1999999999999" y="27.3" type="curve"/>
    </contour>
  </outline>
</glyph>
<glyph name="halant-tamil" format="2">
  <unicode hex="0BCD"/>
  <note>
uni0BCD
</note>
  <anchor x="61.0" y="564.4" name="_top"/>
  <outline>
    <contour>
      <point x="90.8" y="632.7" type="curve" smooth="yes"/>
      <point x="135.2" y="632.7"/>
      <point x="171.7" y="667.8"/>
      <point x="171.7" y="709.5" type="curve" smooth="yes"/>
      <point x="171.7" y="750.1999999999999"/>
      <point x="135.2" y="785.3"/>
      <point x="90.8" y="785.3" type="curve" smooth="yes"/>
      <point x="46.4" y="785.3"/>
      <point x="10.6" y="750.1999999999999"/>
      <point x="10.6" y="709.5" type="curve" smooth="yes"/>
      <point x="10.6" y="667.8"/>
      <point x="46.4" y="632.7"/>
    </contour>
  </outline>
</glyph>
<glyph name="om-tamil" format="2">
  <advance width="910.3"/>
  <unicode hex="0BD0"/>
  <note>
uni0BD0
</note>
  <outline>
    <contour>
      <point x="197.3" y="-378.29999999999995" type="curve" smooth="yes"/>
      <point x="461.1" y="-378.29999999999995"/>
      <point x="497.99999999999994" y="-150.8"/>
      <point x="633.0999999999999" y="-150.8" type="curve" smooth="yes"/>
      <point x="677.1999999999999" y="-150.8" type="line"/>
      <point x="690.5" y="-89.0" type="line"/>
      <point x="623.7" y="-89.0" type="line" smooth="yes"/>
      <point x="460.59999999999997" y="-89.0"/>
      <point x="421.40000000000003" y="71.5"/>
      <point x="530.9" y="211.5" type="curve"/>
      <point x="536.6" y="208.5" type="line"/>
      <point x="482.1" y="88.60000000000001"/>
      <point x="512.9" y="-4.3"/>
      <point x="633.0" y="-4.3" type="curve" smooth="yes"/>
      <point x="764.3" y="-4.3"/>
      <point x="855.6" y="105.2"/>
      <point x="855.6" y="254.79999999999998" type="curve" smooth="yes"/>
      <point x="855.6" y="457.29999999999995"/>
      <point x="684.3000000000001" y="569.4"/>
      <point x="466.9" y="569.4" type="curve" smooth="yes"/>
      <point x="239.6" y="569.4"/>
      <point x="34.099999999999994" y="420.2"/>
      <point x="34.099999999999994" y="210.1" type="curve" smooth="yes"/>
      <point x="34.099999999999994" y="99.9"/>
      <point x="94.10000000000001" y="8.9"/>
      <point x="203.6" y="8.9" type="curve" smooth="yes"/>
      <point x="309.59999999999997" y="8.9"/>
      <point x="395.5" y="81.8"/>
      <point x="395.5" y="198.2" type="curve" smooth="yes"/>
      <point x="395.5" y="283.0"/>
      <point x="338.5" y="334.8"/>
      <point x="264.7" y="334.8" type="curve" smooth="yes"/>
      <point x="171.9" y="334.8"/>
      <point x="111.1" y="262.70000000000005"/>
      <point x="70.89999999999999" y="150.0" type="curve"/>
      <point x="102.60000000000001" y="124.7" type="line"/>
      <point x="129.29999999999998" y="205.8"/>
      <point x="163.9" y="249.5"/>
      <point x="209.89999999999998" y="249.5" type="curve" smooth="yes"/>
      <point x="249.20000000000002" y="249.5"/>
      <point x="265.5" y="217.1"/>
      <point x="265.5" y="176.6" type="curve" smooth="yes"/>
      <point x="265.5" y="123.20000000000002"/>
      <point x="237.60000000000002" y="76.3"/>
      <point x="182.5" y="76.3" type="curve" smooth="yes"/>
      <point x="125.2" y="76.3"/>
      <point x="96.80000000000001" y="141.7"/>
      <point x="96.80000000000001" y="215.5" type="curve" smooth="yes"/>
      <point x="96.80000000000001" y="388.20000000000005"/>
      <point x="279.0" y="509.5"/>
      <point x="451.79999999999995" y="509.5" type="curve" smooth="yes"/>
      <point x="608.5999999999999" y="509.5"/>
      <point x="722.5" y="419.5"/>
      <point x="722.5" y="265.6" type="curve" smooth="yes"/>
      <point x="722.5" y="161.29999999999998"/>
      <point x="684.3000000000001" y="65.9"/>
      <point x="608.2" y="65.9" type="curve" smooth="yes"/>
      <point x="538.0999999999999" y="65.9"/>
      <point x="559.0" y="180.20000000000002"/>
      <point x="612.1" y="266.2" type="curve"/>
      <point x="549.2" y="302.40000000000003" type="line"/>
      <point x="412.2" y="164.0"/>
      <point x="356.6" y="-34.9"/>
      <point x="507.2" y="-111.5" type="curve"/>
      <point x="506.2" y="-116.5" type="line"/>
      <point x="386.9" y="-148.1"/>
      <point x="367.3" y="-312.40000000000003"/>
      <point x="179.3" y="-312.40000000000003" type="curve" smooth="yes"/>
      <point x="79.2" y="-312.40000000000003"/>
      <point x="24.7" y="-257.5"/>
      <point x="56.400000000000006" y="-160.8" type="curve"/>
      <point x="3.700000000000001" y="-152.6" type="line"/>
      <point x="-43.199999999999996" y="-289.3"/>
      <point x="41.0" y="-378.29999999999995"/>
    </contour>
    <contour>
      <point x="89.39999999999999" y="-246.6" type="line"/>
      <point x="136.6" y="-246.6" type="line"/>
      <point x="169.6" y="-91.0" type="line"/>
      <point x="121.69999999999999" y="-91.0" type="line"/>
    </contour>
    <contour>
      <point x="105.6" y="-246.6" type="line"/>
      <point x="283.0" y="-246.6" type="line"/>
      <point x="291.59999999999997" y="-205.1" type="line"/>
      <point x="114.6" y="-205.1" type="line"/>
    </contour>
    <contour>
      <point x="173.4" y="-246.6" type="line"/>
      <point x="219.3" y="-246.6" type="line"/>
      <point x="240.39999999999998" y="-148.8" type="line" smooth="yes"/>
      <point x="243.39999999999998" y="-136.20000000000002"/>
      <point x="248.9" y="-128.5"/>
      <point x="260.90000000000003" y="-128.5" type="curve" smooth="yes"/>
      <point x="273.9" y="-128.5"/>
      <point x="278.7" y="-139.0"/>
      <point x="275.1" y="-155.4" type="curve" smooth="yes"/>
      <point x="255.3" y="-246.6" type="line"/>
      <point x="304.2" y="-246.6" type="line"/>
      <point x="321.29999999999995" y="-165.5" type="line" smooth="yes"/>
      <point x="331.59999999999997" y="-116.3"/>
      <point x="304.6" y="-89.0"/>
      <point x="265.5" y="-89.0" type="curve" smooth="yes"/>
      <point x="227.4" y="-89.0"/>
      <point x="202.5" y="-111.19999999999999"/>
      <point x="193.8" y="-152.3" type="curve" smooth="yes"/>
    </contour>
    <contour>
      <point x="239.39999999999998" y="-73.3" type="curve" smooth="yes"/>
      <point x="257.0" y="-73.3"/>
      <point x="271.59999999999997" y="-58.0"/>
      <point x="271.59999999999997" y="-42.4" type="curve" smooth="yes"/>
      <point x="271.59999999999997" y="-25.799999999999997"/>
      <point x="257.0" y="-12.2"/>
      <point x="239.39999999999998" y="-12.2" type="curve" smooth="yes"/>
      <point x="220.8" y="-12.2"/>
      <point x="207.2" y="-25.799999999999997"/>
      <point x="207.2" y="-42.4" type="curve" smooth="yes"/>
      <point x="207.2" y="-58.0"/>
      <point x="220.8" y="-73.3"/>
    </contour>
  </outline>
</glyph>
<glyph name="zero-tamil" format="2">
  <advance width="549.7"/>
  <unicode hex="0BE6"/>
  <note>
uni0BE6
</note>
  <outline>
    <contour>
      <point x="221.1" y="-5.0" type="curve" smooth="yes"/>
      <point x="399.9" y="-5.0"/>
      <point x="515.0" y="159.4"/>
      <point x="515.0" y="350.5" type="curve" smooth="yes"/>
      <point x="515.0" y="491.8"/>
      <point x="436.7" y="569.4"/>
      <point x="315.9" y="569.4" type="curve" smooth="yes"/>
      <point x="144.3" y="569.4"/>
      <point x="36.7" y="382.09999999999997"/>
      <point x="36.7" y="208.8" type="curve" smooth="yes"/>
      <point x="36.7" y="86.5"/>
      <point x="102.10000000000001" y="-5.0"/>
    </contour>
    <contour>
      <point x="200.7" y="65.1" type="curve" smooth="yes"/>
      <point x="134.79999999999998" y="65.1"/>
      <point x="100.5" y="130.2"/>
      <point x="100.5" y="213.60000000000002" type="curve" smooth="yes"/>
      <point x="100.5" y="348.7"/>
      <point x="172.29999999999998" y="500.0"/>
      <point x="281.6" y="500.0" type="curve" smooth="yes"/>
      <point x="347.0" y="500.0"/>
      <point x="382.2" y="451.8"/>
      <point x="382.2" y="364.0" type="curve" smooth="yes"/>
      <point x="382.2" y="203.4"/>
      <point x="312.7" y="65.1"/>
    </contour>
  </outline>
</glyph>
<glyph name="one-tamil" format="2">
  <advance width="764.5999999999999"/>
  <unicode hex="0BE7"/>
  <note>
uni0BE7
</note>
  <outline>
    <contour>
      <point x="205.3" y="-4.0" type="curve" smooth="yes"/>
      <point x="340.1" y="-4.0"/>
      <point x="413.3" y="60.9"/>
      <point x="440.9" y="192.5" type="curve" smooth="yes"/>
      <point x="456.79999999999995" y="268.6" type="line"/>
      <point x="488.8" y="268.6" type="line" smooth="yes"/>
      <point x="531.4" y="268.6"/>
      <point x="556.1999999999999" y="240.3"/>
      <point x="556.1999999999999" y="186.5" type="curve" smooth="yes"/>
      <point x="556.1999999999999" y="120.6"/>
      <point x="525.5" y="62.4"/>
      <point x="462.40000000000003" y="62.4" type="curve" smooth="yes"/>
      <point x="427.0" y="62.4"/>
      <point x="405.29999999999995" y="83.5"/>
      <point x="388.1" y="116.3" type="curve"/>
      <point x="342.9" y="77.39999999999999" type="line"/>
      <point x="371.4" y="27.799999999999997"/>
      <point x="411.5" y="-5.0"/>
      <point x="488.9" y="-5.0" type="curve" smooth="yes"/>
      <point x="604.2" y="-5.0"/>
      <point x="697.7" y="62.099999999999994"/>
      <point x="697.7" y="184.29999999999998" type="curve" smooth="yes"/>
      <point x="697.7" y="282.0"/>
      <point x="624.0" y="329.6"/>
      <point x="508.4" y="329.6" type="curve" smooth="yes"/>
      <point x="469.8" y="329.6" type="line"/>
      <point x="506.5" y="503.4" type="line"/>
      <point x="633.9" y="503.4" type="line"/>
      <point x="646.9" y="564.4" type="line"/>
      <point x="195.9" y="564.4" type="line"/>
      <point x="138.5" y="295.5" type="line"/>
      <point x="203.1" y="295.5" type="line"/>
      <point x="246.79999999999998" y="503.4" type="line"/>
      <point x="358.7" y="503.4" type="line"/>
      <point x="321.70000000000005" y="329.6" type="line"/>
      <point x="205.4" y="329.6" type="line" smooth="yes"/>
      <point x="106.9" y="329.6"/>
      <point x="20.0" y="261.9"/>
      <point x="20.0" y="153.3" type="curve" smooth="yes"/>
      <point x="20.0" y="67.2"/>
      <point x="81.8" y="-4.0"/>
    </contour>
    <contour>
      <point x="177.8" y="63.1" type="curve" smooth="yes"/>
      <point x="125.20000000000002" y="63.1"/>
      <point x="87.8" y="96.80000000000001"/>
      <point x="87.8" y="158.79999999999998" type="curve" smooth="yes"/>
      <point x="87.8" y="226.1"/>
      <point x="130.70000000000002" y="268.6"/>
      <point x="198.8" y="268.6" type="curve" smooth="yes"/>
      <point x="308.7" y="268.6" type="line"/>
      <point x="291.4" y="184.10000000000002" type="line" smooth="yes"/>
      <point x="273.9" y="99.8"/>
      <point x="239.5" y="63.1"/>
    </contour>
  </outline>
</glyph>
<glyph name="two-tamil" format="2">
  <advance width="840.2"/>
  <unicode hex="0BE8"/>
  <note>
uni0BE8
</note>
  <outline>
    <contour>
      <point x="94.6" y="0.0" type="curve" smooth="yes"/>
      <point x="760.6999999999999" y="0.0" type="line"/>
      <point x="773.6999999999999" y="61.0" type="line"/>
      <point x="102.8" y="61.0" type="line" smooth="yes"/>
      <point x="85.80000000000001" y="61.0"/>
      <point x="68.5" y="71.7"/>
      <point x="68.5" y="95.0" type="curve" smooth="yes"/>
      <point x="68.5" y="120.19999999999999"/>
      <point x="86.2" y="133.3"/>
      <point x="107.7" y="133.3" type="curve" smooth="yes"/>
      <point x="319.3" y="133.3" type="line" smooth="yes"/>
      <point x="482.8" y="133.3"/>
      <point x="619.3" y="214.9"/>
      <point x="619.3" y="376.0" type="curve" smooth="yes"/>
      <point x="619.3" y="503.40000000000003"/>
      <point x="519.6" y="569.4"/>
      <point x="380.70000000000005" y="569.4" type="curve" smooth="yes"/>
      <point x="218.3" y="569.4"/>
      <point x="114.1" y="449.6"/>
      <point x="114.1" y="321.3" type="curve" smooth="yes"/>
      <point x="114.1" y="218.39999999999998"/>
      <point x="179.0" y="153.4"/>
      <point x="288.4" y="153.4" type="curve"/>
      <point x="296.79999999999995" y="191.6" type="line"/>
      <point x="218.2" y="191.6"/>
      <point x="176.5" y="244.8"/>
      <point x="176.5" y="316.8" type="curve" smooth="yes"/>
      <point x="176.5" y="415.3"/>
      <point x="241.79999999999998" y="508.4"/>
      <point x="351.09999999999997" y="508.4" type="curve" smooth="yes"/>
      <point x="432.3" y="508.4"/>
      <point x="482.5" y="465.2"/>
      <point x="482.5" y="382.29999999999995" type="curve" smooth="yes"/>
      <point x="482.5" y="267.7"/>
      <point x="410.0" y="191.6"/>
      <point x="301.7" y="191.6" type="curve" smooth="yes"/>
      <point x="117.5" y="191.6" type="line" smooth="yes"/>
      <point x="50.900000000000006" y="191.6"/>
      <point x="7.0" y="152.4"/>
      <point x="7.0" y="90.7" type="curve" smooth="yes"/>
      <point x="7.0" y="39.5"/>
      <point x="37.900000000000006" y="0.0"/>
    </contour>
  </outline>
</glyph>
<glyph name="three-tamil" format="2">
  <advance width="767.9"/>
  <unicode hex="0BE9"/>
  <note>
uni0BE9
</note>
  <outline>
    <contour>
      <point x="10.100000000000001" y="0.0" type="line"/>
      <point x="74.9" y="0.0" type="line"/>
      <point x="181.9" y="504.1" type="line"/>
      <point x="291.6" y="504.1" type="line"/>
      <point x="223.0" y="182.0" type="line"/>
      <point x="356.09999999999997" y="182.0" type="line"/>
      <point x="368.3" y="238.6" type="line" smooth="yes"/>
      <point x="375.9" y="274.6"/>
      <point x="393.2" y="294.29999999999995"/>
      <point x="420.40000000000003" y="294.29999999999995" type="curve" smooth="yes"/>
      <point x="442.9" y="294.29999999999995"/>
      <point x="460.9" y="278.90000000000003"/>
      <point x="460.9" y="244.2" type="curve" smooth="yes"/>
      <point x="460.9" y="147.29999999999998"/>
      <point x="393.8" y="61.0"/>
      <point x="306.70000000000005" y="61.0" type="curve" smooth="yes"/>
      <point x="197.6" y="61.0" type="line"/>
      <point x="184.6" y="0.0" type="line"/>
      <point x="688.2" y="0.0" type="line"/>
      <point x="701.1999999999999" y="61.0" type="line"/>
      <point x="439.3" y="61.0" type="line"/>
      <point x="528.6" y="90.9"/>
      <point x="602.6" y="171.6"/>
      <point x="602.6" y="274.7" type="curve" smooth="yes"/>
      <point x="602.6" y="348.2"/>
      <point x="560.6" y="387.2"/>
      <point x="496.90000000000003" y="387.2" type="curve" smooth="yes"/>
      <point x="447.59999999999997" y="387.2"/>
      <point x="414.0" y="361.79999999999995"/>
      <point x="393.8" y="333.8" type="curve"/>
      <point x="430.0" y="504.1" type="line"/>
      <point x="549.5" y="504.1" type="line"/>
      <point x="562.5" y="564.4" type="line"/>
      <point x="130.1" y="564.4" type="line"/>
    </contour>
  </outline>
</glyph>
<glyph name="five-tamil" format="2">
  <advance width="1008.3"/>
  <unicode hex="0BEB"/>
  <note>
uni0BEB
</note>
  <outline>
    <contour>
      <point x="395.90000000000003" y="-297.4" type="curve" smooth="yes"/>
      <point x="657.6" y="-297.4"/>
      <point x="875.2" y="-84.3"/>
      <point x="875.2" y="184.79999999999998" type="curve" smooth="yes"/>
      <point x="875.2" y="285.3"/>
      <point x="828.3000000000001" y="347.3"/>
      <point x="746.0" y="347.3" type="curve" smooth="yes"/>
      <point x="664.6" y="347.3"/>
      <point x="607.0" y="279.6"/>
      <point x="587.6" y="189.1" type="curve" smooth="yes"/>
      <point x="581.0" y="158.3" type="line"/>
      <point x="601.6" y="158.3" type="line"/>
      <point x="607.9" y="187.3" type="line" smooth="yes"/>
      <point x="618.4" y="233.7"/>
      <point x="643.4" y="261.1"/>
      <point x="678.5999999999999" y="261.1" type="curve" smooth="yes"/>
      <point x="716.2" y="261.1"/>
      <point x="735.1" y="232.20000000000002"/>
      <point x="735.1" y="171.0" type="curve" smooth="yes"/>
      <point x="735.1" y="-40.60000000000001"/>
      <point x="598.6" y="-234.3"/>
      <point x="390.59999999999997" y="-234.3" type="curve" smooth="yes"/>
      <point x="214.8" y="-234.3"/>
      <point x="107.2" y="-88.30000000000001"/>
      <point x="107.2" y="154.3" type="curve" smooth="yes"/>
      <point x="107.2" y="454.90000000000003"/>
      <point x="263.3" y="727.7"/>
      <point x="567.9000000000001" y="727.7" type="curve" smooth="yes"/>
      <point x="781.5" y="727.7"/>
      <point x="925.6" y="612.8000000000001"/>
      <point x="913.4" y="394.1" type="curve"/>
      <point x="978.7" y="394.1" type="line"/>
      <point x="1002.9000000000001" y="666.6999999999999"/>
      <point x="852.5999999999999" y="844.8"/>
      <point x="582.2" y="844.8" type="curve" smooth="yes"/>
      <point x="229.4" y="844.8"/>
      <point x="39.2" y="503.2"/>
      <point x="39.2" y="148.29999999999998" type="curve" smooth="yes"/>
      <point x="39.2" y="-124.70000000000002"/>
      <point x="173.1" y="-297.4"/>
    </contour>
    <contour>
      <point x="231.9" y="0.0" type="line"/>
      <point x="297.5" y="0.0" type="line"/>
      <point x="404.5" y="504.1" type="line"/>
      <point x="527.9" y="504.1" type="line"/>
      <point x="420.90000000000003" y="0.0" type="line"/>
      <point x="567.9" y="0.0" type="line"/>
      <point x="674.9" y="504.1" type="line"/>
      <point x="795.6" y="504.1" type="line"/>
      <point x="807.6" y="564.4" type="line"/>
      <point x="351.6" y="564.4" type="line"/>
    </contour>
  </outline>
</glyph>
<glyph name="six-tamil" format="2">
  <advance width="1040.8999999999999"/>
  <unicode hex="0BEC"/>
  <note>
uni0BEC
</note>
  <outline>
    <contour>
      <point x="205.3" y="-4.0" type="curve" smooth="yes"/>
      <point x="340.1" y="-4.0"/>
      <point x="413.3" y="60.9"/>
      <point x="440.9" y="192.5" type="curve" smooth="yes"/>
      <point x="456.79999999999995" y="268.6" type="line"/>
      <point x="514.7" y="268.6" type="line" smooth="yes"/>
      <point x="544.3" y="268.6"/>
      <point x="558.9000000000001" y="249.8"/>
      <point x="551.6" y="215.70000000000002" type="curve" smooth="yes"/>
      <point x="506.20000000000005" y="0.0" type="line"/>
      <point x="642.9" y="0.0" type="line"/>
      <point x="687.5999999999999" y="212.2" type="line" smooth="yes"/>
      <point x="694.9" y="247.0"/>
      <point x="712.9" y="268.6"/>
      <point x="748.6999999999999" y="268.6" type="curve" smooth="yes"/>
      <point x="1001.0" y="268.6" type="line"/>
      <point x="1014.0" y="329.6" type="line"/>
      <point x="731.8" y="329.6" type="line" smooth="yes"/>
      <point x="686.7" y="329.6"/>
      <point x="647.5" y="304.90000000000003"/>
      <point x="627.5" y="261.8" type="curve"/>
      <point x="620.0" y="306.5"/>
      <point x="589.8" y="329.6"/>
      <point x="539.0" y="329.6" type="curve" smooth="yes"/>
      <point x="469.8" y="329.6" type="line"/>
      <point x="506.5" y="503.4" type="line"/>
      <point x="633.9" y="503.4" type="line"/>
      <point x="646.9" y="564.4" type="line"/>
      <point x="195.9" y="564.4" type="line"/>
      <point x="138.5" y="295.5" type="line"/>
      <point x="203.1" y="295.5" type="line"/>
      <point x="246.79999999999998" y="503.4" type="line"/>
      <point x="358.7" y="503.4" type="line"/>
      <point x="321.70000000000005" y="329.6" type="line"/>
      <point x="205.4" y="329.6" type="line" smooth="yes"/>
      <point x="106.9" y="329.6"/>
      <point x="20.0" y="261.9"/>
      <point x="20.0" y="153.3" type="curve" smooth="yes"/>
      <point x="20.0" y="67.2"/>
      <point x="81.8" y="-4.0"/>
    </contour>
    <contour>
      <point x="177.8" y="63.1" type="curve" smooth="yes"/>
      <point x="125.20000000000002" y="63.1"/>
      <point x="87.8" y="96.80000000000001"/>
      <point x="87.8" y="158.79999999999998" type="curve" smooth="yes"/>
      <point x="87.8" y="226.1"/>
      <point x="130.70000000000002" y="268.6"/>
      <point x="198.8" y="268.6" type="curve" smooth="yes"/>
      <point x="308.7" y="268.6" type="line"/>
      <point x="291.4" y="184.10000000000002" type="line" smooth="yes"/>
      <point x="273.9" y="99.8"/>
      <point x="239.5" y="63.1"/>
    </contour>
    <contour>
      <point x="742.6" y="0.0" type="line"/>
      <point x="881.0" y="0.0" type="line"/>
      <point x="943.3" y="293.5" type="line"/>
      <point x="804.9" y="293.5" type="line"/>
    </contour>
  </outline>
</glyph>
<glyph name="eight-tamil" format="2">
  <advance width="1146.5"/>
  <unicode hex="0BEE"/>
  <note>
uni0BEE
</note>
  <outline>
    <contour>
      <point x="827.3000000000001" y="-205.7" type="line"/>
      <point x="973.1" y="-205.7" type="line"/>
      <point x="1136.7" y="564.4" type="line"/>
      <point x="991.5999999999999" y="564.4" type="line"/>
      <point x="906.2" y="164.3" type="line"/>
      <point x="78.6" y="164.3" type="line" smooth="yes"/>
      <point x="20.3" y="164.3"/>
      <point x="-17.0" y="121.80000000000001"/>
      <point x="-17.0" y="65.0" type="curve" smooth="yes"/>
      <point x="-17.0" y="-39.1"/>
      <point x="103.39999999999999" y="-143.3"/>
      <point x="309.2" y="-143.3" type="curve" smooth="yes"/>
      <point x="598.9" y="-143.3"/>
      <point x="837.2" y="27.6"/>
      <point x="837.2" y="305.8" type="curve" smooth="yes"/>
      <point x="837.2" y="484.2"/>
      <point x="728.8" y="569.4"/>
      <point x="581.5" y="569.4" type="curve" smooth="yes"/>
      <point x="413.20000000000005" y="569.4"/>
      <point x="316.09999999999997" y="420.5"/>
      <point x="316.09999999999997" y="278.7" type="curve" smooth="yes"/>
      <point x="316.09999999999997" y="217.0"/>
      <point x="326.8" y="172.6"/>
      <point x="345.0" y="132.1" type="curve"/>
      <point x="411.40000000000003" y="132.8" type="line"/>
      <point x="389.7" y="174.79999999999998"/>
      <point x="379.4" y="221.29999999999998"/>
      <point x="379.4" y="276.5" type="curve" smooth="yes"/>
      <point x="379.4" y="381.1"/>
      <point x="439.90000000000003" y="506.7"/>
      <point x="557.2" y="506.7" type="curve" smooth="yes"/>
      <point x="645.1" y="506.7"/>
      <point x="700.1999999999999" y="450.2"/>
      <point x="700.1999999999999" y="331.5" type="curve" smooth="yes"/>
      <point x="700.1999999999999" y="93.9"/>
      <point x="535.9" y="-81.3"/>
      <point x="303.2" y="-81.3" type="curve" smooth="yes"/>
      <point x="143.6" y="-81.3"/>
      <point x="50.3" y="-1.0999999999999996"/>
      <point x="50.3" y="65.89999999999999" type="curve" smooth="yes"/>
      <point x="50.3" y="91.2"/>
      <point x="60.7" y="103.3"/>
      <point x="85.60000000000001" y="103.3" type="curve" smooth="yes"/>
      <point x="893.2" y="103.3" type="line"/>
    </contour>
  </outline>
</glyph>
<glyph name="nine-tamil" format="2">
  <advance width="1080.5"/>
  <unicode hex="0BEF"/>
  <note>
uni0BEF
</note>
  <outline>
    <contour>
      <point x="846.0" y="-16.200000000000003" type="line"/>
      <point x="959.8000000000001" y="38.2"/>
      <point x="1032.0" y="118.4"/>
      <point x="1032.0" y="237.2" type="curve" smooth="yes"/>
      <point x="1032.0" y="359.0"/>
      <point x="931.0" y="430.5"/>
      <point x="794.9000000000001" y="430.5" type="curve" smooth="yes"/>
      <point x="621.6999999999999" y="430.5"/>
      <point x="496.3" y="299.1"/>
      <point x="496.3" y="135.39999999999998" type="curve" smooth="yes"/>
      <point x="496.3" y="53.5"/>
      <point x="541.8000000000001" y="-5.0"/>
      <point x="627.8000000000001" y="-5.0" type="curve" smooth="yes"/>
      <point x="729.9" y="-5.0"/>
      <point x="807.8" y="69.5"/>
      <point x="807.8" y="172.2" type="curve" smooth="yes"/>
      <point x="807.8" y="273.2"/>
      <point x="739.6" y="329.6"/>
      <point x="619.2" y="329.6" type="curve" smooth="yes"/>
      <point x="469.8" y="329.6" type="line"/>
      <point x="506.5" y="503.4" type="line"/>
      <point x="633.9" y="503.4" type="line"/>
      <point x="646.9" y="564.4" type="line"/>
      <point x="195.9" y="564.4" type="line"/>
      <point x="138.5" y="295.5" type="line"/>
      <point x="203.1" y="295.5" type="line"/>
      <point x="246.79999999999998" y="503.4" type="line"/>
      <point x="358.7" y="503.4" type="line"/>
      <point x="321.70000000000005" y="329.6" type="line"/>
      <point x="205.4" y="329.6" type="line" smooth="yes"/>
      <point x="106.9" y="329.6"/>
      <point x="20.0" y="261.9"/>
      <point x="20.0" y="153.3" type="curve" smooth="yes"/>
      <point x="20.0" y="67.2"/>
      <point x="81.8" y="-4.0"/>
      <point x="205.3" y="-4.0" type="curve" smooth="yes"/>
      <point x="340.1" y="-4.0"/>
      <point x="413.3" y="60.9"/>
      <point x="440.9" y="192.5" type="curve" smooth="yes"/>
      <point x="456.79999999999995" y="268.6" type="line"/>
      <point x="595.6999999999999" y="268.6" type="line" smooth="yes"/>
      <point x="659.0" y="268.6"/>
      <point x="684.6999999999999" y="226.7"/>
      <point x="684.6999999999999" y="173.7" type="curve" smooth="yes"/>
      <point x="684.6999999999999" y="117.7"/>
      <point x="656.8" y="62.4"/>
      <point x="606.3000000000001" y="62.4" type="curve" smooth="yes"/>
      <point x="574.8" y="62.4"/>
      <point x="556.3000000000001" y="90.5"/>
      <point x="556.3000000000001" y="140.8" type="curve" smooth="yes"/>
      <point x="556.3000000000001" y="254.4"/>
      <point x="640.6" y="366.7"/>
      <point x="763.6999999999999" y="366.7" type="curve" smooth="yes"/>
      <point x="856.4" y="366.7"/>
      <point x="909.6" y="312.1"/>
      <point x="909.6" y="226.60000000000002" type="curve" smooth="yes"/>
      <point x="909.6" y="149.70000000000002"/>
      <point x="875.9" y="78.8"/>
      <point x="820.7" y="26.2" type="curve"/>
    </contour>
    <contour>
      <point x="177.8" y="63.1" type="curve" smooth="yes"/>
      <point x="125.20000000000002" y="63.1"/>
      <point x="87.8" y="96.80000000000001"/>
      <point x="87.8" y="158.79999999999998" type="curve" smooth="yes"/>
      <point x="87.8" y="226.1"/>
      <point x="130.70000000000002" y="268.6"/>
      <point x="198.8" y="268.6" type="curve" smooth="yes"/>
      <point x="308.7" y="268.6" type="line"/>
      <point x="291.4" y="184.10000000000002" type="line" smooth="yes"/>
      <point x="273.9" y="99.8"/>
      <point x="239.5" y="63.1"/>
    </contour>
  </outline>
</glyph>
<glyph name="ten-tamil" format="2">
  <advance width="783.0"/>
  <unicode hex="0BF0"/>
  <note>
uni0BF0
</note>
  <outline>
    <contour>
      <point x="436.3" y="-5.0" type="curve" smooth="yes"/>
      <point x="640.8" y="-5.0"/>
      <point x="761.1999999999999" y="223.4"/>
      <point x="761.1999999999999" y="441.8" type="curve" smooth="yes"/>
      <point x="761.1999999999999" y="644.1"/>
      <point x="667.4" y="785.0"/>
      <point x="439.0" y="819.5" type="curve"/>
      <point x="421.59999999999997" y="756.6999999999999" type="line"/>
      <point x="622.3000000000001" y="727.6"/>
      <point x="696.3" y="608.7"/>
      <point x="696.3" y="436.5" type="curve" smooth="yes"/>
      <point x="696.3" y="271.1"/>
      <point x="602.7" y="63.9"/>
      <point x="477.4" y="63.9" type="curve" smooth="yes"/>
      <point x="442.8" y="63.9"/>
      <point x="434.59999999999997" y="92.39999999999999"/>
      <point x="441.5" y="125.2" type="curve" smooth="yes"/>
      <point x="535.4" y="564.4" type="line"/>
      <point x="392.5" y="564.4" type="line"/>
      <point x="306.8" y="162.2" type="line" smooth="yes"/>
      <point x="286.1" y="55.5"/>
      <point x="340.3" y="-5.0"/>
    </contour>
    <contour>
      <point x="169.70000000000002" y="-7.9" type="curve" smooth="yes"/>
      <point x="243.29999999999998" y="-7.9"/>
      <point x="312.9" y="29.700000000000003"/>
      <point x="336.4" y="134.2" type="curve" smooth="yes"/>
      <point x="353.2" y="209.1" type="line"/>
      <point x="317.2" y="209.1" type="line"/>
      <point x="301.7" y="139.10000000000002" type="line" smooth="yes"/>
      <point x="290.0" y="86.6"/>
      <point x="265.09999999999997" y="62.7"/>
      <point x="232.1" y="62.7" type="curve" smooth="yes"/>
      <point x="191.6" y="62.7"/>
      <point x="181.7" y="97.9"/>
      <point x="192.2" y="145.1" type="curve" smooth="yes"/>
      <point x="281.4" y="564.4" type="line"/>
      <point x="134.4" y="564.4" type="line"/>
      <point x="48.800000000000004" y="161.70000000000002" type="line" smooth="yes"/>
      <point x="29.6" y="69.7"/>
      <point x="72.5" y="-7.9"/>
    </contour>
  </outline>
</glyph>
<glyph name="onehundred-tamil" format="2">
  <advance width="785.1999999999999"/>
  <unicode hex="0BF1"/>
  <note>
uni0BF1
</note>
  <outline>
    <contour>
      <point x="198.7" y="0.0" type="line"/>
      <point x="262.5" y="0.0" type="line"/>
      <point x="370.2" y="504.1" type="line"/>
      <point x="520.9000000000001" y="504.1" type="line"/>
      <point x="413.9" y="0.0" type="line"/>
      <point x="560.0" y="0.0" type="line"/>
      <point x="667.0" y="504.1" type="line"/>
      <point x="781.5" y="504.1" type="line"/>
      <point x="794.5" y="564.4" type="line"/>
      <point x="318.70000000000005" y="564.4" type="line"/>
    </contour>
    <contour>
      <point x="3.900000000000002" y="0.0" type="line"/>
      <point x="70.1" y="0.0" type="line"/>
      <point x="161.10000000000002" y="429.79999999999995" type="line" smooth="yes"/>
      <point x="172.0" y="481.29999999999995"/>
      <point x="195.4" y="509.9"/>
      <point x="236.79999999999998" y="509.9" type="curve" smooth="yes"/>
      <point x="280.5" y="509.9"/>
      <point x="299.8" y="474.90000000000003"/>
      <point x="286.4" y="410.90000000000003" type="curve"/>
      <point x="314.5" y="410.90000000000003" type="line"/>
      <point x="335.6" y="513.0"/>
      <point x="289.7" y="570.1"/>
      <point x="222.29999999999998" y="570.1" type="curve" smooth="yes"/>
      <point x="151.79999999999998" y="570.1"/>
      <point x="114.4" y="515.7"/>
      <point x="97.2" y="436.7" type="curve" smooth="yes"/>
    </contour>
  </outline>
</glyph>
<glyph name="onethousand-tamil" format="2">
  <advance width="1051.1000000000001"/>
  <unicode hex="0BF2"/>
  <note>
uni0BF2
</note>
  <outline>
    <contour>
      <point x="212.0" y="-4.0" type="curve" smooth="yes"/>
      <point x="346.8" y="-4.0"/>
      <point x="420.0" y="60.9"/>
      <point x="447.59999999999997" y="192.5" type="curve" smooth="yes"/>
      <point x="463.5" y="268.6" type="line"/>
      <point x="919.4" y="268.6" type="line"/>
      <point x="932.7" y="329.6" type="line"/>
      <point x="476.5" y="329.6" type="line"/>
      <point x="513.2" y="503.4" type="line"/>
      <point x="640.5999999999999" y="503.4" type="line"/>
      <point x="653.6" y="564.4" type="line"/>
      <point x="202.6" y="564.4" type="line"/>
      <point x="145.2" y="295.5" type="line"/>
      <point x="209.8" y="295.5" type="line"/>
      <point x="253.49999999999997" y="503.4" type="line"/>
      <point x="365.4" y="503.4" type="line"/>
      <point x="328.40000000000003" y="329.6" type="line"/>
      <point x="212.10000000000002" y="329.6" type="line" smooth="yes"/>
      <point x="113.60000000000001" y="329.6"/>
      <point x="26.7" y="261.9"/>
      <point x="26.7" y="153.3" type="curve" smooth="yes"/>
      <point x="26.7" y="67.2"/>
      <point x="88.5" y="-4.0"/>
    </contour>
    <contour>
      <point x="184.5" y="63.1" type="curve" smooth="yes"/>
      <point x="131.9" y="63.1"/>
      <point x="94.5" y="96.80000000000001"/>
      <point x="94.5" y="158.79999999999998" type="curve" smooth="yes"/>
      <point x="94.5" y="226.1"/>
      <point x="137.4" y="268.6"/>
      <point x="205.5" y="268.6" type="curve" smooth="yes"/>
      <point x="315.4" y="268.6" type="line"/>
      <point x="298.1" y="184.10000000000002" type="line" smooth="yes"/>
      <point x="280.6" y="99.8"/>
      <point x="246.2" y="63.1"/>
    </contour>
    <contour>
      <point x="355.7" y="-294.20000000000005" type="curve"/>
      <point x="369.5" y="-208.20000000000002"/>
      <point x="402.70000000000005" y="-156.89999999999998"/>
      <point x="501.0" y="-156.89999999999998" type="curve" smooth="yes"/>
      <point x="630.8" y="-156.89999999999998" type="line" smooth="yes"/>
      <point x="817.5" y="-156.89999999999998"/>
      <point x="949.3000000000001" y="-97.5"/>
      <point x="949.3000000000001" y="62.3" type="curve" smooth="yes"/>
      <point x="949.3000000000001" y="155.20000000000002"/>
      <point x="881.5" y="201.1"/>
      <point x="766.1" y="201.1" type="curve" smooth="yes"/>
      <point x="603.8" y="201.1" type="line" smooth="yes"/>
      <point x="522.8000000000001" y="201.1"/>
      <point x="472.5" y="146.5"/>
      <point x="472.5" y="72.10000000000001" type="curve" smooth="yes"/>
      <point x="472.5" y="13.100000000000001"/>
      <point x="518.0" y="-34.2"/>
      <point x="602.1999999999999" y="-34.2" type="curve" smooth="yes"/>
      <point x="698.4" y="-34.2"/>
      <point x="746.5" y="10.7"/>
      <point x="766.6999999999999" y="104.7" type="curve" smooth="yes"/>
      <point x="808.0" y="294.9" type="line"/>
      <point x="686.7" y="294.9" type="line"/>
      <point x="644.4" y="97.0" type="line" smooth="yes"/>
      <point x="632.1999999999999" y="39.1"/>
      <point x="609.8000000000001" y="25.200000000000003"/>
      <point x="579.9" y="25.200000000000003" type="curve" smooth="yes"/>
      <point x="549.3000000000001" y="25.200000000000003"/>
      <point x="534.3" y="46.8"/>
      <point x="534.3" y="80.19999999999999" type="curve" smooth="yes"/>
      <point x="534.3" y="116.2"/>
      <point x="555.9" y="142.8"/>
      <point x="594.4" y="142.8" type="curve" smooth="yes"/>
      <point x="754.6" y="142.8" type="line" smooth="yes"/>
      <point x="805.5" y="142.8"/>
      <point x="827.8" y="111.8"/>
      <point x="827.8" y="63.199999999999996" type="curve" smooth="yes"/>
      <point x="827.8" y="-45.5"/>
      <point x="759.1" y="-99.1"/>
      <point x="641.4" y="-99.1" type="curve" smooth="yes"/>
      <point x="461.70000000000005" y="-99.1" type="line" smooth="yes"/>
      <point x="351.6" y="-99.1"/>
      <point x="258.5" y="-123.60000000000001"/>
      <point x="258.5" y="-216.1" type="curve" smooth="yes"/>
      <point x="258.5" y="-264.40000000000003"/>
      <point x="296.5" y="-294.20000000000005"/>
    </contour>
  </outline>
</glyph>
<glyph name="day-tamil" format="2">
  <advance width="755.7"/>
  <unicode hex="0BF3"/>
  <note>
uni0BF3
</note>
  <outline>
    <contour>
      <point x="176.0" y="-5.0" type="curve" smooth="yes"/>
      <point x="272.9" y="-5.0"/>
      <point x="353.1" y="74.69999999999999"/>
      <point x="353.1" y="191.1" type="curve" smooth="yes"/>
      <point x="353.1" y="282.0"/>
      <point x="302.0" y="329.0"/>
      <point x="231.29999999999998" y="329.0" type="curve" smooth="yes"/>
      <point x="145.9" y="329.0"/>
      <point x="96.70000000000002" y="255.60000000000002"/>
      <point x="55.9" y="168.29999999999998" type="curve"/>
      <point x="75.8" y="136.4" type="line"/>
      <point x="107.6" y="205.20000000000002"/>
      <point x="136.8" y="243.7"/>
      <point x="174.40000000000003" y="243.7" type="curve" smooth="yes"/>
      <point x="212.3" y="243.7"/>
      <point x="223.1" y="209.5"/>
      <point x="223.1" y="173.0" type="curve" smooth="yes"/>
      <point x="223.1" y="119.6"/>
      <point x="201.89999999999998" y="62.4"/>
      <point x="153.2" y="62.4" type="curve" smooth="yes"/>
      <point x="101.60000000000001" y="62.4"/>
      <point x="90.8" y="129.0"/>
      <point x="90.8" y="199.79999999999998" type="curve" smooth="yes"/>
      <point x="90.8" y="365.7"/>
      <point x="200.5" y="504.9"/>
      <point x="333.5" y="504.9" type="curve" smooth="yes"/>
      <point x="435.4" y="504.9"/>
      <point x="482.40000000000003" y="434.8"/>
      <point x="481.0" y="320.7" type="curve" smooth="yes"/>
      <point x="479.6" y="209.10000000000002"/>
      <point x="437.40000000000003" y="123.8"/>
      <point x="378.0" y="44.0" type="curve"/>
      <point x="391.1" y="0.0" type="line"/>
      <point x="682.1" y="0.0" type="line"/>
      <point x="695.1" y="61.0" type="line"/>
      <point x="482.3" y="61.0" type="line"/>
      <point x="567.8" y="136.3"/>
      <point x="624.3" y="226.10000000000002"/>
      <point x="624.3" y="337.1" type="curve" smooth="yes"/>
      <point x="624.3" y="485.4"/>
      <point x="517.6999999999999" y="569.4"/>
      <point x="359.9" y="569.4" type="curve" smooth="yes"/>
      <point x="170.7" y="569.4"/>
      <point x="28.1" y="395.0"/>
      <point x="28.1" y="194.4" type="curve" smooth="yes"/>
      <point x="28.1" y="89.3"/>
      <point x="72.5" y="-5.0"/>
    </contour>
  </outline>
</glyph>
<glyph name="month-tamil" format="2">
  <advance width="1016.7"/>
  <unicode hex="0BF4"/>
  <note>
uni0BF4
</note>
  <anchor x="334.7" y="0.0" name="bottom"/>
  <anchor x="793.6" y="564.4" name="imatra"/>
  <anchor x="335.4" y="0.0" name="nukta"/>
  <anchor x="471.40000000000003" y="564.4" name="top"/>
  <anchor x="472.1" y="564.4" name="vedic"/>
  <outline>
    <contour>
      <point x="683.2" y="474.0" type="curve"/>
      <point x="713.9" y="495.3" type="line"/>
      <point x="690.1" y="534.2"/>
      <point x="672.0999999999999" y="570.4"/>
      <point x="672.0999999999999" y="626.1" type="curve" smooth="yes"/>
      <point x="672.0999999999999" y="720.4000000000001"/>
      <point x="723.2" y="805.8"/>
      <point x="818.5" y="805.8" type="curve" smooth="yes"/>
      <point x="868.1999999999999" y="805.8"/>
      <point x="903.4000000000001" y="776.3"/>
      <point x="903.4000000000001" y="722.9" type="curve" smooth="yes"/>
      <point x="903.4000000000001" y="676.1"/>
      <point x="879.0" y="639.2"/>
      <point x="838.8" y="639.2" type="curve" smooth="yes"/>
      <point x="810.5999999999999" y="639.2"/>
      <point x="798.5" y="668.0"/>
      <point x="798.5" y="712.2" type="curve" smooth="yes"/>
      <point x="798.5" y="807.5"/>
      <point x="859.6" y="907.6"/>
      <point x="963.0" y="907.6" type="curve" smooth="yes"/>
      <point x="1035.5" y="907.6"/>
      <point x="1071.4" y="869.7"/>
      <point x="1055.1000000000001" y="791.2" type="curve" smooth="yes"/>
      <point x="1010.6999999999999" y="581.7" type="line"/>
      <point x="1110.8" y="581.7" type="line"/>
      <point x="1158.2" y="803.5" type="line" smooth="yes"/>
      <point x="1170.8000000000002" y="862.4"/>
      <point x="1203.6" y="909.2"/>
      <point x="1260.7" y="898.8" type="curve"/>
      <point x="1278.1" y="958.9" type="line"/>
      <point x="1201.6000000000001" y="972.1999999999999"/>
      <point x="1148.3" y="929.1999999999999"/>
      <point x="1118.8999999999999" y="858.4000000000001" type="curve"/>
      <point x="1114.6" y="858.4000000000001" type="line"/>
      <point x="1106.4" y="926.5"/>
      <point x="1051.1999999999998" y="965.1"/>
      <point x="973.4" y="965.1" type="curve" smooth="yes"/>
      <point x="841.5" y="965.1"/>
      <point x="740.1" y="834.5"/>
      <point x="740.1" y="703.6" type="curve" smooth="yes"/>
      <point x="740.1" y="629.5"/>
      <point x="775.5" y="576.0"/>
      <point x="843.8" y="576.0" type="curve" smooth="yes"/>
      <point x="926.3" y="576.0"/>
      <point x="987.1" y="639.3000000000001"/>
      <point x="987.1" y="728.5999999999999" type="curve" smooth="yes"/>
      <point x="987.1" y="813.1"/>
      <point x="928.1" y="864.7"/>
      <point x="831.2" y="864.7" type="curve" smooth="yes"/>
      <point x="709.6999999999999" y="864.7"/>
      <point x="615.9000000000001" y="758.6"/>
      <point x="615.9000000000001" y="634.6999999999999" type="curve" smooth="yes"/>
      <point x="615.9000000000001" y="571.1"/>
      <point x="639.4" y="526.6"/>
    </contour>
    <component base="ma-tamil"/>
  </outline>
</glyph>
<glyph name="year-tamil" format="2">
  <advance width="1967.0"/>
  <unicode hex="0BF5"/>
  <note>
uni0BF5
</note>
  <anchor x="704.9" y="0.0" name="bottom"/>
  <anchor x="1232.8999999999999" y="564.4" name="imatra"/>
  <anchor x="707.0" y="0.0" name="nukta"/>
  <anchor x="843.5" y="564.4" name="top"/>
  <anchor x="821.0" y="564.4" name="vedic"/>
  <outline>
    <contour>
      <point x="665.9" y="-282.09999999999997" type="curve" smooth="yes"/>
      <point x="1049.7" y="-282.09999999999997"/>
      <point x="1415.0" y="-126.30000000000001"/>
      <point x="1415.0" y="193.10000000000002" type="curve" smooth="yes"/>
      <point x="1415.0" y="291.7"/>
      <point x="1363.0" y="347.3"/>
      <point x="1283.6000000000001" y="347.3" type="curve" smooth="yes"/>
      <point x="1198.6999999999998" y="347.3"/>
      <point x="1139.8000000000002" y="280.0"/>
      <point x="1119.7" y="187.7" type="curve" smooth="yes"/>
      <point x="1111.7" y="150.6" type="line"/>
      <point x="1136.5" y="150.6" type="line"/>
      <point x="1143.5" y="186.6" type="line" smooth="yes"/>
      <point x="1151.8999999999999" y="231.3"/>
      <point x="1173.9" y="259.7"/>
      <point x="1214.7" y="259.7" type="curve" smooth="yes"/>
      <point x="1253.1999999999998" y="259.7"/>
      <point x="1273.1000000000001" y="232.0"/>
      <point x="1273.1000000000001" y="178.5" type="curve" smooth="yes"/>
      <point x="1273.1000000000001" y="-91.80000000000001"/>
      <point x="989.7" y="-219.70000000000002"/>
      <point x="667.4000000000001" y="-219.70000000000002" type="curve" smooth="yes"/>
      <point x="328.59999999999997" y="-219.70000000000002"/>
      <point x="106.80000000000001" y="-69.5"/>
      <point x="106.80000000000001" y="195.7" type="curve" smooth="yes"/>
      <point x="106.80000000000001" y="567.3"/>
      <point x="473.3" y="782.4"/>
      <point x="920.2" y="782.4" type="curve" smooth="yes"/>
      <point x="1285.0" y="782.4"/>
      <point x="1605.8999999999999" y="618.6"/>
      <point x="1529.0" y="291.70000000000005" type="curve" smooth="yes"/>
      <point x="1503.7" y="184.6" type="line" smooth="yes"/>
      <point x="1477.1000000000001" y="71.0"/>
      <point x="1529.1000000000001" y="-2.9000000000000004"/>
      <point x="1646.8999999999999" y="-2.9000000000000004" type="curve" smooth="yes"/>
      <point x="1810.1000000000001" y="-2.9000000000000004"/>
      <point x="1932.2" y="150.4"/>
      <point x="1932.2" y="365.40000000000003" type="curve" smooth="yes"/>
      <point x="1932.2" y="442.7"/>
      <point x="1917.8000000000002" y="504.70000000000005"/>
      <point x="1891.5" y="566.3000000000001" type="curve"/>
      <point x="1828.9" y="541.2" type="line"/>
      <point x="1851.5" y="485.4"/>
      <point x="1866.8000000000002" y="424.09999999999997"/>
      <point x="1866.8000000000002" y="356.5" type="curve" smooth="yes"/>
      <point x="1866.8000000000002" y="194.7"/>
      <point x="1773.6999999999998" y="66.5"/>
      <point x="1689.0" y="66.5" type="curve" smooth="yes"/>
      <point x="1639.7" y="66.5"/>
      <point x="1633.0" y="113.6"/>
      <point x="1647.8999999999999" y="175.89999999999998" type="curve" smooth="yes"/>
      <point x="1676.2" y="293.59999999999997" type="line" smooth="yes"/>
      <point x="1767.0" y="671.9"/>
      <point x="1358.7" y="844.8"/>
      <point x="928.1999999999999" y="844.8" type="curve" smooth="yes"/>
      <point x="428.1" y="844.8"/>
      <point x="41.5" y="603.2"/>
      <point x="41.5" y="190.7" type="curve" smooth="yes"/>
      <point x="41.5" y="-100.2"/>
      <point x="289.0" y="-282.09999999999997"/>
    </contour>
    <component base="lla-tamil" xOffset="187.4"/>
  </outline>
</glyph>
<glyph name="debit-tamil" format="2">
  <advance width="1076.8000000000002"/>
  <unicode hex="0BF6"/>
  <note>
uni0BF6
</note>
  <outline>
    <contour>
      <point x="220.9" y="-338.7" type="curve" smooth="yes"/>
      <point x="431.70000000000005" y="-338.7"/>
      <point x="602.2" y="-235.2"/>
      <point x="645.7" y="-31.0" type="curve" smooth="yes"/>
      <point x="772.1" y="564.4" type="line"/>
      <point x="626.8" y="564.4" type="line"/>
      <point x="502.0" y="-20.799999999999997" type="line" smooth="yes"/>
      <point x="465.20000000000005" y="-193.10000000000002"/>
      <point x="363.7" y="-278.4"/>
      <point x="205.6" y="-278.4" type="curve" smooth="yes"/>
      <point x="83.0" y="-278.4"/>
      <point x="22.0" y="-211.20000000000002"/>
      <point x="22.0" y="-154.4" type="curve" smooth="yes"/>
      <point x="22.0" y="-130.9"/>
      <point x="34.8" y="-120.10000000000001"/>
      <point x="57.400000000000006" y="-120.10000000000001" type="curve" smooth="yes"/>
      <point x="921.7" y="-120.10000000000001" type="line"/>
      <point x="1067.0" y="564.4" type="line"/>
      <point x="920.0" y="564.4" type="line"/>
      <point x="787.4" y="-59.1" type="line"/>
      <point x="49.0" y="-59.1" type="line" smooth="yes"/>
      <point x="-11.2" y="-59.1"/>
      <point x="-44.8" y="-95.6"/>
      <point x="-44.8" y="-153.2" type="curve" smooth="yes"/>
      <point x="-44.8" y="-244.4"/>
      <point x="50.0" y="-338.7"/>
    </contour>
    <contour>
      <point x="14.8" y="14.3" type="line"/>
      <point x="583.8" y="14.3" type="line"/>
      <point x="596.8" y="76.0" type="line"/>
      <point x="173.6" y="76.0" type="line"/>
      <point x="277.6" y="564.4" type="line"/>
      <point x="131.5" y="564.4" type="line"/>
    </contour>
  </outline>
</glyph>
